<?xml version="1.0" encoding="utf-8"?>
<!-- Generator: Adobe Illustrator 14.0.0, SVG Export Plug-In . SVG Version: 6.00 Build 43363)  -->
<!DOCTYPE svg PUBLIC "-//W3C//DTD SVG 1.1//EN" "http://www.w3.org/Graphics/SVG/1.1/DTD/svg11.dtd">
<svg version="1.1" id="Layer_1" xmlns="http://www.w3.org/2000/svg" xmlns:xlink="http://www.w3.org/1999/xlink" x="0px" y="0px"
	 width="432px" height="216px" viewBox="0 0 432 216" enable-background="new 0 0 432 216" xml:space="preserve">
<rect fill-rule="evenodd" clip-rule="evenodd" fill="#29315F" width="432" height="216"/>
<g>
	<g>
		<path fill="#FFFCD5" d="M174.776,122.279c0.163,0.734,0.306,1.479,0.429,2.234s0.081,1.521-0.123,2.295
			c-0.327,0.49-0.796,0.797-1.408,0.918c-0.612,0.123-1.255,0.123-1.928,0c-0.673-0.121-1.327-0.314-1.959-0.581
			c-0.633-0.265-1.133-0.521-1.5-0.765c-0.694-2-1.185-4.081-1.469-6.245c-0.286-2.163-0.45-4.325-0.49-6.489
			c-0.042-2.162,0-4.306,0.122-6.428c0.123-2.122,0.285-4.122,0.49-6c0.082-1.387,0.337-2.856,0.766-4.408
			c0.428-1.55,0.989-3.05,1.684-4.5c0.693-1.448,1.53-2.786,2.51-4.01c0.979-1.225,2.091-2.173,3.336-2.847
			c1.245-0.673,2.622-1.03,4.133-1.071c1.509-0.04,3.122,0.389,4.836,1.286c1.714,0.898,2.836,2.042,3.367,3.429
			c0.53,1.388,0.643,2.888,0.336,4.5c-0.306,1.613-0.97,3.245-1.99,4.897c-1.021,1.653-2.194,3.174-3.52,4.561
			c-1.327,1.388-2.735,2.551-4.224,3.49c-1.491,0.939-2.888,1.49-4.194,1.653c-0.082,2.327-0.082,4.673,0,7.041
			C174.062,117.605,174.327,119.952,174.776,122.279z M183.409,88.485c-1.592-0.041-2.949,0.367-4.071,1.224
			c-1.123,0.857-2.051,1.898-2.786,3.123c-0.734,1.224-1.266,2.521-1.592,3.887c-0.327,1.368-0.47,2.5-0.428,3.398
			c0.081-0.04,0.418-0.224,1.01-0.551c0.591-0.327,1.295-0.745,2.112-1.255c0.816-0.51,1.663-1.122,2.541-1.836
			c0.877-0.714,1.632-1.489,2.265-2.327c0.632-0.836,1.071-1.734,1.316-2.693C184.021,90.496,183.898,89.505,183.409,88.485z"/>
		<path fill="#FFFCD5" d="M196.325,103.913c-0.041,0.408-0.083,1.102-0.123,2.081c-0.041,0.98-0.061,2.072-0.061,3.276
			c0,1.204,0.04,2.459,0.123,3.765c0.081,1.307,0.224,2.501,0.428,3.581c0.204,1.082,0.51,1.971,0.918,2.664
			c0.408,0.693,0.938,1.04,1.592,1.04c0.938,0,1.745-0.347,2.418-1.04c0.674-0.693,1.255-1.571,1.745-2.633
			c0.49-1.061,0.877-2.255,1.163-3.582c0.285-1.325,0.521-2.621,0.704-3.887c0.184-1.265,0.306-2.449,0.367-3.551
			s0.112-1.959,0.153-2.571c0.04-0.734,0.254-1.265,0.643-1.592c0.387-0.326,0.867-0.499,1.438-0.52
			c0.571-0.021,1.184,0.092,1.837,0.336c0.652,0.245,1.265,0.551,1.836,0.918c0.571,0.367,1.041,0.786,1.408,1.255
			c0.367,0.47,0.571,0.929,0.612,1.377c0.04,0.612,0.02,1.5-0.062,2.663c-0.082,1.163-0.153,2.47-0.214,3.918
			c-0.062,1.449-0.092,2.938-0.092,4.469c0,1.531,0.112,2.939,0.336,4.225c0.224,1.285,0.571,2.387,1.041,3.306
			c0.469,0.919,1.132,1.479,1.989,1.684c0.775,0.204,1.307,0.47,1.592,0.796c0.285,0.327,0.316,0.643,0.092,0.949
			c-0.225,0.306-0.673,0.541-1.346,0.703c-0.674,0.163-1.583,0.143-2.725-0.061c-1.878-0.326-3.327-0.979-4.347-1.959
			c-1.021-0.979-1.775-2-2.265-3.061c-0.572-1.225-0.918-2.572-1.041-4.041c-0.531,1.633-1.225,3.041-2.082,4.225
			c-0.734,1.061-1.684,1.969-2.847,2.724c-1.163,0.756-2.582,1.011-4.255,0.765c-1.674-0.244-3.051-0.785-4.132-1.621
			c-1.082-0.836-1.959-1.847-2.632-3.031c-0.674-1.184-1.174-2.479-1.5-3.887c-0.327-1.408-0.551-2.826-0.673-4.256
			c-0.123-1.142-0.184-2.285-0.184-3.428s0.041-2.204,0.123-3.184c0.082-0.979,0.204-1.815,0.367-2.51
			c0.163-0.693,0.347-1.142,0.551-1.347c0.245-0.204,0.755-0.429,1.53-0.673c0.775-0.245,1.582-0.377,2.418-0.398
			c0.836-0.02,1.581,0.113,2.234,0.398C196.059,102.484,196.365,103.055,196.325,103.913z"/>
		<path fill="#FFFCD5" d="M218.303,103.729c-0.449-0.245-0.857-0.387-1.225-0.428c-0.367-0.041-0.704-0.062-1.01-0.062
			s-0.571-0.03-0.796-0.092c-0.224-0.061-0.418-0.254-0.582-0.582c-0.123-0.285,0.072-0.673,0.582-1.163
			c0.511-0.49,1.194-0.897,2.051-1.225c0.857-0.326,1.815-0.459,2.878-0.398c1.061,0.062,2.081,0.48,3.061,1.255
			c0.857,0.734,1.561,1.438,2.112,2.112c0.551,0.673,0.989,1.276,1.316,1.806c0.367,0.612,0.632,1.204,0.796,1.775
			c1.143-1.102,2.326-2.021,3.551-2.755c1.061-0.652,2.244-1.183,3.551-1.592c1.306-0.408,2.611-0.429,3.918-0.061
			c0.326,0.122,0.479,0.377,0.459,0.765c-0.021,0.388-0.184,0.806-0.49,1.255c-0.306,0.45-0.725,0.878-1.254,1.286
			c-0.531,0.409-1.164,0.694-1.898,0.857c-1.43,0.327-2.562,0.939-3.397,1.837c-0.837,0.898-1.479,1.949-1.929,3.152
			c-0.449,1.205-0.734,2.49-0.857,3.857c-0.122,1.367-0.184,2.684-0.184,3.949c0.041,2.652-0.326,4.621-1.102,5.907
			s-1.816,1.97-3.123,2.051c-1.51,0.083-2.632-0.612-3.367-2.081c-0.734-1.47-1.102-3.959-1.102-7.469
			c0.041-2.205,0.062-4.123,0.062-5.756c0-1.631-0.062-3.009-0.184-4.132c-0.122-1.122-0.327-2.01-0.612-2.663
			C219.241,104.484,218.833,104.015,218.303,103.729z"/>
		<path fill="#FFFCD5" d="M241.138,104.28c0.571-1.102,1.326-2.061,2.266-2.877c0.938-0.816,1.968-1.479,3.091-1.99
			c1.123-0.51,2.307-0.888,3.551-1.132c1.245-0.245,2.459-0.368,3.643-0.368c1.225,0.083,2.275,0.48,3.153,1.194
			c0.878,0.715,1.5,1.633,1.868,2.755c0.367,1.123,0.438,2.378,0.213,3.765c-0.225,1.388-0.826,2.796-1.805,4.224
			c-1.063,1.552-2.195,2.715-3.398,3.489c-1.204,0.776-2.316,1.327-3.336,1.653c-1.185,0.409-2.348,0.593-3.49,0.552
			c-0.041,1.551,0.123,2.877,0.49,3.979c0.162,0.49,0.356,0.949,0.581,1.377c0.224,0.43,0.521,0.807,0.888,1.133
			c0.367,0.328,0.816,0.563,1.348,0.705c0.529,0.143,1.142,0.152,1.836,0.03c1.469-0.245,2.663-0.786,3.582-1.622
			c0.918-0.836,1.684-1.684,2.295-2.541c0.612-0.857,1.111-1.602,1.5-2.234c0.388-0.633,0.766-0.867,1.133-0.705
			c0.449,0.205,0.684,0.715,0.704,1.531s-0.175,1.775-0.581,2.877c-0.409,1.103-1.011,2.234-1.807,3.398
			c-0.796,1.163-1.807,2.152-3.03,2.969c-1.225,0.816-2.633,1.377-4.225,1.684c-1.591,0.307-3.366,0.153-5.326-0.459
			c-1.591-0.49-2.919-1.265-3.979-2.326c-1.062-1.061-1.897-2.285-2.51-3.674c-0.612-1.387-1.021-2.877-1.225-4.469
			c-0.205-1.592-0.234-3.173-0.092-4.744s0.449-3.071,0.918-4.5C239.861,106.525,240.443,105.3,241.138,104.28z M246.832,110.953
			c0.529-0.082,1.121-0.245,1.775-0.49c0.57-0.203,1.193-0.51,1.867-0.918c0.673-0.408,1.396-0.98,2.173-1.714
			c0.735-0.693,1.233-1.367,1.5-2.021c0.265-0.652,0.418-1.203,0.459-1.653c0.04-0.53-0.041-1.02-0.245-1.469
			c-0.572-0.163-1.184-0.163-1.836,0c-0.572,0.164-1.205,0.49-1.898,0.979c-0.694,0.49-1.408,1.266-2.143,2.326
			c-0.572,0.817-0.979,1.541-1.225,2.173c-0.244,0.634-0.408,1.153-0.49,1.562C246.688,110.219,246.709,110.627,246.832,110.953z"/>
	</g>
	<g>
		<path fill="#FFCB05" d="M302.925,136.053c-0.489,0.082-0.878-0.01-1.163-0.275c-0.286-0.266-0.511-0.611-0.674-1.041
			c-0.163-0.428-0.266-0.897-0.306-1.407c-0.041-0.511-0.062-0.99-0.062-1.438c0-0.408-0.051-1.235-0.152-2.48
			c-0.104-1.244-0.275-2.703-0.521-4.377c-0.244-1.673-0.592-3.469-1.04-5.387c-0.45-1.918-1.041-3.734-1.775-5.449
			c-0.163-0.326-0.96-0.387-2.388-0.184c-1.43,0.205-3.244,0.307-5.449,0.307c-0.693-0.041-1.377-0.031-2.051,0.03
			c-0.673,0.062-1.275,0.133-1.806,0.214c-0.53,0.082-0.97,0.164-1.316,0.245c-0.347,0.083-0.521,0.144-0.521,0.184
			c-0.041,0.531-0.092,1.215-0.152,2.052c-0.062,0.836-0.164,1.725-0.307,2.662c-0.143,0.939-0.348,1.878-0.611,2.816
			c-0.267,0.939-0.623,1.775-1.072,2.51s-1,1.327-1.652,1.775c-0.654,0.449-1.449,0.634-2.389,0.551
			c-0.611-0.039-1.051-0.652-1.315-1.836c-0.267-1.184-0.45-2.53-0.552-4.041c-0.102-1.51-0.133-2.947-0.092-4.316
			c0.041-1.366,0.063-2.254,0.063-2.662c-2.246-0.285-3.766-0.674-4.562-1.164c-0.796-0.489-1.071-0.988-0.827-1.5
			c0.246-0.51,0.919-0.988,2.021-1.438c1.102-0.449,2.448-0.816,4.04-1.103c0.163-1.469,0.347-3.306,0.551-5.51
			c0.204-2.204,0.521-4.448,0.949-6.734c0.429-2.285,1.02-4.438,1.775-6.459c0.755-2.02,1.784-3.581,3.091-4.683
			c0.694-0.53,1.592-0.714,2.694-0.551c1.103,0.164,2.255,0.592,3.459,1.286c1.204,0.695,2.377,1.592,3.521,2.694
			c1.142,1.102,2.121,2.326,2.938,3.673c0.489,0.898,1.01,2.062,1.562,3.49c0.551,1.429,1.08,2.888,1.592,4.377
			c0.51,1.49,0.988,2.868,1.438,4.132c0.449,1.266,0.816,2.184,1.103,2.755c0.081,0.164,0.407,0.225,0.979,0.184
			c0.571-0.041,1.193-0.041,1.867,0c0.674,0.041,1.295,0.184,1.867,0.428c0.571,0.246,0.877,0.735,0.918,1.469
			c0.041,0.612-0.193,1.153-0.703,1.622c-0.512,0.471-1.072,0.857-1.684,1.164c-0.613,0.306-1.185,0.541-1.715,0.703
			c-0.531,0.164-0.795,0.267-0.795,0.307c0.489,2.571,0.958,5.152,1.407,7.744c0.448,2.593,0.774,4.939,0.979,7.041
			c0.204,2.102,0.225,3.846,0.062,5.234C303.986,135.053,303.577,135.849,302.925,136.053z M286.027,90.995
			c-0.408,0.286-0.734,0.817-0.979,1.592c-0.245,0.776-0.43,1.705-0.551,2.786c-0.123,1.082-0.215,2.265-0.276,3.551
			s-0.092,2.551-0.092,3.796c0,1.245,0,2.409,0,3.489c0,1.082,0,1.99,0,2.725c0.163,0.041,0.571,0.062,1.225,0.062
			c0.652,0,1.397-0.01,2.234-0.031c0.837-0.02,1.724-0.061,2.663-0.122c0.938-0.062,1.796-0.132,2.571-0.214
			c0.774-0.082,1.408-0.163,1.897-0.246c0.49-0.081,0.735-0.163,0.735-0.245c-0.083-0.571-0.306-1.428-0.673-2.571
			c-0.368-1.142-0.827-2.397-1.378-3.765c-0.552-1.367-1.163-2.755-1.837-4.163s-1.347-2.652-2.02-3.734
			c-0.674-1.081-1.328-1.908-1.96-2.479C286.956,90.852,286.436,90.71,286.027,90.995z"/>
		<path fill="#FFCB05" d="M327.842,90.627c-0.164,1.836-0.45,3.592-0.857,5.265c-0.408,1.674-0.888,3.266-1.439,4.775
			c-0.551,1.511-1.152,2.939-1.806,4.286s-1.307,2.571-1.959,3.674c-1.552,2.611-3.266,4.979-5.143,7.102
			c0,0.285,0.062,0.652,0.184,1.102c0.081,0.408,0.245,0.908,0.49,1.5s0.632,1.296,1.163,2.111c1.061,1.715,2.234,2.786,3.52,3.215
			c1.286,0.428,2.531,0.47,3.734,0.122c1.204-0.347,2.256-0.958,3.153-1.837c0.897-0.877,1.51-1.765,1.837-2.662
			c0.326-0.939,0.652-1.551,0.979-1.837c0.326-0.285,0.622-0.356,0.888-0.214s0.469,0.438,0.612,0.887
			c0.143,0.449,0.192,0.939,0.153,1.47c-0.695,1.837-1.572,3.449-2.633,4.837c-0.449,0.611-0.979,1.203-1.592,1.775
			c-0.612,0.571-1.285,1.082-2.021,1.529c-0.734,0.449-1.541,0.807-2.418,1.072c-0.878,0.265-1.827,0.377-2.847,0.336
			c-2.613-0.041-4.786-0.673-6.52-1.897c-1.736-1.224-3.133-2.795-4.194-4.714c-1.062-1.918-1.816-4.092-2.265-6.52
			c-0.45-2.428-0.705-4.888-0.766-7.377c-0.062-2.49,0.04-4.888,0.307-7.194c0.264-2.306,0.581-4.316,0.948-6.03
			c0.407-1.795,0.949-3.571,1.622-5.326c0.674-1.754,1.51-3.306,2.51-4.653c1-1.347,2.184-2.408,3.551-3.184
			c1.367-0.775,2.97-1.061,4.807-0.857c1.347,0.205,2.51,0.673,3.489,1.408c0.815,0.612,1.51,1.541,2.081,2.786
			C327.984,86.822,328.127,88.506,327.842,90.627z M316.025,110.34c1.061-1.754,2.041-3.57,2.939-5.448
			c0.774-1.592,1.529-3.337,2.265-5.234c0.734-1.898,1.265-3.765,1.592-5.602c0.163-0.897,0.315-1.815,0.459-2.755
			c0.143-0.938,0.204-1.806,0.184-2.602c-0.021-0.796-0.174-1.47-0.459-2.021c-0.286-0.551-0.756-0.867-1.408-0.949
			c-0.856-0.082-1.622,0.214-2.296,0.888c-0.674,0.673-1.245,1.613-1.714,2.816c-0.47,1.205-0.848,2.632-1.133,4.286
			c-0.286,1.653-0.489,3.408-0.612,5.265c-0.122,1.858-0.164,3.765-0.122,5.724C315.76,106.667,315.862,108.545,316.025,110.34z"/>
		<path fill="#FFCB05" d="M344.554,102.811c1.877,1.143,3.326,2.541,4.347,4.193c1.02,1.652,1.684,3.389,1.99,5.204
			c0.306,1.816,0.254,3.622-0.153,5.418c-0.409,1.796-1.093,3.419-2.051,4.866c-0.96,1.449-2.173,2.644-3.644,3.582
			c-1.469,0.939-3.143,1.43-5.02,1.469c-2.367,0.041-4.357-0.479-5.969-1.561c-1.613-1.081-2.847-2.459-3.704-4.133
			c-0.856-1.673-1.356-3.498-1.5-5.479c-0.142-1.979,0.071-3.836,0.644-5.571c0.57-1.734,1.509-3.214,2.815-4.438
			c1.306-1.225,2.938-1.898,4.897-2.021c1.796-0.123,3.102-0.315,3.918-0.582c0.816-0.265,1.408-0.51,1.775-0.734
			c0.367-0.224,0.623-0.377,0.766-0.459C343.809,102.484,344.104,102.565,344.554,102.811z M337.391,108.137
			c-0.244,0.245-0.449,0.837-0.611,1.775c-0.164,0.939-0.275,2.041-0.337,3.306c-0.062,1.266-0.052,2.593,0.03,3.979
			c0.082,1.389,0.234,2.653,0.459,3.796c0.225,1.144,0.541,2.081,0.949,2.815c0.408,0.735,0.897,1.063,1.469,0.98
			c0.572-0.082,1.123-0.459,1.653-1.133s1.011-1.51,1.438-2.51c0.429-1,0.775-2.102,1.041-3.307c0.266-1.203,0.429-2.377,0.49-3.52
			c0.061-1.143-0.011-2.184-0.215-3.123c-0.205-0.938-0.551-1.652-1.041-2.143c-1.143-1.183-2.111-1.826-2.908-1.928
			C339.014,107.025,338.207,107.362,337.391,108.137z"/>
		<path fill="#FFCB05" d="M354.717,120.871c-0.041-1.348-0.083-3.225-0.123-5.633c-0.041-2.408-0.052-5.04-0.031-7.897
			c0.021-2.856,0.071-5.786,0.154-8.785c0.08-3,0.234-5.744,0.459-8.234c0.224-2.489,0.54-4.57,0.949-6.245
			c0.406-1.673,0.938-2.632,1.592-2.877c1.142-0.407,2.273-0.428,3.396-0.061s2.133,0.929,3.031,1.684
			c0.896,0.756,1.643,1.613,2.234,2.571c0.592,0.959,0.928,1.827,1.01,2.602c0.449,2.531,0.459,4.816,0.031,6.856
			c-0.429,2.042-1.031,3.918-1.807,5.632c-0.775,1.714-1.592,3.286-2.449,4.714c-0.856,1.429-1.469,2.816-1.836,4.164
			c1.02-1.837,2.162-3.388,3.428-4.653c0.531-0.53,1.103-1.02,1.715-1.469c0.612-0.448,1.265-0.796,1.959-1.041
			c0.693-0.245,1.408-0.367,2.143-0.367s1.49,0.205,2.266,0.612c1.264,0.653,2.234,1.583,2.908,2.786
			c0.673,1.205,1.162,2.551,1.469,4.041c0.307,1.49,0.5,3.051,0.582,4.684c0.081,1.633,0.173,3.204,0.275,4.713
			c0.102,1.511,0.275,2.908,0.52,4.194c0.246,1.286,0.693,2.317,1.348,3.091c0.938,1.103,1.754,1.867,2.449,2.297
			c0.693,0.428,1.285,0.693,1.775,0.795c0.489,0.102,0.887,0.143,1.193,0.123c0.307-0.021,0.541,0.051,0.704,0.215
			c0.122,0.121,0.214,0.254,0.275,0.397c0.062,0.143,0.062,0.284,0,0.429c-0.062,0.143-0.235,0.306-0.521,0.489
			c-0.286,0.184-0.715,0.377-1.285,0.581c-1.103,0.368-2.521,0.419-4.256,0.154c-1.734-0.267-3.581-1.113-5.54-2.541
			c-0.979-0.695-1.725-1.674-2.234-2.939c-0.511-1.264-0.909-2.642-1.194-4.132c-0.285-1.489-0.5-2.999-0.643-4.53
			c-0.143-1.53-0.316-2.928-0.52-4.193c-0.205-1.265-0.501-2.296-0.889-3.092c-0.389-0.796-0.949-1.214-1.684-1.255
			c-0.734-0.04-1.388,0.235-1.959,0.826c-0.572,0.593-1.062,1.388-1.469,2.388c-0.408,1-0.746,2.133-1.01,3.398
			c-0.267,1.265-0.48,2.51-0.644,3.734c-0.163,1.224-0.286,2.387-0.367,3.488c-0.083,1.103-0.144,1.98-0.184,2.633
			c-0.041,1.021-0.286,1.736-0.735,2.143c-0.449,0.408-0.969,0.613-1.561,0.613s-1.215-0.133-1.867-0.398
			c-0.653-0.266-1.184-0.541-1.592-0.826c-0.449-0.326-0.775-0.816-0.979-1.47c-0.204-0.652-0.347-1.306-0.429-1.959
			C354.695,122.584,354.676,121.769,354.717,120.871z M362.186,99.015c0.407-1.509,0.774-3.081,1.102-4.714
			c0.326-1.632,0.469-3.061,0.429-4.286c-0.083-1.224-0.245-2.274-0.489-3.153c-0.246-0.877-0.531-1.469-0.857-1.775
			c-0.328-0.306-0.654-0.254-0.98,0.153c-0.326,0.408-0.592,1.286-0.795,2.632c-0.205,1.347-0.328,2.969-0.367,4.867
			c-0.041,1.897-0.031,3.714,0.03,5.448c0.062,1.735,0.153,3.807,0.275,6.214C361.226,102.321,361.777,100.525,362.186,99.015z"/>
		<path fill="#FFCB05" d="M398.979,101.77c-0.122,0.531-0.469,0.97-1.041,1.316c-0.571,0.347-1.225,0.704-1.959,1.071
			s-1.49,0.776-2.265,1.225c-0.776,0.449-1.429,1.041-1.959,1.775c-0.817,1.184-1.388,2.593-1.714,4.224
			c-0.328,1.633-0.48,3.194-0.459,4.684c0.02,1.49,0.203,2.776,0.551,3.857c0.346,1.082,0.785,1.622,1.316,1.622
			c0.652,0,1.336-0.306,2.051-0.919c0.713-0.611,1.355-1.315,1.928-2.111c0.571-0.796,1.041-1.611,1.408-2.449
			c0.367-0.836,0.551-1.479,0.551-1.928s-0.021-1.072-0.061-1.867c-0.041-0.797-0.031-1.582,0.03-2.357s0.184-1.448,0.367-2.021
			c0.184-0.571,0.499-0.877,0.949-0.918c0.448-0.041,0.989-0.143,1.622-0.306c0.633-0.163,1.234-0.184,1.807-0.062
			c0.57,0.123,1.029,0.521,1.377,1.194c0.346,0.673,0.479,1.827,0.398,3.459c-0.123,3.306,0.039,5.807,0.489,7.499
			c0.448,1.695,1.325,2.685,2.632,2.97c0.898,0.163,1.704-0.051,2.419-0.643c0.714-0.591,1.356-1.255,1.929-1.989
			c0.57-0.735,1.061-1.398,1.469-1.99s0.734-0.826,0.98-0.704c0.284,0.122,0.387,0.634,0.305,1.53
			c-0.082,0.898-0.388,1.908-0.918,3.031c-0.531,1.123-1.316,2.244-2.356,3.367c-1.041,1.123-2.378,1.989-4.011,2.602
			c-0.856,0.326-1.652,0.489-2.387,0.489s-1.398-0.101-1.99-0.306c-0.592-0.204-1.112-0.49-1.561-0.857
			c-0.449-0.367-0.857-0.775-1.225-1.225c-0.816-1.02-1.469-2.285-1.959-3.795c-0.408,0.979-0.98,1.836-1.715,2.57
			c-0.611,0.654-1.408,1.256-2.387,1.807c-0.98,0.551-2.184,0.867-3.612,0.949c-1.429,0.041-2.776-0.408-4.04-1.348
			c-1.266-0.938-2.276-2.203-3.031-3.795c-0.756-1.592-1.163-3.438-1.225-5.541c-0.061-2.102,0.398-4.316,1.378-6.643
			c0.652-1.509,1.509-2.795,2.571-3.856c1.061-1.061,2.193-1.929,3.397-2.602s2.407-1.163,3.612-1.469
			c1.203-0.306,2.285-0.479,3.244-0.521c0.959-0.04,1.734,0.031,2.326,0.214S399.061,101.443,398.979,101.77z"/>
	</g>
	<g>
		<path fill="#FFFFFF" d="M167.952,146.064c0-1.24,0.186-2.281,0.557-3.124c0.277-0.62,0.655-1.177,1.134-1.67
			s1.004-0.858,1.575-1.097c0.759-0.321,1.634-0.482,2.625-0.482c1.794,0,3.23,0.557,4.308,1.67
			c1.077,1.113,1.616,2.662,1.616,4.645c0,1.967-0.535,3.506-1.604,4.616s-2.498,1.665-4.287,1.665c-1.812,0-3.251-0.552-4.32-1.656
			C168.487,149.525,167.952,148.004,167.952,146.064z M170.486,145.981c0,1.38,0.319,2.425,0.956,3.137
			c0.637,0.712,1.446,1.067,2.426,1.067s1.785-0.354,2.414-1.059c0.628-0.707,0.943-1.766,0.943-3.179
			c0-1.396-0.306-2.437-0.918-3.124c-0.612-0.687-1.425-1.03-2.438-1.03s-1.831,0.348-2.451,1.043
			C170.796,143.531,170.486,144.58,170.486,145.981z"/>
		<path fill="#FFFFFF" d="M193.674,147.602l2.385,0.756c-0.366,1.33-0.974,2.317-1.824,2.963c-0.85,0.645-1.929,0.967-3.236,0.967
			c-1.617,0-2.947-0.552-3.988-1.656c-1.042-1.105-1.562-2.616-1.562-4.533c0-2.027,0.523-3.602,1.57-4.723
			c1.047-1.122,2.423-1.684,4.129-1.684c1.49,0,2.7,0.441,3.631,1.322c0.554,0.52,0.969,1.268,1.246,2.242l-2.435,0.582
			c-0.144-0.631-0.444-1.13-0.901-1.496c-0.457-0.365-1.012-0.548-1.666-0.548c-0.903,0-1.635,0.324-2.197,0.972
			c-0.563,0.648-0.844,1.698-0.844,3.149c0,1.54,0.277,2.637,0.831,3.29c0.554,0.654,1.274,0.98,2.16,0.98
			c0.654,0,1.216-0.207,1.687-0.623C193.132,149.146,193.47,148.494,193.674,147.602z"/>
		<path fill="#FFFFFF" d="M202.364,152.08v-12.181h9.032v2.061h-6.572v2.7h6.115v2.053h-6.115v3.314h6.805v2.053H202.364z"/>
		<path fill="#FFFFFF" d="M228.893,152.08h-2.676l-1.064-2.767h-4.868l-1.005,2.767h-2.609l4.744-12.181h2.601L228.893,152.08z
			 M224.363,147.262l-1.678-4.521l-1.646,4.521H224.363z"/>
		<path fill="#FFFFFF" d="M234.416,152.08v-12.181h2.393l4.985,8.134v-8.134h2.284v12.181h-2.467l-4.91-7.943v7.943H234.416z"/>
		<path fill="#FFFFFF" d="M266.713,152.08h-2.676l-1.063-2.767h-4.869l-1.006,2.767h-2.608l4.744-12.181h2.601L266.713,152.08z
			 M262.186,147.262l-1.679-4.521l-1.646,4.521H262.186z"/>
		<path fill="#FFFFFF" d="M272.203,139.899h4.496c1.014,0,1.786,0.077,2.318,0.233c0.714,0.21,1.326,0.584,1.836,1.121
			s0.896,1.195,1.162,1.973c0.267,0.779,0.399,1.738,0.399,2.879c0,1.004-0.124,1.867-0.374,2.593
			c-0.305,0.887-0.739,1.604-1.305,2.152c-0.426,0.415-1.002,0.739-1.728,0.972c-0.543,0.172-1.269,0.258-2.177,0.258h-4.629
			V139.899z M274.663,141.96v8.067h1.837c0.686,0,1.182-0.038,1.486-0.115c0.398-0.1,0.73-0.27,0.993-0.508s0.478-0.629,0.644-1.176
			c0.166-0.545,0.25-1.289,0.25-2.23s-0.084-1.664-0.25-2.168s-0.398-0.898-0.697-1.18c-0.299-0.283-0.679-0.475-1.139-0.574
			c-0.344-0.077-1.017-0.116-2.02-0.116H274.663z"/>
		<path fill="#FFFFFF" d="M291.803,152.08l-4.354-12.181h2.666l3.083,9.015l2.983-9.015h2.608l-4.362,12.181H291.803z"/>
		<path fill="#FFFFFF" d="M304.238,152.08v-12.181h9.032v2.061h-6.572v2.7h6.115v2.053h-6.115v3.314h6.805v2.053H304.238z"/>
		<path fill="#FFFFFF" d="M319.808,152.08v-12.181h2.394l4.984,8.134v-8.134h2.285v12.181h-2.468l-4.91-7.943v7.943H319.808z"/>
		<path fill="#FFFFFF" d="M339.008,152.08v-10.12h-3.614v-2.061h9.679v2.061h-3.605v10.12H339.008z"/>
		<path fill="#FFFFFF" d="M350.838,139.899h2.459v6.597c0,1.047,0.03,1.727,0.092,2.036c0.105,0.499,0.355,0.899,0.752,1.2
			c0.396,0.303,0.938,0.453,1.624,0.453c0.698,0,1.224-0.143,1.579-0.428c0.354-0.285,0.567-0.636,0.639-1.051
			c0.072-0.416,0.108-1.105,0.108-2.069v-6.738h2.46v6.397c0,1.463-0.066,2.496-0.199,3.1c-0.134,0.604-0.379,1.113-0.736,1.529
			c-0.357,0.415-0.834,0.746-1.433,0.992s-1.38,0.369-2.343,0.369c-1.164,0-2.046-0.134-2.646-0.402
			c-0.602-0.269-1.076-0.617-1.426-1.047c-0.349-0.43-0.578-0.879-0.689-1.35c-0.16-0.698-0.24-1.729-0.24-3.092V139.899z"/>
		<path fill="#FFFFFF" d="M367.346,152.08v-12.181h5.176c1.302,0,2.248,0.11,2.838,0.329s1.063,0.607,1.416,1.166
			c0.354,0.561,0.532,1.2,0.532,1.92c0,0.914-0.269,1.669-0.806,2.264c-0.537,0.596-1.341,0.971-2.41,1.127
			c0.531,0.31,0.971,0.65,1.316,1.021c0.347,0.371,0.813,1.03,1.4,1.977l1.488,2.377h-2.941l-1.779-2.65
			c-0.631-0.947-1.063-1.544-1.295-1.791c-0.233-0.246-0.479-0.415-0.74-0.506c-0.26-0.092-0.673-0.138-1.238-0.138h-0.498v5.085
			H367.346z M369.805,145.051h1.82c1.18,0,1.916-0.05,2.209-0.149c0.294-0.1,0.523-0.271,0.689-0.515
			c0.167-0.244,0.25-0.549,0.25-0.914c0-0.41-0.109-0.741-0.328-0.993s-0.527-0.411-0.927-0.478
			c-0.199-0.027-0.798-0.042-1.794-0.042h-1.92V145.051z"/>
		<path fill="#FFFFFF" d="M383.82,152.08v-12.181h9.031v2.061h-6.572v2.7h6.115v2.053h-6.115v3.314h6.805v2.053H383.82z"/>
		<path fill="#FFFFFF" d="M398.74,148.117l2.394-0.232c0.144,0.803,0.437,1.393,0.876,1.77c0.441,0.377,1.035,0.564,1.783,0.564
			c0.791,0,1.389-0.168,1.79-0.502c0.401-0.336,0.603-0.728,0.603-1.176c0-0.289-0.085-0.533-0.254-0.736
			c-0.169-0.201-0.464-0.377-0.885-0.527c-0.288-0.1-0.944-0.276-1.969-0.531c-1.318-0.327-2.244-0.729-2.775-1.205
			c-0.748-0.67-1.121-1.486-1.121-2.451c0-0.62,0.176-1.2,0.527-1.74s0.858-0.951,1.52-1.234c0.662-0.282,1.461-0.424,2.398-0.424
			c1.528,0,2.679,0.336,3.451,1.006c0.773,0.67,1.179,1.564,1.218,2.684l-2.46,0.107c-0.105-0.625-0.33-1.075-0.677-1.35
			c-0.347-0.273-0.866-0.411-1.558-0.411c-0.715,0-1.274,0.147-1.679,0.44c-0.261,0.188-0.39,0.44-0.39,0.756
			c0,0.288,0.121,0.535,0.365,0.74c0.31,0.26,1.063,0.531,2.26,0.813c1.196,0.282,2.081,0.575,2.654,0.877s1.021,0.714,1.346,1.237
			s0.486,1.171,0.486,1.94c0,0.698-0.193,1.352-0.582,1.961c-0.387,0.609-0.936,1.062-1.645,1.358s-1.592,0.444-2.65,0.444
			c-1.54,0-2.723-0.355-3.548-1.067S398.901,149.479,398.74,148.117z"/>
	</g>
	<path fill-rule="evenodd" clip-rule="evenodd" fill="#FFFCD5" d="M101.813,50.171c11.541,0,20.899,9.36,20.899,20.9
		c0,11.541-9.358,20.9-20.899,20.9s-20.9-9.359-20.9-20.9C80.912,59.531,90.271,50.171,101.813,50.171"/>
	<path opacity="0.5" fill-rule="evenodd" clip-rule="evenodd" fill="#00AEEF" d="M86.407,166.628
		c-58.109-4.646-73.968-67.805-2.41-67.805c28.297,0,44.302-15.778,53.212-31.391C176.554,111.155,140.952,170.993,86.407,166.628"
		/>
	
		<linearGradient id="SVGID_1_" gradientUnits="userSpaceOnUse" x1="125.5308" y1="201.0977" x2="126.6609" y2="201.0977" gradientTransform="matrix(-14.5705 -5.7327 7.368 -18.727 408.4601 4620.5132)">
		<stop  offset="0" style="stop-color:#FFFFFF"/>
		<stop  offset="1" style="stop-color:#FFFFFF"/>
	</linearGradient>
	<path opacity="0.5" fill="url(#SVGID_1_)" d="M45.06,113.962c-9.744,7.786-8.601,20.207,0.546,29.523
		C38.462,131.505,41.928,120.198,45.06,113.962z"/>
	<path fill-rule="evenodd" clip-rule="evenodd" fill="#FFCB05" d="M65.821,73.864c0,0-4.679,4.291-9.513,11.605
		c-4.779,7.233-9.776,17.513-9.446,29.374c0.328,11.858,2.688,20.5,4.706,26.097c2.043,5.667,1.109,7.955,3.725,8.309
		c2.615,0.354,13.01,1.749,15.592,2.095c2.581,0.347-6.093-7.14-10.985-17.688c-4.811-10.371-7.897-24.184-2.332-37.144
		c5.568-12.957,10.401-19.975,13.407-23.761c3.016-3.797,4.405-4.354,4.405-4.354C72.2,70.228,69.012,72.045,65.821,73.864"/>
	<path fill-rule="evenodd" clip-rule="evenodd" fill="#824E40" d="M55.907,122.479c-0.056-0.264-0.134-0.529-0.18-0.793
		c-2.787,0-5.363-0.64-5.363-0.64c0.2-0.165-6.569-2.094,0.134,0.959C52.526,122.445,54.345,122.557,55.907,122.479 M58.216,129.676
		c-0.09-0.233-0.19-0.474-0.279-0.717c-3.211,0.298-6.726-0.573-6.726-0.573c0.189-0.165-6.58-2.084,0.168,0.959
		C54.11,129.93,56.376,129.939,58.216,129.676z M60.87,135.627c-0.123-0.231-0.234-0.475-0.369-0.716
		c-3.066,0.221-6.368-0.597-6.368-0.597c0.179-0.176-6.558-2.092,0.212,0.948C56.944,135.837,59.107,135.86,60.87,135.627z
		 M63.804,140.994c-0.135-0.21-0.269-0.431-0.391-0.649c-3.268,0.604-7.451-0.441-7.451-0.441c0.18-0.178-6.535-2.094,0.234,0.949
		C59.397,141.557,61.906,141.424,63.804,140.994z M67.918,147.364c-0.167-0.231-0.333-0.475-0.49-0.717
		c-3.691,1.08-9.179-0.319-9.179-0.319c0.201-0.198-7.45-2.403,0.334,1.102C62.688,148.345,65.755,148.026,67.918,147.364z"/>
	<path fill-rule="evenodd" clip-rule="evenodd" fill="#824E40" d="M65.821,73.864c0,0-4.679,4.291-9.513,11.605
		c-4.779,7.233-9.759,17.513-9.436,29.374c0.322,11.858,2.678,20.5,4.695,26.097c2.043,5.667,2.593,8.155,3.725,8.309
		c1.132,0.155,4.518,0.607,6.781,0.905c-2.354-4.487-6.234-12.234-8.899-20.621c-2.633-8.28-4.266-16.306-2.989-23.894
		c1.277-7.589,5.93-16.48,10.037-22.263c4.146-5.833,7.851-9.5,7.851-9.5c0.682-0.529,0.782-1.069,0.48-1.576
		C67.64,72.828,66.736,73.346,65.821,73.864"/>
	<path fill-rule="evenodd" clip-rule="evenodd" fill="#FFCB05" d="M76.104,61.782c7.655-5.86,13.931-4.897,22.304-2.59
		c0,0-3.024,0.545-5.714,1.431c-0.088,0.01,1.158-0.267-0.275,0.059c-1.435,0.326-5.083,2.687-5.429,3.018l0.527,0.035
		c7.228,1.307,15.761,4.433,18.58,11.871c-0.623-0.302-1.266-0.586-1.926-0.847c-5.453-2.156-8.828-2.151-12.129-2.348
		c1.214,0.819,4.652,3.419,7.41,7.779c2.77,4.381,4.896,10.542,3.2,18.545c-0.028-0.106-0.068-0.272-0.128-0.497
		c-1.694-2.609-12.719-16.505-17.21-19.157c-4.492-2.653-2.62-1.558-3.634-2.142c2.196,3.748,5.565,10.843,5.121,19.459
		c0.069,1.237,0.114,1.407,0.03,3.875c-0.021,0.596-0.052,1.275-0.088,1.994c-3.877-5.713-15.268-23.83-22.866-23.907
		c0,0-3.28-0.409-8.097,0.487s-8.354,0.481-17.26,8.324c-8.905,7.84-13.782,15.012-13.782,15.012s0.581-5.336,3.39-11.372
		c-0.021,0.01-0.029,0.021-0.039,0.03c0,0,0.323-0.691,0.975-1.84c0.787-1.422,1.725-2.853,2.788-4.245
		c4.274-5.666,12.127-13.6,22.411-16.082c-5.172-2.112-11.378-2.462-17.723-1.743c-6.363,0.722-12.935,2.551-18.668,4.809
		c0.011-0.019,0.029-0.039,0.06-0.058c-0.03,0.01-0.049,0.019-0.049,0.019s8.221-8.848,23.269-11.945
		c15.048-3.094,19.78-1.567,22.195-0.923c-4-6.446-14.67-9.638-14.67-9.638s14.293-0.77,20.412,3.807
		c6.118,4.576,6.541,7.028,6.827,8.585C76.046,61.723,76.104,61.782,76.104,61.782"/>
	<path fill-rule="evenodd" clip-rule="evenodd" fill="#E6E7E8" d="M56.737,74.574c-4.877,1.051-10.763,2.852-17.86,9.833
		c-7.099,6.979-11.409,12.714-13.005,15.292c1.489-3.758,1.675-5.884,8.916-14.329S53.358,74.087,56.737,74.574"/>
	<path fill-rule="evenodd" clip-rule="evenodd" fill="#E6E7E8" d="M23.932,68.864c1.249-1.407,12.296-7.479,19.507-8.443
		c6.209-0.828,13.278-0.605,18.816,3.199c0,0-2.853-0.617-6.795-1.116C43.807,61.026,33.913,62.667,23.932,68.864"/>
	<path opacity="0.29" fill-rule="evenodd" clip-rule="evenodd" fill="#FFFFFF" d="M136.418,109.187
		c2.104,0.545,3.366,2.695,2.819,4.8c-0.546,2.103-2.694,3.365-4.799,2.818c-2.104-0.545-3.365-2.694-2.818-4.798
		C132.166,109.902,134.314,108.64,136.418,109.187"/>
	<path opacity="0.29" fill-rule="evenodd" clip-rule="evenodd" fill="#FFFFFF" d="M137.681,112.043
		c0.127,0.034,0.256,0.067,0.384,0.101c0.128,0.032,0.256,0.067,0.384,0.1c0.162,0.532,0.238,1.038,0.118,1.498
		c-0.119,0.461-0.433,0.865-0.832,1.252c-0.128-0.036-0.257-0.067-0.384-0.101c-0.128-0.035-0.257-0.068-0.384-0.101
		c0.399-0.384,0.713-0.79,0.832-1.252C137.918,113.081,137.842,112.574,137.681,112.043"/>
	<path opacity="0.29" fill-rule="evenodd" clip-rule="evenodd" fill="#FFFFFF" d="M131.259,121.47
		c0.926,0.241,1.481,1.187,1.24,2.112c-0.24,0.926-1.185,1.482-2.112,1.242c-0.926-0.24-1.481-1.187-1.24-2.112
		C129.386,121.786,130.333,121.229,131.259,121.47"/>
	<path opacity="0.29" fill-rule="evenodd" clip-rule="evenodd" fill="#FFFFFF" d="M131.708,122.747
		c0.054,0.013,0.105,0.025,0.158,0.04c0.053,0.013,0.105,0.027,0.157,0.04c0.067,0.218,0.099,0.427,0.05,0.617
		c-0.05,0.188-0.179,0.356-0.343,0.515c-0.053-0.016-0.105-0.027-0.158-0.043c-0.053-0.013-0.104-0.027-0.158-0.04
		c0.166-0.158,0.294-0.324,0.343-0.515C131.807,123.173,131.774,122.965,131.708,122.747"/>
	<path opacity="0.29" fill-rule="evenodd" clip-rule="evenodd" fill="#FFFFFF" d="M124.675,128.302
		c0.521,0.135,0.833,0.667,0.698,1.187c-0.135,0.521-0.667,0.832-1.188,0.697c-0.521-0.136-0.831-0.668-0.697-1.188
		C123.624,128.479,124.154,128.165,124.675,128.302"/>
	<path opacity="0.29" fill-rule="evenodd" clip-rule="evenodd" fill="#FFFFFF" d="M125.021,129.011
		c0.033,0.011,0.067,0.018,0.102,0.028c0.033,0.008,0.067,0.018,0.102,0.027c0.042,0.14,0.063,0.273,0.031,0.396
		c-0.031,0.12-0.114,0.228-0.221,0.331c-0.034-0.01-0.068-0.018-0.101-0.028c-0.035-0.007-0.067-0.018-0.103-0.024
		c0.104-0.103,0.189-0.211,0.221-0.331C125.084,129.287,125.063,129.151,125.021,129.011"/>
	<path fill-rule="evenodd" clip-rule="evenodd" fill="#FFFFFF" d="M143.282,80.016c4.668,8.045,7.342,17.391,7.342,27.359
		c0,30.157-24.451,54.61-54.607,54.61c-5.85,0-11.479-0.926-16.762-2.63c-0.545-0.203-0.599-0.387-0.432-0.527
		c1.741-0.692,5.26-1.123,2.603-1.123c-1.419,0-2.279-0.096-2.801-0.198c-0.344-0.134-0.551-0.438-0.367-1.068
		c0.949-3.365,3.37-8.302,9.569-11.595c10.184-5.412,20.685-6.046,23.867-8.274c3.182-2.228,3.819-12.011,6.047-11.374
		c2.228,0.635,2.863,7.554,2.863,7.554s3.819,2.229,13.366-7.317c9.547-9.549,11.139-17.079,9.547-22.808
		c-3.201-11.526-22.275-10.733-22.275-26.202c0,0,1.59-2.865,7.954,2.864c6.365,5.729,13.685,15.276,14.64,12.412
		c0.954-2.864-6.364-12.412-3.501-13.048C141.147,78.47,142.19,78.98,143.282,80.016"/>
	<path fill-rule="evenodd" clip-rule="evenodd" fill="#FFFFFF" d="M97.1,130.824c0,0-6.775-1.74-13.659,2.211
		c-6.885,3.948-11.532,4.546-14.191,3.753s-3.428-1.49-3.428-1.49s1.798,4.051,8.075,3.733
		C81.358,138.649,87.182,130.213,97.1,130.824"/>
	<path fill-rule="evenodd" clip-rule="evenodd" fill="#FFFFFF" d="M103.324,127.88c0,0,4.089-5.045,11.987-5.928
		c7.898-0.884,8.641-3.598,8.641-4.621c0-1.024-0.649-1.561-0.649-1.561s2.323,0.489,1.672,3.761
		c-0.649,3.271-4.925,3.675-10.036,3.732C109.829,123.321,103.324,127.88,103.324,127.88"/>
	<path fill-rule="evenodd" clip-rule="evenodd" fill="#FFFFFF" d="M100.661,108.129l4.702,2.787l-3.126,0.958l-4.216-3.007
		L100.661,108.129z M97.103,109.125l4.129,3.053l-7.223,2.213l-1.207-4.063L97.103,109.125z M92.111,110.52l1.165,4.098
		l-6.281,1.926c-0.287-1.209-1.56-3.478-0.142-4.548L92.111,110.52z M67.209,133.897l-0.51-1.425l2.726-0.865l-1.405-4.824
		l16.6-5.747c1.365-0.763,1.469-1.837,1.418-2.581l-1.46-5.219l-2.179,0.063l-0.255-0.639l2.957-2.313l18.448-4.693
		c0.371-0.094-1.806,1.681-1.806,1.681l5.328,2.985l17.611-6.438c-0.713,2.124-3.195,10.066-4.527,14.413
		c-4.134,0.974-8.568,1.317-12.403,3.668c-5.79,3.547-11.615,5.095-19.007,5.59C81.334,128.048,74.386,133.755,67.209,133.897z"/>
	<polygon fill-rule="evenodd" clip-rule="evenodd" fill="#FFFFFF" points="68.737,123.03 69.399,122.817 71.266,127.456 
		70.578,127.724 	"/>
	<polygon fill-rule="evenodd" clip-rule="evenodd" fill="#FFFFFF" points="75.425,120.467 76.132,120.208 77.999,124.847 
		77.271,125.113 	"/>
	<polygon fill-rule="evenodd" clip-rule="evenodd" fill="#FFFFFF" points="86.422,116.648 86.751,117.416 68.231,123.777 
		67.888,122.985 	"/>
	
		<rect x="82.889" y="118.333" transform="matrix(-0.9282 0.372 -0.372 -0.9282 205.3292 202.0548)" fill-rule="evenodd" clip-rule="evenodd" fill="#FFFFFF" width="0.572" height="5"/>
</g>
</svg>
