<?xml version="1.0" encoding="utf-8"?>
<!-- Generator: Adobe Illustrator 14.0.0, SVG Export Plug-In . SVG Version: 6.00 Build 43363)  -->
<!DOCTYPE svg PUBLIC "-//W3C//DTD SVG 1.1//EN" "http://www.w3.org/Graphics/SVG/1.1/DTD/svg11.dtd">
<svg version="1.1" id="Layer_1" xmlns="http://www.w3.org/2000/svg" xmlns:xlink="http://www.w3.org/1999/xlink" x="0px" y="0px"
	 width="360px" height="360px" viewBox="0 0 360 360" enable-background="new 0 0 360 360" xml:space="preserve">
<rect fill-rule="evenodd" clip-rule="evenodd" fill="#29315F" width="360" height="360"/>
<g>
	<g>
		<g>
			<path fill="#FFFCD5" d="M59.633,248.354c0.169,0.766,0.319,1.543,0.446,2.33c0.128,0.788,0.085,1.585-0.127,2.394
				c-0.342,0.51-0.83,0.83-1.468,0.957s-1.309,0.127-2.011,0c-0.703-0.127-1.384-0.329-2.043-0.606
				c-0.66-0.276-1.181-0.542-1.563-0.798c-0.724-2.085-1.235-4.254-1.532-6.511c-0.298-2.255-0.469-4.511-0.51-6.767
				c-0.043-2.255,0-4.488,0.127-6.702c0.127-2.212,0.297-4.298,0.511-6.256c0.084-1.446,0.351-2.978,0.797-4.596
				c0.447-1.616,1.032-3.18,1.755-4.691c0.724-1.511,1.596-2.904,2.617-4.181c1.021-1.277,2.18-2.266,3.479-2.969
				c1.298-0.702,2.734-1.074,4.309-1.117c1.574-0.041,3.255,0.405,5.043,1.341c1.787,0.937,2.957,2.129,3.511,3.575
				c0.553,1.446,0.67,3.011,0.351,4.691c-0.319,1.681-1.011,3.383-2.075,5.106c-1.064,1.724-2.288,3.309-3.67,4.755
				c-1.383,1.447-2.852,2.66-4.404,3.639c-1.554,0.979-3.011,1.555-4.373,1.724c-0.086,2.426-0.086,4.873,0,7.341
				C58.888,243.482,59.164,245.929,59.633,248.354z M68.633,213.119c-1.659-0.042-3.075,0.383-4.245,1.276
				c-1.171,0.894-2.138,1.979-2.904,3.256s-1.319,2.628-1.66,4.053c-0.341,1.427-0.49,2.607-0.447,3.543
				c0.084-0.042,0.436-0.233,1.053-0.574c0.616-0.34,1.351-0.776,2.202-1.309c0.851-0.532,1.733-1.17,2.649-1.915
				c0.914-0.744,1.701-1.554,2.361-2.426c0.659-0.871,1.117-1.809,1.373-2.809C69.271,215.216,69.144,214.183,68.633,213.119z"/>
			<path fill="#FFFCD5" d="M82.101,229.205c-0.042,0.426-0.085,1.148-0.127,2.17c-0.043,1.021-0.064,2.16-0.064,3.415
				c0,1.256,0.042,2.564,0.128,3.926c0.084,1.362,0.233,2.606,0.447,3.733c0.212,1.128,0.532,2.055,0.958,2.777
				c0.425,0.724,0.979,1.085,1.66,1.085c0.979,0,1.819-0.361,2.521-1.085c0.702-0.723,1.308-1.638,1.819-2.745
				c0.511-1.106,0.915-2.351,1.213-3.733c0.297-1.383,0.542-2.734,0.734-4.054c0.192-1.318,0.319-2.554,0.383-3.702
				c0.063-1.149,0.117-2.043,0.159-2.682c0.042-0.766,0.266-1.318,0.671-1.659c0.403-0.341,0.903-0.521,1.5-0.543
				c0.596-0.021,1.234,0.096,1.915,0.352c0.68,0.256,1.319,0.574,1.915,0.957c0.595,0.384,1.085,0.82,1.468,1.309
				c0.383,0.49,0.595,0.969,0.638,1.437c0.042,0.638,0.021,1.564-0.063,2.776c-0.086,1.213-0.16,2.576-0.224,4.085
				c-0.063,1.512-0.096,3.064-0.096,4.66s0.117,3.064,0.352,4.404c0.233,1.341,0.595,2.489,1.085,3.447
				c0.489,0.957,1.181,1.543,2.074,1.756c0.809,0.213,1.362,0.488,1.66,0.829c0.297,0.341,0.329,0.671,0.096,0.989
				c-0.234,0.319-0.702,0.564-1.404,0.734c-0.703,0.169-1.65,0.148-2.841-0.063c-1.958-0.341-3.469-1.021-4.532-2.043
				c-1.064-1.021-1.851-2.085-2.361-3.191c-0.597-1.277-0.958-2.681-1.085-4.213c-0.553,1.702-1.276,3.17-2.17,4.404
				c-0.766,1.107-1.755,2.054-2.968,2.841c-1.213,0.787-2.692,1.053-4.437,0.797c-1.746-0.255-3.182-0.818-4.309-1.69
				c-1.128-0.872-2.042-1.926-2.745-3.16c-0.702-1.233-1.224-2.585-1.563-4.054c-0.341-1.468-0.575-2.945-0.702-4.436
				c-0.127-1.191-0.191-2.383-0.191-3.575c0-1.19,0.042-2.298,0.128-3.319c0.084-1.021,0.212-1.893,0.383-2.617
				c0.169-0.723,0.361-1.191,0.574-1.404c0.255-0.212,0.787-0.446,1.596-0.702c0.808-0.255,1.648-0.394,2.521-0.414
				c0.872-0.021,1.649,0.117,2.33,0.414C81.824,227.716,82.143,228.311,82.101,229.205z"/>
			<path fill="#FFFCD5" d="M105.016,229.013c-0.469-0.255-0.894-0.403-1.276-0.446c-0.383-0.042-0.734-0.063-1.053-0.063
				s-0.595-0.032-0.83-0.097c-0.234-0.063-0.437-0.265-0.607-0.605c-0.127-0.298,0.075-0.703,0.607-1.213
				c0.532-0.512,1.245-0.936,2.138-1.277c0.894-0.34,1.893-0.479,3-0.415c1.106,0.064,2.17,0.501,3.192,1.309
				c0.894,0.767,1.627,1.5,2.202,2.202c0.574,0.703,1.031,1.331,1.372,1.884c0.383,0.638,0.659,1.255,0.83,1.851
				c1.191-1.148,2.425-2.106,3.702-2.872c1.106-0.681,2.34-1.233,3.703-1.659c1.361-0.425,2.723-0.447,4.085-0.064
				c0.34,0.128,0.5,0.394,0.479,0.798c-0.022,0.405-0.191,0.841-0.51,1.309c-0.32,0.469-0.756,0.916-1.309,1.341
				c-0.554,0.426-1.213,0.725-1.979,0.894c-1.49,0.341-2.671,0.979-3.543,1.915c-0.873,0.937-1.543,2.032-2.01,3.287
				c-0.469,1.256-0.767,2.597-0.894,4.021c-0.127,1.427-0.191,2.799-0.191,4.117c0.042,2.767-0.341,4.819-1.149,6.159
				c-0.809,1.341-1.894,2.054-3.255,2.139c-1.575,0.086-2.745-0.638-3.511-2.17s-1.149-4.127-1.149-7.788
				c0.042-2.298,0.064-4.297,0.064-6c0-1.701-0.064-3.138-0.192-4.309c-0.128-1.17-0.341-2.096-0.638-2.777
				C105.994,229.801,105.568,229.312,105.016,229.013z"/>
			<path fill="#FFFCD5" d="M128.825,229.588c0.596-1.149,1.382-2.148,2.362-3c0.979-0.852,2.053-1.542,3.224-2.075
				c1.17-0.531,2.404-0.926,3.702-1.181c1.298-0.255,2.563-0.383,3.798-0.383c1.277,0.086,2.372,0.5,3.288,1.244
				c0.915,0.746,1.564,1.703,1.947,2.873c0.383,1.171,0.457,2.479,0.224,3.926c-0.234,1.447-0.862,2.915-1.883,4.404
				c-1.107,1.617-2.288,2.83-3.542,3.639c-1.255,0.809-2.416,1.383-3.479,1.724c-1.234,0.425-2.447,0.616-3.638,0.574
				c-0.043,1.617,0.127,3,0.511,4.148c0.169,0.511,0.372,0.99,0.606,1.437c0.233,0.447,0.542,0.841,0.925,1.181
				c0.383,0.341,0.851,0.585,1.404,0.734c0.552,0.149,1.191,0.159,1.915,0.032c1.532-0.256,2.777-0.819,3.734-1.692
				c0.958-0.872,1.755-1.755,2.393-2.649c0.639-0.893,1.16-1.669,1.564-2.329c0.404-0.659,0.798-0.903,1.181-0.734
				c0.468,0.214,0.712,0.745,0.734,1.596c0.021,0.853-0.182,1.852-0.606,3.001c-0.426,1.148-1.054,2.33-1.883,3.542
				c-0.83,1.213-1.883,2.245-3.16,3.096c-1.277,0.853-2.745,1.437-4.404,1.756c-1.66,0.318-3.511,0.159-5.553-0.479
				c-1.66-0.511-3.043-1.318-4.149-2.427c-1.107-1.105-1.979-2.382-2.617-3.829c-0.639-1.446-1.064-3-1.277-4.66
				c-0.213-1.659-0.245-3.308-0.095-4.947c0.148-1.637,0.468-3.201,0.958-4.691C127.494,231.929,128.101,230.652,128.825,229.588z
				 M134.761,236.545c0.552-0.084,1.17-0.255,1.851-0.511c0.596-0.212,1.245-0.531,1.947-0.957c0.703-0.425,1.457-1.021,2.266-1.787
				c0.766-0.724,1.287-1.426,1.564-2.106c0.276-0.681,0.436-1.255,0.479-1.724c0.042-0.553-0.042-1.063-0.255-1.532
				c-0.597-0.17-1.235-0.17-1.915,0c-0.596,0.17-1.255,0.511-1.979,1.021c-0.725,0.511-1.469,1.319-2.234,2.426
				c-0.597,0.852-1.021,1.606-1.276,2.266c-0.256,0.66-0.426,1.203-0.511,1.628C134.612,235.779,134.634,236.205,134.761,236.545z"
				/>
		</g>
		<g>
			<path fill="#FFCB05" d="M193.247,262.717c-0.511,0.084-0.916-0.012-1.212-0.287c-0.299-0.278-0.533-0.64-0.703-1.086
				c-0.171-0.447-0.277-0.936-0.319-1.469c-0.043-0.531-0.064-1.031-0.064-1.499c0-0.426-0.054-1.288-0.159-2.586
				c-0.107-1.298-0.288-2.818-0.543-4.563c-0.255-1.744-0.617-3.617-1.085-5.617c-0.469-1.999-1.084-3.894-1.851-5.681
				c-0.17-0.341-1-0.404-2.49-0.191c-1.49,0.213-3.383,0.319-5.681,0.319c-0.724-0.043-1.436-0.032-2.138,0.031
				s-1.331,0.139-1.883,0.224c-0.553,0.086-1.011,0.17-1.372,0.255c-0.362,0.086-0.542,0.149-0.542,0.192
				c-0.043,0.553-0.096,1.266-0.16,2.138c-0.064,0.873-0.171,1.799-0.319,2.776c-0.149,0.979-0.362,1.958-0.639,2.937
				c-0.277,0.979-0.649,1.852-1.117,2.617c-0.469,0.766-1.043,1.383-1.723,1.852c-0.682,0.469-1.511,0.66-2.489,0.574
				c-0.639-0.042-1.097-0.681-1.373-1.915c-0.278-1.233-0.469-2.638-0.575-4.213c-0.106-1.574-0.139-3.073-0.096-4.5
				c0.042-1.425,0.063-2.352,0.063-2.777c-2.34-0.297-3.925-0.702-4.755-1.212c-0.83-0.512-1.117-1.031-0.861-1.564
				c0.255-0.531,0.958-1.031,2.106-1.5c1.149-0.468,2.553-0.852,4.213-1.148c0.17-1.532,0.361-3.447,0.575-5.745
				c0.212-2.298,0.542-4.638,0.989-7.021c0.447-2.383,1.063-4.628,1.852-6.734c0.787-2.106,1.861-3.734,3.223-4.884
				c0.723-0.553,1.66-0.743,2.809-0.574c1.149,0.171,2.351,0.617,3.607,1.34c1.254,0.725,2.479,1.66,3.67,2.81
				s2.213,2.425,3.064,3.83c0.511,0.937,1.054,2.149,1.628,3.639c0.574,1.489,1.126,3.011,1.66,4.563
				c0.531,1.554,1.031,2.99,1.5,4.309c0.468,1.319,0.852,2.276,1.149,2.872c0.084,0.171,0.425,0.234,1.021,0.191
				c0.596-0.041,1.245-0.041,1.947,0c0.702,0.043,1.351,0.192,1.947,0.447c0.595,0.255,0.914,0.767,0.958,1.532
				c0.042,0.638-0.203,1.203-0.734,1.691c-0.532,0.489-1.117,0.894-1.755,1.213c-0.638,0.319-1.234,0.564-1.787,0.734
				c-0.553,0.17-0.83,0.277-0.83,0.318c0.511,2.681,1,5.373,1.468,8.075c0.468,2.703,0.808,5.149,1.021,7.34
				c0.212,2.192,0.234,4.011,0.064,5.458C194.353,261.673,193.927,262.503,193.247,262.717z M175.629,215.735
				c-0.426,0.299-0.766,0.853-1.021,1.66c-0.256,0.81-0.447,1.777-0.575,2.905c-0.128,1.127-0.224,2.361-0.287,3.701
				c-0.064,1.341-0.096,2.66-0.096,3.958c0,1.299,0,2.511,0,3.639s0,2.074,0,2.84c0.169,0.043,0.595,0.064,1.276,0.064
				c0.68,0,1.457-0.01,2.33-0.032c0.872-0.021,1.797-0.064,2.777-0.127c0.979-0.064,1.872-0.138,2.681-0.225
				c0.808-0.084,1.468-0.169,1.979-0.255c0.511-0.085,0.767-0.17,0.767-0.255c-0.086-0.596-0.319-1.489-0.703-2.682
				c-0.383-1.19-0.862-2.499-1.436-3.925c-0.575-1.426-1.213-2.873-1.915-4.341c-0.702-1.469-1.405-2.767-2.106-3.895
				c-0.702-1.127-1.384-1.988-2.043-2.584C176.597,215.588,176.054,215.438,175.629,215.735z"/>
			<path fill="#FFCB05" d="M219.227,215.354c-0.171,1.914-0.469,3.745-0.895,5.488c-0.425,1.746-0.925,3.405-1.499,4.979
				c-0.575,1.575-1.203,3.063-1.884,4.469c-0.681,1.404-1.362,2.681-2.042,3.829c-1.618,2.725-3.405,5.193-5.362,7.405
				c0,0.298,0.064,0.681,0.191,1.149c0.085,0.425,0.255,0.947,0.511,1.563c0.256,0.618,0.659,1.352,1.214,2.202
				c1.105,1.788,2.328,2.905,3.67,3.352c1.34,0.446,2.638,0.49,3.893,0.128c1.256-0.36,2.352-1,3.288-1.915
				c0.936-0.915,1.574-1.84,1.915-2.776c0.34-0.979,0.681-1.616,1.021-1.915c0.34-0.297,0.647-0.372,0.925-0.224
				c0.277,0.149,0.489,0.458,0.64,0.926c0.147,0.469,0.2,0.979,0.159,1.531c-0.725,1.915-1.64,3.598-2.745,5.043
				c-0.469,0.639-1.021,1.256-1.659,1.852c-0.639,0.596-1.341,1.128-2.107,1.596c-0.766,0.468-1.606,0.84-2.521,1.117
				c-0.916,0.276-1.905,0.393-2.969,0.351c-2.724-0.042-4.99-0.701-6.798-1.979c-1.81-1.276-3.267-2.914-4.373-4.915
				c-1.106-2-1.894-4.266-2.361-6.798c-0.469-2.532-0.734-5.096-0.798-7.692c-0.064-2.595,0.042-5.095,0.319-7.5
				c0.276-2.403,0.606-4.5,0.989-6.287c0.425-1.873,0.989-3.723,1.691-5.554c0.702-1.829,1.574-3.447,2.617-4.851
				c1.043-1.404,2.276-2.511,3.702-3.319s3.096-1.106,5.011-0.894c1.404,0.213,2.617,0.702,3.639,1.468
				c0.851,0.638,1.573,1.606,2.17,2.904C219.375,211.385,219.523,213.142,219.227,215.354z M206.906,235.906
				c1.106-1.828,2.128-3.723,3.064-5.68c0.809-1.66,1.596-3.479,2.361-5.459c0.766-1.978,1.318-3.926,1.66-5.84
				c0.17-0.936,0.329-1.894,0.479-2.872c0.148-0.979,0.213-1.884,0.191-2.714s-0.182-1.531-0.479-2.105
				c-0.299-0.574-0.787-0.904-1.468-0.99c-0.894-0.084-1.692,0.224-2.395,0.926c-0.701,0.702-1.298,1.682-1.787,2.937
				s-0.884,2.745-1.181,4.468c-0.298,1.725-0.51,3.555-0.638,5.489c-0.128,1.938-0.171,3.926-0.128,5.969
				C206.629,232.077,206.736,234.035,206.906,235.906z"/>
			<path fill="#FFCB05" d="M236.652,228.056c1.956,1.191,3.467,2.649,4.531,4.373c1.063,1.723,1.756,3.532,2.075,5.425
				c0.318,1.895,0.265,3.777-0.16,5.649c-0.426,1.873-1.139,3.565-2.139,5.074c-1,1.512-2.266,2.756-3.798,3.735
				c-1.531,0.979-3.277,1.489-5.234,1.531c-2.468,0.043-4.543-0.5-6.223-1.628c-1.683-1.127-2.969-2.563-3.862-4.308
				c-0.894-1.745-1.415-3.649-1.563-5.714c-0.149-2.063,0.074-3.999,0.67-5.809c0.596-1.808,1.573-3.351,2.936-4.628
				c1.361-1.277,3.064-1.979,5.107-2.106c1.872-0.128,3.233-0.329,4.085-0.606c0.851-0.276,1.468-0.531,1.852-0.766
				c0.382-0.234,0.647-0.394,0.797-0.479S236.184,227.801,236.652,228.056z M229.184,233.609c-0.256,0.255-0.47,0.872-0.639,1.851
				c-0.17,0.979-0.287,2.129-0.351,3.447c-0.064,1.319-0.054,2.702,0.031,4.148c0.085,1.448,0.244,2.767,0.479,3.958
				c0.233,1.191,0.564,2.17,0.99,2.936c0.425,0.767,0.936,1.107,1.531,1.021c0.596-0.084,1.17-0.479,1.724-1.181
				c0.553-0.701,1.053-1.574,1.501-2.617c0.446-1.042,0.807-2.19,1.085-3.446c0.275-1.255,0.446-2.479,0.51-3.67
				c0.064-1.191-0.011-2.276-0.223-3.256c-0.214-0.979-0.575-1.724-1.086-2.234c-1.191-1.234-2.202-1.903-3.031-2.01
				C230.875,232.45,230.034,232.801,229.184,233.609z"/>
			<path fill="#FFCB05" d="M247.248,246.887c-0.043-1.405-0.087-3.362-0.128-5.873c-0.043-2.51-0.054-5.255-0.032-8.234
				c0.021-2.979,0.073-6.032,0.16-9.16c0.084-3.128,0.244-5.989,0.479-8.585c0.233-2.595,0.563-4.766,0.989-6.511
				c0.425-1.744,0.979-2.745,1.659-3c1.191-0.426,2.372-0.447,3.543-0.064c1.17,0.383,2.223,0.969,3.16,1.756
				c0.936,0.787,1.712,1.681,2.329,2.68c0.616,1.002,0.968,1.905,1.054,2.714c0.468,2.639,0.479,5.021,0.031,7.149
				c-0.446,2.128-1.075,4.085-1.882,5.872c-0.81,1.787-1.66,3.426-2.554,4.915c-0.894,1.49-1.532,2.937-1.915,4.34
				c1.063-1.914,2.255-3.53,3.574-4.851c0.553-0.553,1.149-1.063,1.788-1.531c0.638-0.468,1.318-0.83,2.042-1.086
				c0.723-0.255,1.469-0.383,2.234-0.383s1.553,0.214,2.361,0.639c1.318,0.681,2.33,1.649,3.032,2.904
				c0.702,1.256,1.213,2.66,1.531,4.213c0.32,1.554,0.521,3.181,0.606,4.883c0.086,1.702,0.181,3.342,0.288,4.915
				c0.105,1.575,0.287,3.032,0.542,4.373c0.256,1.34,0.724,2.415,1.405,3.224c0.978,1.148,1.828,1.946,2.553,2.394
				c0.724,0.446,1.34,0.723,1.852,0.83c0.51,0.105,0.925,0.147,1.244,0.127c0.319-0.021,0.563,0.053,0.734,0.224
				c0.127,0.128,0.224,0.265,0.287,0.415c0.064,0.148,0.064,0.297,0,0.446c-0.063,0.149-0.245,0.319-0.542,0.511
				c-0.299,0.191-0.746,0.393-1.342,0.606c-1.147,0.383-2.628,0.436-4.436,0.16c-1.81-0.278-3.733-1.16-5.776-2.649
				c-1.021-0.725-1.799-1.744-2.33-3.063c-0.533-1.318-0.948-2.755-1.245-4.31c-0.298-1.553-0.521-3.127-0.67-4.723
				c-0.149-1.597-0.33-3.053-0.543-4.373c-0.213-1.318-0.521-2.394-0.925-3.224c-0.405-0.83-0.99-1.266-1.756-1.309
				c-0.767-0.041-1.447,0.246-2.042,0.862c-0.597,0.617-1.108,1.446-1.532,2.489c-0.426,1.043-0.777,2.224-1.054,3.542
				c-0.277,1.32-0.5,2.617-0.671,3.895c-0.17,1.276-0.297,2.489-0.382,3.639c-0.087,1.148-0.149,2.064-0.192,2.744
				c-0.042,1.064-0.298,1.81-0.766,2.234c-0.469,0.425-1.012,0.638-1.628,0.638c-0.617,0-1.266-0.138-1.946-0.415
				c-0.682-0.275-1.235-0.563-1.66-0.861c-0.469-0.34-0.809-0.851-1.021-1.531s-0.362-1.362-0.446-2.043
				C247.226,248.674,247.205,247.822,247.248,246.887z M255.035,224.099c0.425-1.574,0.808-3.213,1.148-4.916
				c0.341-1.701,0.489-3.191,0.447-4.468c-0.086-1.276-0.256-2.372-0.51-3.287c-0.256-0.915-0.555-1.533-0.895-1.852
				c-0.342-0.319-0.682-0.266-1.021,0.159c-0.341,0.427-0.617,1.341-0.829,2.745c-0.214,1.404-0.341,3.096-0.384,5.075
				c-0.043,1.978-0.031,3.872,0.032,5.681c0.063,1.81,0.159,3.969,0.287,6.479C254.035,227.545,254.609,225.673,255.035,224.099z"/>
			<path fill="#FFCB05" d="M293.397,226.971c-0.128,0.553-0.489,1.011-1.085,1.372c-0.596,0.362-1.276,0.734-2.042,1.117
				c-0.767,0.383-1.555,0.809-2.362,1.276c-0.809,0.469-1.49,1.085-2.042,1.852c-0.853,1.234-1.448,2.703-1.788,4.404
				c-0.341,1.702-0.501,3.33-0.479,4.883c0.021,1.555,0.212,2.895,0.574,4.021c0.361,1.128,0.818,1.691,1.373,1.691
				c0.68,0,1.394-0.319,2.138-0.957c0.744-0.639,1.415-1.373,2.011-2.202c0.596-0.83,1.085-1.681,1.469-2.554
				c0.383-0.871,0.574-1.541,0.574-2.01s-0.021-1.117-0.064-1.947c-0.042-0.83-0.031-1.649,0.033-2.458
				c0.063-0.808,0.19-1.51,0.382-2.106c0.192-0.596,0.521-0.914,0.989-0.958c0.469-0.041,1.031-0.147,1.692-0.318
				c0.659-0.17,1.286-0.191,1.883-0.063c0.595,0.127,1.073,0.543,1.436,1.244c0.361,0.702,0.5,1.905,0.415,3.606
				c-0.127,3.447,0.043,6.054,0.512,7.819c0.467,1.767,1.382,2.799,2.744,3.097c0.936,0.17,1.776-0.054,2.521-0.671
				c0.744-0.616,1.414-1.309,2.01-2.074s1.107-1.458,1.533-2.074c0.425-0.617,0.766-0.862,1.021-0.734
				c0.297,0.128,0.403,0.66,0.318,1.596s-0.404,1.99-0.957,3.159c-0.554,1.171-1.373,2.342-2.457,3.511
				c-1.086,1.171-2.48,2.074-4.182,2.713c-0.894,0.342-1.724,0.511-2.489,0.511c-0.767,0-1.459-0.105-2.075-0.319
				c-0.617-0.212-1.159-0.51-1.627-0.894c-0.469-0.383-0.894-0.808-1.277-1.276c-0.852-1.063-1.531-2.383-2.042-3.958
				c-0.426,1.021-1.021,1.915-1.787,2.681c-0.64,0.683-1.469,1.309-2.489,1.884c-1.021,0.574-2.277,0.904-3.767,0.989
				c-1.49,0.043-2.895-0.425-4.213-1.404c-1.319-0.979-2.372-2.298-3.159-3.958c-0.789-1.659-1.214-3.584-1.277-5.776
				c-0.064-2.191,0.415-4.5,1.437-6.926c0.681-1.573,1.574-2.914,2.681-4.021c1.105-1.105,2.287-2.011,3.543-2.712
				c1.254-0.702,2.51-1.214,3.766-1.532c1.255-0.319,2.383-0.5,3.383-0.543c1-0.042,1.809,0.032,2.426,0.224
				C293.216,226.364,293.482,226.63,293.397,226.971z"/>
		</g>
		<g>
			<path fill="#FFFFFF" d="M52.518,273.154c0-1.294,0.193-2.38,0.58-3.258c0.289-0.646,0.683-1.227,1.183-1.74
				c0.5-0.515,1.047-0.896,1.642-1.144c0.791-0.335,1.704-0.503,2.738-0.503c1.871,0,3.368,0.58,4.491,1.741
				c1.124,1.161,1.685,2.775,1.685,4.843c0,2.051-0.557,3.654-1.672,4.813c-1.114,1.158-2.604,1.736-4.47,1.736
				c-1.889,0-3.391-0.576-4.505-1.729C53.075,276.763,52.518,275.176,52.518,273.154z M55.16,273.068
				c0,1.438,0.332,2.527,0.997,3.27c0.664,0.742,1.507,1.113,2.529,1.113s1.861-0.368,2.517-1.104
				c0.655-0.736,0.983-1.841,0.983-3.313c0-1.455-0.319-2.542-0.958-3.258s-1.486-1.074-2.542-1.074
				c-1.057,0-1.909,0.363-2.556,1.087C55.483,270.514,55.16,271.606,55.16,273.068z"/>
			<path fill="#FFFFFF" d="M79.336,274.757l2.486,0.788c-0.381,1.387-1.015,2.416-1.902,3.089c-0.886,0.673-2.011,1.009-3.374,1.009
				c-1.687,0-3.072-0.576-4.158-1.729c-1.086-1.151-1.628-2.727-1.628-4.725c0-2.114,0.545-3.756,1.637-4.926
				c1.092-1.169,2.526-1.754,4.306-1.754c1.553,0,2.815,0.459,3.786,1.378c0.577,0.542,1.011,1.322,1.299,2.339l-2.538,0.605
				c-0.15-0.658-0.464-1.178-0.94-1.559c-0.477-0.381-1.056-0.572-1.737-0.572c-0.942,0-1.706,0.339-2.292,1.014
				c-0.586,0.676-0.879,1.771-0.879,3.283c0,1.605,0.289,2.75,0.866,3.431c0.578,0.682,1.328,1.022,2.252,1.022
				c0.682,0,1.268-0.217,1.759-0.649C78.771,276.368,79.123,275.687,79.336,274.757z"/>
			<path fill="#FFFFFF" d="M88.396,279.426v-12.699h9.417v2.148h-6.853v2.815h6.376v2.14h-6.376v3.457h7.095v2.139H88.396z"/>
			<path fill="#FFFFFF" d="M116.056,279.426h-2.79l-1.109-2.885h-5.076l-1.048,2.885h-2.72l4.947-12.699h2.711L116.056,279.426z
				 M111.334,274.402l-1.75-4.713l-1.715,4.713H111.334z"/>
			<path fill="#FFFFFF" d="M121.815,279.426v-12.699h2.495l5.198,8.48v-8.48h2.382v12.699h-2.573l-5.12-8.281v8.281H121.815z"/>
			<path fill="#FFFFFF" d="M155.49,279.426h-2.79l-1.109-2.885h-5.077l-1.048,2.885h-2.72l4.947-12.699h2.711L155.49,279.426z
				 M150.769,274.402l-1.75-4.713l-1.715,4.713H150.769z"/>
			<path fill="#FFFFFF" d="M161.215,266.727h4.687c1.057,0,1.862,0.081,2.417,0.242c0.745,0.22,1.383,0.609,1.915,1.169
				c0.531,0.562,0.935,1.247,1.213,2.059c0.277,0.812,0.416,1.812,0.416,3.001c0,1.046-0.13,1.947-0.39,2.703
				c-0.317,0.924-0.771,1.672-1.36,2.244c-0.444,0.433-1.045,0.771-1.802,1.014c-0.566,0.179-1.323,0.268-2.27,0.268h-4.825V266.727
				z M163.779,268.875v8.412h1.915c0.716,0,1.233-0.041,1.551-0.121c0.416-0.104,0.761-0.281,1.035-0.529s0.498-0.657,0.671-1.226
				c0.173-0.569,0.26-1.345,0.26-2.326c0-0.982-0.086-1.735-0.26-2.262c-0.173-0.524-0.416-0.935-0.728-1.229
				c-0.312-0.295-0.708-0.494-1.187-0.598c-0.358-0.081-1.06-0.121-2.105-0.121H163.779z"/>
			<path fill="#FFFFFF" d="M181.649,279.426l-4.54-12.699h2.78l3.215,9.398l3.11-9.398h2.72l-4.548,12.699H181.649z"/>
			<path fill="#FFFFFF" d="M194.616,279.426v-12.699h9.417v2.148h-6.853v2.815h6.377v2.14h-6.377v3.457h7.096v2.139H194.616z"/>
			<path fill="#FFFFFF" d="M210.849,279.426v-12.699h2.495l5.198,8.48v-8.48h2.382v12.699h-2.572l-5.121-8.281v8.281H210.849z"/>
			<path fill="#FFFFFF" d="M230.867,279.426v-10.551h-3.769v-2.148h10.093v2.148h-3.76v10.551H230.867z"/>
			<path fill="#FFFFFF" d="M243.202,266.727h2.564v6.879c0,1.091,0.032,1.798,0.095,2.122c0.11,0.52,0.371,0.937,0.784,1.252
				c0.413,0.314,0.978,0.472,1.693,0.472c0.729,0,1.277-0.148,1.646-0.446s0.592-0.663,0.667-1.096s0.112-1.152,0.112-2.157v-7.025
				h2.564v6.67c0,1.525-0.069,2.602-0.208,3.232c-0.139,0.629-0.395,1.16-0.767,1.593c-0.372,0.434-0.87,0.779-1.494,1.035
				c-0.624,0.257-1.438,0.386-2.443,0.386c-1.212,0-2.132-0.14-2.759-0.42c-0.627-0.279-1.122-0.644-1.486-1.091
				c-0.363-0.448-0.604-0.917-0.718-1.408c-0.168-0.728-0.252-1.802-0.252-3.223V266.727z"/>
			<path fill="#FFFFFF" d="M260.414,279.426v-12.699h5.397c1.356,0,2.343,0.114,2.958,0.342c0.615,0.229,1.107,0.635,1.477,1.217
				c0.37,0.584,0.555,1.251,0.555,2.001c0,0.953-0.28,1.74-0.84,2.361c-0.561,0.621-1.398,1.013-2.512,1.174
				c0.554,0.323,1.011,0.679,1.372,1.065c0.36,0.388,0.848,1.074,1.46,2.063l1.551,2.477h-3.066l-1.854-2.764
				c-0.659-0.986-1.109-1.609-1.353-1.866c-0.242-0.257-0.499-0.433-0.771-0.528s-0.702-0.144-1.291-0.144h-0.52v5.302H260.414z
				 M262.979,272.098h1.896c1.23,0,1.998-0.053,2.305-0.156s0.546-0.283,0.719-0.537c0.174-0.254,0.26-0.572,0.26-0.953
				c0-0.427-0.113-0.771-0.342-1.035c-0.228-0.263-0.55-0.429-0.966-0.498c-0.208-0.029-0.832-0.043-1.871-0.043h-2.001V272.098z"/>
			<path fill="#FFFFFF" d="M277.591,279.426v-12.699h9.417v2.148h-6.853v2.815h6.376v2.14h-6.376v3.457h7.095v2.139H277.591z"/>
			<path fill="#FFFFFF" d="M293.148,275.294l2.495-0.243c0.149,0.838,0.454,1.453,0.914,1.846c0.459,0.393,1.078,0.59,1.858,0.59
				c0.825,0,1.447-0.175,1.866-0.525c0.419-0.349,0.628-0.758,0.628-1.226c0-0.3-0.088-0.556-0.264-0.767
				c-0.177-0.211-0.483-0.394-0.923-0.55c-0.301-0.104-0.985-0.289-2.054-0.554c-1.374-0.342-2.339-0.76-2.893-1.257
				c-0.78-0.698-1.17-1.551-1.17-2.556c0-0.646,0.184-1.252,0.551-1.814c0.365-0.563,0.895-0.992,1.585-1.287
				c0.69-0.294,1.523-0.441,2.499-0.441c1.594,0,2.794,0.35,3.6,1.048c0.806,0.699,1.229,1.632,1.27,2.799l-2.564,0.112
				c-0.109-0.652-0.346-1.122-0.706-1.408c-0.361-0.285-0.903-0.429-1.625-0.429c-0.744,0-1.328,0.153-1.749,0.459
				c-0.272,0.197-0.408,0.46-0.408,0.789c0,0.3,0.127,0.558,0.382,0.771c0.323,0.271,1.108,0.554,2.356,0.849
				c1.247,0.295,2.17,0.599,2.768,0.914c0.598,0.314,1.065,0.744,1.403,1.29s0.507,1.22,0.507,2.023
				c0,0.728-0.202,1.409-0.605,2.044c-0.405,0.636-0.977,1.107-1.716,1.416c-0.74,0.31-1.661,0.464-2.764,0.464
				c-1.605,0-2.839-0.371-3.699-1.113S293.315,276.715,293.148,275.294z"/>
		</g>
	</g>
	<g>
		<path fill-rule="evenodd" clip-rule="evenodd" fill="#FFFCD5" d="M185.304,81.327c11.013,0,19.941,8.929,19.941,19.94
			c0,11.011-8.928,19.94-19.941,19.94c-11.01,0-19.94-8.929-19.94-19.94C165.364,90.256,174.294,81.327,185.304,81.327"/>
		<path opacity="0.5" fill-rule="evenodd" clip-rule="evenodd" fill="#00AEEF" d="M170.606,192.434
			c-55.44-4.432-70.57-64.689-2.299-64.689c26.997,0,42.267-15.053,50.768-29.949C256.613,139.51,222.646,196.6,170.606,192.434"/>
		
			<linearGradient id="SVGID_1_" gradientUnits="userSpaceOnUse" x1="99.9409" y1="260.3438" x2="101.0193" y2="260.3438" gradientTransform="matrix(-14.5705 -5.7327 7.368 -18.727 -315.558 5610.5713)">
			<stop  offset="0" style="stop-color:#FFFFFF"/>
			<stop  offset="1" style="stop-color:#FFFFFF"/>
		</linearGradient>
		<path opacity="0.5" fill="url(#SVGID_1_)" d="M131.158,142.187c-9.296,7.429-8.205,19.279,0.521,28.167
			C124.864,158.925,128.17,148.138,131.158,142.187z"/>
		<path fill-rule="evenodd" clip-rule="evenodd" fill="#FFCB05" d="M150.966,103.931c0,0-4.464,4.094-9.076,11.072
			c-4.561,6.901-9.328,16.708-9.013,28.025c0.313,11.314,2.565,19.558,4.49,24.898c1.95,5.406,1.059,7.591,3.554,7.928
			c2.495,0.338,12.412,1.667,14.875,1.998c2.463,0.33-5.813-6.813-10.48-16.875c-4.59-9.895-7.534-23.073-2.225-35.438
			c5.312-12.362,9.923-19.058,12.791-22.669c2.877-3.623,4.203-4.153,4.203-4.153C157.053,100.461,154.01,102.196,150.966,103.931"
			/>
		<path fill-rule="evenodd" clip-rule="evenodd" fill="#824E40" d="M141.508,150.313c-0.053-0.251-0.128-0.505-0.171-0.756
			c-2.66,0-5.117-0.611-5.117-0.611c0.19-0.157-6.268-1.998,0.127,0.915C138.282,150.281,140.017,150.388,141.508,150.313
			 M143.71,157.179c-0.086-0.222-0.182-0.452-0.267-0.684c-3.063,0.285-6.417-0.547-6.417-0.547c0.181-0.157-6.278-1.987,0.16,0.916
			C139.793,157.421,141.954,157.431,143.71,157.179z M146.242,162.857c-0.117-0.221-0.224-0.453-0.352-0.684
			c-2.926,0.211-6.076-0.568-6.076-0.568c0.17-0.167-6.256-1.996,0.202,0.905C142.497,163.058,144.56,163.08,146.242,162.857z
			 M149.042,167.978c-0.129-0.199-0.257-0.41-0.374-0.619c-3.117,0.577-7.108-0.421-7.108-0.421c0.171-0.17-6.235-1.998,0.224,0.905
			C144.838,168.515,147.231,168.388,149.042,167.978z M152.967,174.057c-0.16-0.222-0.318-0.453-0.468-0.686
			c-3.522,1.031-8.758-0.304-8.758-0.304c0.192-0.19-7.107-2.294,0.319,1.051C147.977,174.99,150.902,174.687,152.967,174.057z"/>
		<path fill-rule="evenodd" clip-rule="evenodd" fill="#824E40" d="M150.966,103.931c0,0-4.464,4.094-9.076,11.072
			c-4.561,6.901-9.312,16.708-9.002,28.025c0.307,11.314,2.555,19.558,4.479,24.898c1.95,5.406,2.474,7.781,3.554,7.928
			c1.08,0.146,4.31,0.578,6.47,0.862c-2.247-4.28-5.949-11.672-8.491-19.674c-2.512-7.9-4.071-15.556-2.852-22.796
			c1.218-7.24,5.657-15.724,9.576-21.241c3.955-5.565,7.49-9.063,7.49-9.063c0.65-0.505,0.747-1.021,0.458-1.503
			C152.701,102.942,151.84,103.437,150.966,103.931"/>
		<path fill-rule="evenodd" clip-rule="evenodd" fill="#FFCB05" d="M160.777,92.404c7.303-5.591,13.29-4.672,21.28-2.471
			c0,0-2.886,0.521-5.452,1.365c-0.084,0.01,1.105-0.254-0.263,0.056c-1.368,0.312-4.85,2.564-5.18,2.879l0.504,0.034
			c6.895,1.247,15.037,4.229,17.727,11.326c-0.595-0.288-1.208-0.559-1.838-0.808c-5.201-2.057-8.422-2.052-11.572-2.239
			c1.158,0.781,4.44,3.262,7.071,7.421c2.643,4.181,4.67,10.059,3.054,17.693c-0.028-0.101-0.065-0.26-0.123-0.474
			c-1.616-2.489-12.135-15.748-16.42-18.277c-4.286-2.531-2.499-1.486-3.466-2.044c2.095,3.576,5.31,10.345,4.885,18.565
			c0.067,1.18,0.11,1.343,0.03,3.696c-0.021,0.569-0.05,1.218-0.084,1.903c-3.699-5.451-14.566-22.735-21.816-22.809
			c0,0-3.129-0.39-7.725,0.464c-4.595,0.854-7.97,0.459-16.467,7.941c-8.495,7.48-13.148,14.322-13.148,14.322
			s0.554-5.091,3.233-10.85c-0.02,0.01-0.028,0.02-0.037,0.029c0,0,0.309-0.66,0.93-1.755c0.75-1.357,1.646-2.722,2.66-4.05
			c4.078-5.406,11.57-12.975,21.382-15.343c-4.934-2.016-10.855-2.349-16.908-1.663c-6.072,0.689-12.341,2.434-17.811,4.588
			c0.01-0.018,0.028-0.038,0.057-0.056c-0.029,0.01-0.047,0.018-0.047,0.018s7.844-8.442,22.2-11.396
			c14.356-2.952,18.872-1.495,21.176-0.881c-3.817-6.149-13.997-9.195-13.997-9.195s13.637-0.734,19.474,3.632
			c5.837,4.365,6.241,6.705,6.515,8.19C160.722,92.348,160.777,92.404,160.777,92.404"/>
		<path fill-rule="evenodd" clip-rule="evenodd" fill="#E6E7E8" d="M142.299,104.608c-4.653,1.002-10.269,2.721-17.04,9.381
			c-6.772,6.659-10.885,12.13-12.407,14.59c1.42-3.585,1.598-5.614,8.506-13.671C128.267,106.851,139.076,104.144,142.299,104.608"
			/>
		<path fill-rule="evenodd" clip-rule="evenodd" fill="#E6E7E8" d="M111,99.16c1.192-1.342,11.731-7.135,18.611-8.055
			c5.924-0.789,12.668-0.578,17.953,3.052c0,0-2.722-0.589-6.483-1.065C129.963,91.683,120.523,93.248,111,99.16"/>
		<path opacity="0.29" fill-rule="evenodd" clip-rule="evenodd" fill="#FFFFFF" d="M218.321,137.631
			c2.007,0.52,3.211,2.572,2.69,4.58c-0.521,2.006-2.572,3.211-4.579,2.689c-2.007-0.521-3.211-2.57-2.688-4.578
			C214.265,138.314,216.314,137.109,218.321,137.631"/>
		<path opacity="0.29" fill-rule="evenodd" clip-rule="evenodd" fill="#FFFFFF" d="M219.525,140.357
			c0.121,0.033,0.244,0.064,0.367,0.096c0.122,0.03,0.243,0.064,0.366,0.095c0.153,0.507,0.228,0.99,0.113,1.429
			c-0.114,0.44-0.413,0.826-0.795,1.194c-0.122-0.035-0.245-0.064-0.367-0.096c-0.121-0.033-0.244-0.065-0.364-0.096
			c0.381-0.366,0.679-0.754,0.793-1.195C219.752,141.347,219.68,140.863,219.525,140.357"/>
		<path opacity="0.29" fill-rule="evenodd" clip-rule="evenodd" fill="#FFFFFF" d="M213.397,149.351
			c0.886,0.229,1.415,1.132,1.185,2.015c-0.229,0.883-1.13,1.414-2.016,1.185c-0.884-0.229-1.413-1.132-1.182-2.015
			C211.612,149.652,212.516,149.121,213.397,149.351"/>
		<path opacity="0.29" fill-rule="evenodd" clip-rule="evenodd" fill="#FFFFFF" d="M213.827,150.569
			c0.052,0.012,0.101,0.024,0.151,0.039c0.051,0.012,0.102,0.026,0.15,0.038c0.064,0.208,0.093,0.407,0.047,0.588
			c-0.047,0.179-0.17,0.34-0.326,0.491c-0.051-0.015-0.102-0.026-0.15-0.041c-0.052-0.012-0.101-0.026-0.152-0.039
			c0.158-0.151,0.28-0.309,0.327-0.49C213.922,150.976,213.891,150.777,213.827,150.569"/>
		<path opacity="0.29" fill-rule="evenodd" clip-rule="evenodd" fill="#FFFFFF" d="M207.117,155.868
			c0.498,0.129,0.795,0.637,0.666,1.133c-0.128,0.498-0.637,0.793-1.133,0.665c-0.497-0.13-0.793-0.638-0.665-1.133
			C206.115,156.037,206.621,155.738,207.117,155.868"/>
		<path opacity="0.29" fill-rule="evenodd" clip-rule="evenodd" fill="#FFFFFF" d="M207.449,156.545
			c0.029,0.011,0.063,0.017,0.097,0.027c0.03,0.008,0.063,0.017,0.095,0.026c0.041,0.133,0.063,0.261,0.031,0.378
			c-0.031,0.114-0.109,0.217-0.211,0.315c-0.031-0.009-0.065-0.017-0.096-0.027c-0.033-0.006-0.064-0.017-0.098-0.023
			c0.098-0.098,0.182-0.202,0.21-0.316C207.508,156.809,207.488,156.679,207.449,156.545"/>
		<path fill-rule="evenodd" clip-rule="evenodd" fill="#FFFFFF" d="M224.871,109.801c4.453,7.675,7.003,16.592,7.003,26.102
			c0,28.773-23.327,52.103-52.1,52.103c-5.581,0-10.951-0.884-15.991-2.509c-0.521-0.194-0.571-0.369-0.412-0.504
			c1.661-0.66,5.018-1.071,2.483-1.071c-1.354,0-2.175-0.092-2.672-0.189c-0.328-0.128-0.526-0.418-0.35-1.02
			c0.906-3.211,3.215-7.921,9.13-11.062c9.715-5.164,19.735-5.769,22.771-7.895c3.036-2.125,3.644-11.459,5.769-10.852
			c2.125,0.605,2.732,7.207,2.732,7.207s3.644,2.127,12.752-6.981c9.109-9.111,10.626-16.295,9.109-21.76
			c-3.055-10.996-21.254-10.241-21.254-24.999c0,0,1.518-2.733,7.59,2.733c6.071,5.465,13.056,14.574,13.967,11.842
			c0.91-2.732-6.071-11.842-3.34-12.449C222.833,108.325,223.829,108.812,224.871,109.801"/>
		<path fill-rule="evenodd" clip-rule="evenodd" fill="#FFFFFF" d="M180.808,158.275c0,0-6.464-1.66-13.032,2.109
			c-6.569,3.767-11.003,4.337-13.54,3.581c-2.537-0.757-3.27-1.422-3.27-1.422s1.715,3.865,7.705,3.562
			C165.789,165.741,171.347,157.692,180.808,158.275"/>
		<path fill-rule="evenodd" clip-rule="evenodd" fill="#FFFFFF" d="M186.747,155.466c0,0,3.902-4.813,11.437-5.655
			c7.536-0.843,8.244-3.433,8.244-4.409c0-0.977-0.619-1.489-0.619-1.489s2.216,0.466,1.595,3.588
			c-0.619,3.121-4.698,3.506-9.576,3.561C192.954,151.117,186.747,155.466,186.747,155.466"/>
		<path fill-rule="evenodd" clip-rule="evenodd" fill="#FFFFFF" d="M184.207,136.622l4.486,2.659l-2.983,0.914l-4.021-2.869
			L184.207,136.622z M180.812,137.572l3.938,2.913l-6.89,2.112l-1.152-3.877L180.812,137.572z M176.049,138.903l1.112,3.909
			l-5.993,1.837c-0.274-1.153-1.488-3.317-0.135-4.338L176.049,138.903z M152.291,161.207l-0.487-1.359l2.6-0.825l-1.341-4.603
			l15.838-5.483c1.302-0.728,1.401-1.752,1.353-2.462l-1.393-4.979l-2.079,0.06l-0.243-0.609l2.821-2.207l17.602-4.478
			c0.354-0.089-1.722,1.604-1.722,1.604l5.083,2.848l16.803-6.143c-0.681,2.026-3.05,9.604-4.32,13.751
			c-3.944,0.929-8.174,1.257-11.834,3.5c-5.522,3.383-11.08,4.86-18.133,5.333C165.767,155.626,159.137,161.071,152.291,161.207z"/>
		<polygon fill-rule="evenodd" clip-rule="evenodd" fill="#FFFFFF" points="153.749,150.839 154.379,150.636 156.161,155.062 
			155.504,155.317 		"/>
		<polygon fill-rule="evenodd" clip-rule="evenodd" fill="#FFFFFF" points="160.128,148.394 160.804,148.146 162.585,152.572 
			161.891,152.827 		"/>
		<polygon fill-rule="evenodd" clip-rule="evenodd" fill="#FFFFFF" points="170.621,144.75 170.935,145.483 153.266,151.552 
			152.938,150.796 		"/>
		
			<rect x="167.25" y="146.357" transform="matrix(-0.9278 0.3731 -0.3731 -0.9278 378.4445 224.2449)" fill-rule="evenodd" clip-rule="evenodd" fill="#FFFFFF" width="0.546" height="4.771"/>
	</g>
</g>
</svg>
