<?xml version="1.0" encoding="utf-8"?>
<!-- Generator: Adobe Illustrator 14.0.0, SVG Export Plug-In . SVG Version: 6.00 Build 43363)  -->
<!DOCTYPE svg PUBLIC "-//W3C//DTD SVG 1.1//EN" "http://www.w3.org/Graphics/SVG/1.1/DTD/svg11.dtd">
<svg version="1.1" id="Layer_1" xmlns="http://www.w3.org/2000/svg" xmlns:xlink="http://www.w3.org/1999/xlink" x="0px" y="0px"
	viewBox="0 0 600 259" enable-background="new 0 0 600 259" xml:space="preserve">
<g>
	<g>
		<path fill="#FEFAD7" d="M14.606,86.877c0.749-0.057,1.596,0.293,2.544,1.05c0.948,0.757,1.859,1.736,2.733,2.937
			c0.873,1.203,1.635,2.577,2.284,4.13c0.648,1.552,1.049,3.073,1.198,4.565c0.4,2.932,0.925,5.084,1.574,6.457
			c0.648,1.374,1.323,2.32,2.022,2.839c0.798,0.566,1.647,0.752,2.545,0.56c0.997-2.592,1.944-5.187,2.842-7.78
			c0.698-2.234,1.371-4.58,2.019-7.04c0.647-2.458,1.021-4.714,1.121-6.767c0.049-0.901,0.535-1.343,1.459-1.328
			c0.923,0.014,1.909,0.421,2.957,1.217c1.048,0.797,1.958,1.963,2.733,3.498c0.773,1.537,1.012,3.362,0.712,5.482
			c-0.249,1.966-0.747,4.551-1.494,7.752s-1.858,6.591-3.328,10.161c-1.471,3.57-3.354,7.111-5.648,10.608
			c-2.295,3.497-5.113,6.544-8.456,9.107c-1.945,1.517-3.842,2.544-5.687,3.081c-1.847,0.539-3.319,0.671-4.416,0.407
			c-1.098-0.262-1.673-0.859-1.722-1.782c-0.05-0.923,0.722-2.06,2.319-3.426c2.544-2.126,4.64-4.357,6.285-6.673
			c1.646-2.315,2.967-4.444,3.965-6.378c1.197-2.24,2.119-4.425,2.768-6.55c-1.598-0.278-3.194-0.816-4.791-1.613
			c-1.348-0.654-2.758-1.626-4.23-2.917c-1.473-1.29-2.759-2.979-3.856-5.062c-0.799-1.587-1.647-3.325-2.546-5.217
			c-0.899-1.891-1.523-3.649-1.874-5.271c-0.349-1.621-0.274-3.005,0.224-4.154C11.362,87.624,12.61,87,14.606,86.877z"/>
		<path fill="#FEFAD7" d="M61.691,105.625c2.295,1.12,4.067,2.597,5.316,4.454c1.247,1.856,2.059,3.866,2.435,6.034
			c0.375,2.169,0.312,4.386-0.185,6.649c-0.499,2.265-1.335,4.362-2.506,6.287c-1.172,1.926-2.656,3.577-4.452,4.944
			c-1.796,1.368-3.843,2.207-6.137,2.505c-2.895,0.366-5.327-0.032-7.298-1.17c-1.972-1.139-3.481-2.695-4.53-4.654
			c-1.048-1.959-1.66-4.145-1.835-6.552c-0.175-2.405,0.086-4.696,0.784-6.873c0.698-2.176,1.844-4.079,3.442-5.716
			c1.596-1.638,3.592-2.645,5.987-3.039c2.195-0.372,3.792-0.786,4.79-1.222c0.997-0.436,1.721-0.819,2.17-1.146
			c0.449-0.326,0.76-0.549,0.936-0.671C60.781,105.334,61.142,105.391,61.691,105.625z M52.937,113.112
			c-0.3,0.33-0.55,1.08-0.748,2.247c-0.2,1.168-0.336,2.529-0.41,4.083c-0.075,1.555-0.063,3.175,0.038,4.861
			c0.1,1.687,0.288,3.216,0.563,4.584c0.274,1.37,0.662,2.477,1.161,3.324c0.499,0.846,1.098,1.184,1.797,1.008
			c0.698-0.174,1.372-0.709,2.021-1.605c0.648-0.896,1.234-1.985,1.758-3.269c0.524-1.283,0.947-2.68,1.271-4.19
			c0.323-1.509,0.523-2.969,0.597-4.375c0.075-1.405-0.013-2.667-0.263-3.786c-0.251-1.117-0.674-1.94-1.273-2.47
			c-1.397-1.284-2.583-1.938-3.556-1.958C54.919,111.548,53.934,112.064,52.937,113.112z"/>
		<path fill="#FEFAD7" d="M82.2,104.056c-0.05,0.508-0.1,1.364-0.149,2.569c-0.05,1.206-0.074,2.545-0.073,4.016
			c0,1.472,0.05,2.999,0.151,4.579c0.1,1.582,0.274,3.012,0.525,4.292c0.25,1.282,0.624,2.306,1.124,3.071
			c0.499,0.766,1.148,1.082,1.947,0.946c1.147-0.194,2.133-0.789,2.956-1.782c0.823-0.992,1.534-2.19,2.132-3.597
			c0.598-1.404,1.071-2.949,1.421-4.634c0.348-1.685,0.636-3.322,0.859-4.91c0.224-1.587,0.374-3.062,0.448-4.423
			s0.136-2.42,0.186-3.178c0.049-0.907,0.311-1.604,0.786-2.092c0.474-0.487,1.06-0.808,1.759-0.966
			c0.698-0.157,1.447-0.163,2.246-0.018c0.797,0.145,1.546,0.373,2.245,0.684c0.699,0.312,1.273,0.709,1.722,1.192
			c0.45,0.484,0.699,0.996,0.749,1.534c0.05,0.738,0.025,1.829-0.074,3.271c-0.1,1.443-0.187,3.058-0.261,4.843
			c-0.074,1.787-0.111,3.615-0.11,5.486c0,1.871,0.138,3.565,0.413,5.082c0.274,1.517,0.699,2.778,1.273,3.783
			c0.574,1.006,1.385,1.526,2.433,1.558c0.947,0.053,1.597,0.24,1.947,0.565c0.348,0.326,0.386,0.704,0.113,1.136
			c-0.275,0.432-0.824,0.835-1.647,1.207s-1.934,0.577-3.331,0.611c-2.296,0.067-4.068-0.385-5.315-1.341
			c-1.248-0.957-2.171-2.028-2.771-3.213c-0.7-1.364-1.124-2.933-1.274-4.701c-0.648,2.118-1.496,3.996-2.543,5.632
			c-0.897,1.461-2.057,2.779-3.479,3.952c-1.421,1.173-3.156,1.782-5.201,1.82c-2.047,0.038-3.731-0.356-5.053-1.174
			c-1.323-0.817-2.396-1.891-3.22-3.216c-0.824-1.324-1.436-2.819-1.835-4.483c-0.401-1.664-0.675-3.357-0.825-5.083
			c-0.15-1.375-0.225-2.762-0.226-4.159c0-1.396,0.048-2.702,0.148-3.914c0.099-1.211,0.248-2.255,0.448-3.133
			c0.198-0.876,0.423-1.457,0.673-1.744c0.3-0.292,0.923-0.658,1.871-1.099c0.947-0.441,1.933-0.752,2.957-0.937
			c1.022-0.184,1.933-0.166,2.732,0.055C81.875,102.363,82.249,103,82.2,104.056z"/>
		<path fill="#FEFAD7" d="M109.07,98.785c-0.55-0.183-1.048-0.252-1.498-0.209c-0.449,0.046-0.861,0.105-1.235,0.183
			c-0.375,0.078-0.698,0.107-0.973,0.088c-0.273-0.019-0.511-0.206-0.711-0.565c-0.15-0.318,0.087-0.841,0.71-1.567
			c0.625-0.728,1.459-1.397,2.507-2.018c1.048-0.618,2.22-1.03,3.518-1.235c1.297-0.205,2.545,0.034,3.743,0.715
			c1.048,0.666,1.909,1.332,2.583,2.003s1.209,1.286,1.609,1.842c0.45,0.646,0.774,1.295,0.974,1.947
			c1.396-1.668,2.843-3.129,4.34-4.383c1.296-1.105,2.743-2.101,4.341-2.99c1.596-0.888,3.192-1.309,4.79-1.261
			c0.399,0.049,0.586,0.314,0.562,0.794c-0.026,0.481-0.224,1.042-0.599,1.685c-0.374,0.644-0.886,1.295-1.534,1.956
			c-0.649,0.661-1.422,1.202-2.32,1.621c-1.747,0.829-3.132,1.91-4.153,3.252c-1.023,1.342-1.809,2.813-2.357,4.413
			c-0.549,1.602-0.897,3.254-1.046,4.961c-0.149,1.707-0.224,3.334-0.223,4.879c0.05,3.233-0.398,5.745-1.345,7.535
			c-0.948,1.791-2.22,2.919-3.816,3.378c-1.847,0.516-3.219-0.033-4.118-1.633c-0.898-1.601-1.349-4.547-1.35-8.838
			c0.048-2.705,0.073-5.056,0.073-7.051c-0.001-1.995-0.076-3.663-0.226-5.004c-0.15-1.34-0.401-2.37-0.75-3.094
			C110.218,99.465,109.718,98.998,109.07,98.785z"/>
		<path fill="#FEFAD7" d="M162.07,116.144c-0.699,0.152-1.285-0.253-1.759-1.213c-0.476-0.96-0.85-2.189-1.124-3.682
			c-0.275-1.493-0.487-3.128-0.638-4.907s-0.263-3.455-0.339-5.031c-0.075-1.575-0.138-2.904-0.188-3.988
			c-0.051-1.083-0.125-1.686-0.225-1.807c-0.7-0.848-1.048-1.786-1.049-2.809c0-1.022,0.149-2.037,0.448-3.046
			c0.299-1.008,0.636-1.94,1.01-2.794c0.374-0.855,0.585-1.515,0.636-1.978c0.149-1.14,0.261-2.57,0.335-4.288
			c0.075-1.717,0.173-3.493,0.298-5.325c0.124-1.831,0.286-3.611,0.485-5.34c0.198-1.729,0.473-3.192,0.822-4.391
			c0.399-1.462,1.01-2.561,1.833-3.3c0.823-0.737,1.658-1.168,2.507-1.293c0.848-0.124,1.584,0.046,2.208,0.509
			c0.624,0.464,0.96,1.163,1.011,2.095c0.049,1.134,0.1,2.466,0.151,3.997c0.049,1.533,0.087,3.043,0.114,4.532
			c0.025,1.49,0.049,2.83,0.076,4.02c0.025,1.19,0.038,1.985,0.039,2.383c0.797-0.786,1.545-1.646,2.244-2.581
			c0.698-0.932,1.471-2.001,2.32-3.207c0.848-1.205,1.858-2.548,3.03-4.03c1.171-1.482,2.631-3.141,4.378-4.983
			c1.347-1.417,2.806-2.797,4.377-4.143c1.572-1.345,3.155-2.597,4.752-3.759c0.749-0.489,1.422-0.794,2.021-0.913
			c0.599-0.118,1.035-0.047,1.31,0.212c0.274,0.261,0.362,0.695,0.263,1.3c-0.101,0.607-0.475,1.34-1.123,2.198
			c-0.998,1.271-2.258,2.85-3.779,4.732c-1.522,1.884-3.131,3.867-4.826,5.946c-1.696,2.081-3.393,4.194-5.088,6.339
			c-1.697,2.146-3.218,4.147-4.565,6.003c-1.347,1.857-2.42,3.478-3.217,4.864c-0.799,1.389-1.173,2.373-1.123,2.957
			c0.15,1.253,0.55,2.294,1.199,3.121c0.648,0.829,1.373,1.771,2.172,2.826c0.549,0.683,1.223,1.276,2.021,1.781
			c0.797,0.504,1.672,0.824,2.62,0.955c0.947,0.132,1.958,0.031,3.031-0.303c1.073-0.334,2.158-1.022,3.256-2.067
			c1.546-1.434,2.981-2.301,4.303-2.6c1.322-0.297,2.42-0.238,3.294,0.178c0.873,0.417,1.423,1.062,1.647,1.937
			c0.225,0.875,0.038,1.735-0.56,2.576c-1.796,2.478-3.542,4.336-5.238,5.574c-1.697,1.24-3.331,2.005-4.903,2.297
			c-1.572,0.294-3.082,0.213-4.528-0.238c-1.448-0.451-2.82-1.128-4.118-2.032c-1.298-0.903-2.497-1.95-3.594-3.144
			c-1.099-1.193-2.097-2.38-2.996-3.561c-0.101-0.12-0.175,0.239-0.224,1.077c-0.05,0.838-0.112,1.941-0.186,3.311
			s-0.212,2.883-0.41,4.537c-0.2,1.657-0.475,3.235-0.822,4.734c-0.349,1.5-0.811,2.783-1.384,3.849
			C163.704,115.294,162.968,115.932,162.07,116.144z"/>
		<path fill="#FEFAD7" d="M215.726,65.877c-0.149,0.701-0.574,1.384-1.272,2.046c-0.699,0.665-1.496,1.373-2.395,2.128
			c-0.898,0.755-1.822,1.568-2.769,2.437c-0.949,0.871-1.747,1.863-2.395,2.979c-0.998,1.784-1.696,3.739-2.094,5.867
			c-0.399,2.13-0.585,4.101-0.559,5.913c0.025,1.813,0.25,3.311,0.674,4.49c0.424,1.181,0.961,1.661,1.61,1.443
			c0.797-0.268,1.633-0.924,2.507-1.968c0.873-1.044,1.658-2.171,2.357-3.382c0.698-1.21,1.272-2.403,1.721-3.58
			c0.449-1.175,0.673-2.038,0.673-2.588c0-0.548-0.026-1.3-0.075-2.257c-0.051-0.956-0.038-1.92,0.036-2.894
			c0.075-0.973,0.224-1.847,0.449-2.624c0.224-0.774,0.61-1.281,1.16-1.52c0.548-0.238,1.209-0.59,1.983-1.057
			c0.773-0.465,1.509-0.746,2.208-0.838c0.698-0.092,1.26,0.199,1.685,0.875c0.423,0.676,0.586,2.03,0.487,4.06
			c-0.148,4.093,0.051,7.081,0.602,8.959c0.549,1.879,1.622,2.716,3.219,2.504c1.097-0.185,2.083-0.794,2.956-1.825
			c0.873-1.031,1.658-2.12,2.357-3.266c0.698-1.146,1.296-2.168,1.795-3.069c0.498-0.899,0.898-1.33,1.197-1.286
			c0.349,0.025,0.474,0.605,0.375,1.737c-0.1,1.134-0.475,2.503-1.122,4.104c-0.648,1.604-1.608,3.316-2.88,5.138
			c-1.272,1.823-2.907,3.46-4.902,4.907c-1.048,0.767-2.021,1.306-2.919,1.619s-1.71,0.471-2.433,0.471
			c-0.724,0.001-1.36-0.127-1.909-0.387c-0.549-0.259-1.048-0.586-1.497-0.98c-1-0.903-1.797-2.177-2.397-3.818
			c-0.499,1.368-1.196,2.655-2.095,3.859c-0.748,1.053-1.721,2.12-2.918,3.198c-1.198,1.079-2.67,1.962-4.416,2.646
			c-1.747,0.635-3.394,0.633-4.94-0.004c-1.547-0.636-2.783-1.778-3.706-3.422c-0.925-1.644-1.423-3.739-1.499-6.285
			c-0.076-2.545,0.485-5.434,1.682-8.669c0.797-2.106,1.845-4.021,3.142-5.748c1.297-1.724,2.681-3.245,4.153-4.559
			c1.471-1.314,2.943-2.407,4.416-3.278c1.471-0.87,2.793-1.531,3.966-1.98c1.172-0.448,2.121-0.687,2.845-0.71
			C215.513,65.24,215.825,65.444,215.726,65.877z"/>
		<path fill="#FEFAD7" d="M240.875,59.639c-0.05,0.518-0.1,1.383-0.149,2.599c-0.05,1.216-0.074,2.561-0.073,4.031
			c0,1.472,0.05,2.989,0.151,4.548c0.1,1.562,0.274,2.958,0.525,4.189c0.25,1.233,0.624,2.184,1.124,2.851
			c0.499,0.669,1.148,0.858,1.947,0.569c1.147-0.415,2.133-1.196,2.956-2.344c0.823-1.147,1.534-2.478,2.132-3.995
			c0.598-1.515,1.071-3.146,1.421-4.896c0.348-1.748,0.636-3.438,0.859-5.066c0.224-1.628,0.374-3.13,0.448-4.505
			s0.136-2.445,0.186-3.212c0.049-0.916,0.311-1.659,0.786-2.233c0.474-0.572,1.06-0.999,1.759-1.281
			c0.698-0.28,1.447-0.418,2.246-0.413c0.797,0.006,1.546,0.105,2.245,0.296c0.699,0.192,1.273,0.492,1.722,0.899
			c0.45,0.408,0.699,0.878,0.749,1.408c0.05,0.73,0.025,1.825-0.074,3.283c-0.1,1.459-0.187,3.089-0.261,4.887
			c-0.074,1.799-0.111,3.634-0.11,5.505c0,1.871,0.138,3.542,0.413,5.012c0.274,1.47,0.699,2.661,1.273,3.57
			c0.574,0.912,1.385,1.297,2.433,1.158c0.947-0.102,1.596-0.018,1.947,0.25c0.348,0.271,0.386,0.643,0.113,1.119
			c-0.275,0.476-0.824,0.968-1.647,1.471c-0.823,0.504-1.934,0.891-3.331,1.158c-2.296,0.45-4.068,0.304-5.315-0.435
			c-1.248-0.739-2.171-1.647-2.771-2.726c-0.7-1.24-1.124-2.732-1.274-4.474c-0.648,2.234-1.496,4.266-2.543,6.094
			c-0.897,1.625-2.057,3.159-3.479,4.598c-1.421,1.439-3.156,2.379-5.201,2.818c-2.047,0.439-3.731,0.382-5.053-0.168
			c-1.323-0.549-2.396-1.402-3.22-2.556c-0.824-1.154-1.436-2.521-1.835-4.101c-0.401-1.579-0.675-3.215-0.825-4.909
			c-0.15-1.343-0.225-2.714-0.226-4.112c0-1.396,0.048-2.712,0.148-3.945c0.099-1.232,0.248-2.308,0.448-3.227
			c0.198-0.918,0.423-1.546,0.673-1.885c0.3-0.356,0.923-0.852,1.871-1.489c0.947-0.636,1.933-1.15,2.957-1.541
			c1.022-0.391,1.933-0.555,2.732-0.494C240.549,58.011,240.924,58.573,240.875,59.639z"/>
		<path fill="#FEFAD7" d="M288.626,39.375c-0.149,0.705-0.574,1.401-1.272,2.087c-0.699,0.687-1.496,1.422-2.395,2.208
			c-0.898,0.786-1.822,1.632-2.769,2.535c-0.949,0.905-1.747,1.927-2.395,3.067c-0.998,1.822-1.696,3.804-2.094,5.948
			c-0.399,2.146-0.585,4.125-0.559,5.936c0.025,1.812,0.25,3.3,0.674,4.463c0.424,1.165,0.961,1.624,1.61,1.381
			c0.797-0.298,1.633-0.985,2.507-2.061c0.873-1.076,1.658-2.23,2.357-3.466c0.698-1.234,1.272-2.447,1.721-3.639
			c0.449-1.19,0.673-2.061,0.673-2.61c0-0.548-0.026-1.3-0.075-2.254c-0.051-0.954-0.038-1.919,0.036-2.896
			c0.075-0.976,0.224-1.855,0.449-2.638c0.224-0.783,0.61-1.302,1.16-1.558c0.548-0.255,1.209-0.629,1.983-1.12
			c0.773-0.489,1.509-0.792,2.208-0.905c0.698-0.113,1.26,0.163,1.685,0.826c0.423,0.665,0.586,2.013,0.487,4.046
			c-0.148,4.097,0.051,7.08,0.602,8.942c0.549,1.864,1.622,2.671,3.219,2.418c1.097-0.213,2.083-0.846,2.956-1.898
			c0.872-1.051,1.657-2.159,2.357-3.32c0.697-1.161,1.296-2.197,1.796-3.108c0.497-0.911,0.897-1.349,1.196-1.312
			c0.349,0.019,0.475,0.596,0.376,1.73c-0.101,1.136-0.475,2.511-1.122,4.127c-0.648,1.617-1.608,3.35-2.881,5.201
			c-1.271,1.852-2.907,3.527-4.901,5.026c-1.048,0.795-2.021,1.359-2.919,1.697s-1.71,0.52-2.433,0.541
			c-0.724,0.023-1.36-0.087-1.909-0.33c-0.549-0.242-1.048-0.553-1.497-0.934c-1-0.872-1.797-2.119-2.397-3.74
			c-0.499,1.384-1.197,2.694-2.095,3.93c-0.748,1.079-1.721,2.179-2.918,3.302c-1.198,1.122-2.67,2.06-4.416,2.812
			c-1.747,0.704-3.394,0.77-4.94,0.197c-1.547-0.57-2.783-1.658-3.706-3.26c-0.925-1.603-1.423-3.675-1.499-6.218
			c-0.076-2.541,0.485-5.457,1.682-8.746c0.797-2.142,1.845-4.103,3.142-5.884c1.297-1.78,2.681-3.357,4.153-4.731
			c1.471-1.373,2.943-2.522,4.416-3.448c1.471-0.925,2.793-1.633,3.966-2.123c1.172-0.488,2.121-0.758,2.845-0.806
			C288.413,38.744,288.726,38.939,288.626,39.375z"/>
		<path fill="#FEFAD7" d="M303.448,45.848c0.15-1.254,0.349-2.476,0.598-3.668c0.25-1.191,0.562-2.332,0.936-3.421
			c0.374-1.088,0.785-2.055,1.234-2.897c0.449-0.842,0.947-1.516,1.497-2.023c0.548-0.455,1.259-0.984,2.132-1.587
			c0.873-0.603,1.695-1.013,2.471-1.229c0.773-0.216,1.357-0.086,1.759,0.386c0.398,0.475,0.375,1.568-0.073,3.284
			c-0.199,0.924-0.375,2.049-0.523,3.377c-0.149,1.328-0.237,2.734-0.26,4.214c-0.027,1.483,0.013,2.94,0.112,4.374
			c0.1,1.435,0.288,2.724,0.562,3.869c0.276,1.143,0.649,2.064,1.124,2.758c0.475,0.696,1.062,1.036,1.761,1.023
			c1.447-0.044,2.693-0.562,3.742-1.554c1.047-0.992,2.021-2.279,2.919-3.863c0.348-0.678,0.771-1.299,1.271-1.86
			c0.498-0.561,0.91-0.876,1.234-0.948c0.324-0.071,0.486,0.192,0.487,0.791c0,0.599-0.324,1.718-0.973,3.357
			c-0.698,1.708-1.583,3.312-2.654,4.811c-1.074,1.5-2.271,2.81-3.594,3.929c-1.321,1.119-2.729,2.01-4.228,2.673
			c-1.496,0.662-2.994,1.001-4.49,1.015c-1.499,0.066-2.722-0.185-3.669-0.752c-0.948-0.566-1.685-1.523-2.209-2.874
			c-0.524-1.349-0.875-3.101-1.05-5.256C303.388,51.623,303.349,48.98,303.448,45.848z M306.81,17.862
			c0.548-1.303,1.384-2.292,2.507-2.964c1.123-0.671,2.219-1.059,3.293-1.164c1.072-0.104,1.996,0.062,2.771,0.493
			c0.773,0.434,1.086,1.152,0.936,2.156c-0.198,1.223-0.835,2.447-1.907,3.672c-1.074,1.228-2.683,2.145-4.828,2.751
			c-0.6,0.177-1.135,0.153-1.609-0.068c-0.475-0.221-0.86-0.562-1.16-1.023c-0.3-0.46-0.463-1.036-0.487-1.725
			C306.298,19.303,306.46,18.593,306.81,17.862z"/>
		<path fill="#FEFAD7" d="M177.74,210.029c-0.599,0.284-1.074,0.317-1.422,0.101c-0.35-0.218-0.625-0.557-0.824-1.02
			c-0.2-0.463-0.325-0.999-0.375-1.607c-0.05-0.609-0.076-1.188-0.076-1.736c0-0.5-0.063-1.49-0.188-2.974
			c-0.125-1.485-0.338-3.203-0.638-5.158c-0.3-1.954-0.725-4.02-1.274-6.2c-0.55-2.178-1.273-4.181-2.172-6.006
			c-0.2-0.339-1.173-0.121-2.919,0.647c-1.748,0.769-3.967,1.547-6.662,2.325c-0.849,0.197-1.684,0.447-2.507,0.758
			c-0.823,0.31-1.56,0.607-2.208,0.889c-0.648,0.284-1.186,0.535-1.609,0.752c-0.424,0.22-0.636,0.354-0.636,0.403
			c-0.05,0.664-0.112,1.517-0.187,2.56c-0.074,1.044-0.199,2.165-0.373,3.36c-0.175,1.197-0.424,2.414-0.748,3.651
			c-0.325,1.239-0.76,2.382-1.309,3.432c-0.549,1.049-1.223,1.96-2.021,2.726c-0.798,0.769-1.771,1.258-2.918,1.467
			c-0.749,0.152-1.286-0.452-1.61-1.813c-0.325-1.36-0.55-2.947-0.674-4.76c-0.126-1.812-0.164-3.561-0.114-5.246
			c0.049-1.685,0.074-2.776,0.074-3.276c-2.745,0.383-4.603,0.389-5.576,0.043c-0.973-0.348-1.31-0.873-1.011-1.574
			c0.299-0.7,1.123-1.497,2.469-2.397c1.348-0.9,2.994-1.782,4.94-2.653c0.199-1.849,0.422-4.154,0.672-6.916
			c0.248-2.762,0.634-5.609,1.158-8.545c0.523-2.936,1.245-5.764,2.168-8.486c0.922-2.722,2.181-4.976,3.778-6.768
			c0.848-0.884,1.946-1.415,3.293-1.597c1.347-0.181,2.756-0.058,4.229,0.366c1.471,0.425,2.907,1.105,4.305,2.042
			c1.397,0.938,2.595,2.081,3.594,3.43c0.599,0.92,1.235,2.152,1.91,3.696c0.674,1.545,1.322,3.134,1.947,4.766
			c0.624,1.634,1.211,3.14,1.76,4.519c0.549,1.38,0.999,2.366,1.349,2.957c0.1,0.17,0.499,0.123,1.198-0.142
			c0.698-0.263,1.459-0.498,2.283-0.703c0.823-0.205,1.583-0.267,2.283-0.186c0.698,0.082,1.072,0.564,1.123,1.446
			c0.049,0.733-0.237,1.485-0.86,2.252c-0.624,0.77-1.309,1.456-2.058,2.062c-0.749,0.606-1.448,1.109-2.095,1.508
			c-0.649,0.399-0.973,0.624-0.973,0.673c0.6,2.959,1.174,5.94,1.724,8.938c0.549,3,0.949,5.745,1.2,8.236
			c0.25,2.492,0.275,4.618,0.077,6.375C179.036,208.406,178.537,209.533,177.74,210.029z M157.065,161.065
			c-0.499,0.491-0.897,1.253-1.197,2.284c-0.299,1.033-0.523,2.232-0.673,3.595c-0.149,1.365-0.261,2.843-0.335,4.436
			c-0.074,1.592-0.111,3.15-0.111,4.672c0,1.522,0.001,2.944,0.001,4.266c0,1.323,0.001,2.432,0.001,3.331
			c0.199-0.005,0.698-0.121,1.497-0.347c0.798-0.225,1.708-0.496,2.732-0.814c1.022-0.317,2.107-0.68,3.256-1.087
			c1.147-0.407,2.195-0.801,3.144-1.18c0.947-0.378,1.722-0.706,2.32-0.984c0.599-0.277,0.898-0.466,0.898-0.566
			c-0.101-0.668-0.375-1.634-0.824-2.899c-0.45-1.263-1.012-2.63-1.686-4.104c-0.674-1.472-1.423-2.949-2.247-4.43
			c-0.824-1.481-1.647-2.763-2.472-3.848c-0.824-1.083-1.623-1.864-2.396-2.342C158.2,160.568,157.564,160.575,157.065,161.065z"/>
		<path fill="#FEFAD7" d="M205.572,164.308c0.298-3.443,0.546-6.669,0.746-9.681c0.149-2.595,0.272-5.155,0.372-7.685
			c0.099-2.527,0.098-4.423-0.001-5.688c-0.101-1.213,0.186-2.458,0.859-3.733c0.674-1.275,1.459-2.438,2.357-3.491
			c0.897-1.053,1.796-1.932,2.694-2.638c0.898-0.705,1.545-1.127,1.946-1.264c0.398-0.136,0.636,0.781,0.712,2.75
			c0.075,1.971,0.076,4.552,0.002,7.746c-0.074,3.195-0.174,6.809-0.296,10.842c-0.124,4.035-0.16,8.063-0.108,12.087
			c0.05,3.726,0.275,6.692,0.676,8.9c0.399,2.208,0.912,3.866,1.536,4.973c0.624,1.108,1.285,1.815,1.984,2.122
			c0.698,0.308,1.372,0.436,2.021,0.384c0.648-0.05,1.197-0.129,1.646-0.236c0.449-0.106,0.749-0.037,0.898,0.21
			c0.199,0.38,0.038,1.01-0.486,1.891c-0.523,0.882-1.298,1.751-2.32,2.604c-1.023,0.855-2.233,1.537-3.629,2.042
			c-1.398,0.507-2.87,0.601-4.417,0.28c-1.298-0.255-2.272-0.86-2.92-1.814c-0.649-0.952-1.099-1.96-1.348-3.024
			c-0.299-1.196-0.425-2.501-0.375-3.915c-1.098,2.367-2.395,4.549-3.891,6.546c-0.649,0.866-1.373,1.73-2.17,2.595
			c-0.799,0.864-1.672,1.678-2.619,2.438c-0.948,0.763-1.971,1.448-3.068,2.056c-1.098,0.61-2.271,1.066-3.518,1.37
			c-1.347,0.337-2.558,0.189-3.631-0.44c-1.074-0.629-1.972-1.565-2.695-2.808c-0.725-1.241-1.249-2.722-1.573-4.442
			c-0.326-1.718-0.438-3.503-0.339-5.357c0.099-1.852,0.448-3.708,1.046-5.569c0.599-1.861,1.47-3.572,2.619-5.137
			c0.848-1.119,1.746-2.056,2.694-2.81c0.947-0.754,1.908-1.352,2.881-1.792c0.973-0.44,1.946-0.758,2.919-0.952
			c0.973-0.194,1.883-0.306,2.732-0.337C201.504,163.271,203.525,163.598,205.572,164.308z M193.898,174.898
			c-0.449,1.343-0.736,2.697-0.86,4.059c-0.125,1.363-0.148,2.581-0.073,3.653c0.075,1.074,0.237,1.944,0.487,2.612
			c0.25,0.667,0.549,0.97,0.899,0.905c0.698-0.027,1.434-0.417,2.208-1.169c0.772-0.75,1.808-2.114,3.105-4.09
			c0.598-0.995,1.209-2.17,1.833-3.525c0.623-1.354,1.146-2.651,1.571-3.891c0.423-1.238,0.685-2.298,0.785-3.18
			c0.1-0.881-0.025-1.339-0.375-1.373c-0.4-0.017-1.036,0.046-1.909,0.186c-0.874,0.141-1.796,0.42-2.77,0.841
			c-0.973,0.42-1.921,1.019-2.844,1.793C195.032,172.497,194.347,173.555,193.898,174.898z"/>
		<path fill="#FEFAD7" d="M224.507,152.8c1.097-0.933,2.233-1.593,3.406-1.982c1.172-0.387,2.22-0.546,3.144-0.474
			c0.923,0.073,1.659,0.335,2.208,0.788c0.548,0.454,0.773,1.047,0.674,1.781c-0.399,3.584-0.41,6.795-0.035,9.63
			c0.375,2.835,0.887,5.174,1.537,7.012c0.648,1.839,1.323,3.108,2.022,3.805c0.699,0.699,1.223,0.685,1.572-0.039
			c0.348-0.725,0.673-2.076,0.972-4.055s0.735-4.206,1.309-6.683c0.572-2.476,1.395-5.005,2.468-7.59
			c1.071-2.582,2.555-4.841,4.452-6.778c1.646-1.646,2.756-2.401,3.331-2.262c0.573,0.14,0.811,0.852,0.711,2.135
			c-0.1,1.284-0.411,2.957-0.934,5.019c-0.523,2.062-1.06,4.167-1.607,6.312c-0.35,1.425-0.849,3.116-1.496,5.073
			c-0.648,1.957-1.384,3.897-2.207,5.816c-0.823,1.921-1.721,3.668-2.693,5.242c-0.972,1.575-1.934,2.632-2.881,3.171
			c-1.796,1.045-3.356,1.591-4.678,1.64c-1.323,0.049-2.483-0.174-3.481-0.669c-0.999-0.494-1.884-1.153-2.658-1.978
			c-0.774-0.823-1.486-1.646-2.134-2.466c-0.449-0.489-0.936-1.304-1.46-2.443c-0.524-1.137-1.024-2.435-1.498-3.891
			c-0.475-1.454-0.887-2.994-1.236-4.62c-0.35-1.624-0.562-3.184-0.638-4.68c-0.075-1.496,0.023-2.853,0.298-4.071
			C223.247,154.325,223.758,153.412,224.507,152.8z"/>
		<path fill="#FEFAD7" d="M257.066,144.013c0.698-1.604,1.62-3.114,2.769-4.537c1.147-1.42,2.406-2.696,3.779-3.828
			c1.372-1.13,2.818-2.129,4.341-2.994c1.521-0.865,3.005-1.566,4.453-2.106c1.497-0.457,2.782-0.45,3.855,0.021
			c1.073,0.473,1.834,1.311,2.284,2.515c0.45,1.205,0.537,2.706,0.264,4.504c-0.274,1.8-1.01,3.796-2.207,5.989
			c-1.298,2.382-2.682,4.321-4.153,5.816c-1.472,1.497-2.832,2.677-4.079,3.539c-1.448,1.037-2.87,1.79-4.267,2.255
			c-0.05,1.916,0.151,3.462,0.601,4.643c0.199,0.525,0.437,0.999,0.711,1.421c0.273,0.422,0.637,0.75,1.086,0.981
			c0.449,0.234,0.998,0.316,1.646,0.25c0.648-0.065,1.397-0.332,2.246-0.797c1.796-0.967,3.256-2.173,4.378-3.615
			c1.123-1.441,2.058-2.827,2.806-4.154c0.749-1.328,1.358-2.465,1.833-3.418c0.473-0.95,0.935-1.409,1.384-1.379
			c0.548,0.045,0.835,0.562,0.861,1.549c0.025,0.989-0.211,2.25-0.71,3.783c-0.499,1.534-1.234,3.194-2.207,4.981
			c-0.972,1.785-2.207,3.458-3.704,5.014c-1.496,1.558-3.218,2.885-5.164,3.982s-4.116,1.716-6.512,1.854
			c-1.946,0.121-3.568-0.228-4.866-1.049c-1.298-0.819-2.321-1.941-3.07-3.362s-1.249-3.061-1.499-4.915
			c-0.25-1.854-0.289-3.773-0.114-5.759c0.174-1.984,0.548-3.956,1.122-5.913C255.507,147.33,256.217,145.572,257.066,144.013z
			 M264.029,149.603c0.648-0.339,1.372-0.807,2.17-1.403c0.698-0.508,1.46-1.165,2.283-1.97c0.823-0.805,1.708-1.833,2.656-3.084
			c0.898-1.182,1.508-2.233,1.833-3.153c0.324-0.918,0.511-1.662,0.561-2.23c0.048-0.666-0.051-1.228-0.3-1.685
			c-0.7,0.062-1.448,0.341-2.246,0.836c-0.699,0.461-1.473,1.147-2.32,2.061c-0.849,0.914-1.721,2.187-2.619,3.816
			c-0.699,1.258-1.197,2.328-1.496,3.212c-0.299,0.885-0.499,1.595-0.598,2.13C263.854,148.77,263.88,149.259,264.029,149.603z"/>
		<path fill="#FEFAD7" d="M285.433,134.732c0.299-0.611,0.735-1.236,1.31-1.876c0.573-0.639,1.171-1.238,1.796-1.797
			c0.623-0.559,1.247-1.042,1.871-1.452c0.624-0.409,1.134-0.689,1.534-0.839c0.199-0.075,0.361,0.064,0.487,0.415
			c0.124,0.354,0.249,0.831,0.375,1.432c0.124,0.602,0.212,1.305,0.263,2.109c0.049,0.805,0.1,1.622,0.15,2.451
			c0.1,1.959,0.125,4.219,0.077,6.782c0.647-1.54,1.346-3.076,2.094-4.605c0.648-1.292,1.396-2.658,2.245-4.101
			c0.848-1.441,1.721-2.731,2.619-3.867c0.847-1.067,1.783-1.993,2.806-2.778c1.022-0.784,2.059-1.337,3.106-1.656
			s2.059-0.312,3.031,0.02c0.973,0.333,1.835,1.057,2.583,2.172c0.498,0.761,0.874,1.804,1.124,3.132
			c0.251,1.328,0.437,2.755,0.562,4.28c0.126,1.524,0.251,3.062,0.377,4.611c0.125,1.551,0.349,2.938,0.675,4.162
			c0.325,1.225,0.774,2.205,1.349,2.936c0.573,0.733,1.409,1.019,2.509,0.854c0.896-0.086,1.783-0.407,2.656-0.958
			s1.695-1.159,2.471-1.824c0.771-0.663,1.444-1.239,2.019-1.728c0.574-0.489,0.984-0.706,1.236-0.65
			c0.197,0.126,0.086,0.716-0.337,1.772c-0.424,1.057-1.123,2.242-2.096,3.553c-0.972,1.312-2.194,2.582-3.667,3.807
			c-1.473,1.225-3.156,2.068-5.051,2.532c-3.742,0.907-6.438-0.013-8.085-2.761c-1.648-2.748-2.598-6.793-2.85-12.138
			c-0.101-1.908-0.337-3.265-0.712-4.073c-0.374-0.807-0.861-1.123-1.46-0.947c-0.599,0.176-1.285,0.771-2.057,1.785
			c-0.774,1.015-1.609,2.364-2.507,4.049c-1.047,1.942-1.821,3.78-2.319,5.514c-0.499,1.735-0.835,3.308-1.009,4.721
			c-0.175,1.413-0.287,2.652-0.336,3.719c-0.049,1.067-0.175,1.888-0.374,2.461c-0.25,0.643-0.774,1.215-1.571,1.713
			c-0.799,0.5-1.66,0.923-2.583,1.27c-0.924,0.347-1.822,0.585-2.694,0.713c-0.874,0.129-1.485,0.109-1.834-0.06
			c-0.2-0.124-0.363-0.773-0.487-1.951c-0.125-1.174-0.213-2.614-0.263-4.317c-0.05-1.702-0.064-3.542-0.039-5.523
			c0.024-1.98,0.074-3.87,0.148-5.669c0.075-1.799,0.187-3.375,0.335-4.729C285.059,136.046,285.233,135.157,285.433,134.732z"/>
		<path fill="#FEFAD7" d="M326.74,92.639c0.149-0.954,0.673-1.648,1.571-2.084c0.898-0.435,1.846-0.588,2.845-0.462
			c0.997,0.128,1.92,0.495,2.77,1.103c0.849,0.608,1.298,1.451,1.349,2.529c0.049,1.13,0.1,2.284,0.15,3.462
			c0.05,1.179,0.1,2.235,0.151,3.163c0.049,1.13,0.099,2.184,0.15,3.162c1.695-0.779,3.192-1.383,4.491-1.814
			c1.146-0.375,2.17-0.603,3.068-0.685c0.898-0.082,1.348,0.203,1.348,0.851c0,0.699-0.437,1.458-1.31,2.279
			c-0.873,0.821-1.859,1.611-2.956,2.365c-1.298,0.879-2.745,1.764-4.342,2.657c0.101,3.306,0.201,6.512,0.303,9.618
			c0.05,2.726,0.064,5.589,0.04,8.593c-0.024,3.003-0.136,5.664-0.335,7.983c-0.249,2.338-0.635,4.128-1.157,5.37
			c-0.524,1.243-1.111,2.135-1.76,2.675s-1.322,0.855-2.021,0.939c-0.699,0.086-1.348,0.117-1.946,0.09
			c-0.299,0.013-0.574-0.409-0.823-1.265c-0.251-0.853-0.45-2.002-0.6-3.443c-0.15-1.441-0.275-3.078-0.376-4.912
			s-0.177-3.713-0.227-5.641c-0.15-4.534-0.228-9.646-0.229-15.333c-1.348,0.803-2.595,1.419-3.742,1.849
			c-0.999,0.375-1.922,0.559-2.77,0.552s-1.373-0.42-1.573-1.244c-0.149-0.643,0.163-1.382,0.936-2.223
			c0.772-0.838,1.658-1.644,2.656-2.418c1.147-0.878,2.495-1.782,4.042-2.71c0-0.399-0.001-0.798-0.001-1.197
			c0-0.349,0.012-0.715,0.037-1.099s0.038-0.699,0.038-0.95c-0.001-1.995-0.027-3.606-0.077-4.836
			c-0.05-1.228-0.075-2.255-0.076-3.078c0-0.824,0.025-1.507,0.075-2.049C326.49,93.893,326.591,93.294,326.74,92.639z"/>
		<path fill="#FEFAD7" d="M354.516,107.224c-0.05,0.518-0.101,1.384-0.148,2.599c-0.05,1.216-0.074,2.561-0.073,4.031
			c0,1.472,0.05,2.989,0.15,4.548c0.101,1.561,0.274,2.957,0.524,4.188c0.25,1.232,0.625,2.181,1.124,2.847
			c0.499,0.668,1.148,0.856,1.947,0.566c1.147-0.416,2.133-1.196,2.955-2.342c0.823-1.145,1.534-2.473,2.133-3.987
			c0.599-1.513,1.072-3.142,1.421-4.89c0.349-1.746,0.635-3.433,0.859-5.061c0.224-1.626,0.373-3.128,0.447-4.502
			c0.075-1.374,0.137-2.444,0.187-3.21c0.049-0.915,0.311-1.657,0.785-2.227c0.474-0.568,1.06-0.99,1.76-1.265
			c0.698-0.274,1.446-0.403,2.245-0.388c0.798,0.016,1.546,0.124,2.245,0.326c0.698,0.202,1.272,0.511,1.723,0.925
			c0.449,0.416,0.698,0.89,0.748,1.42c0.05,0.731,0.026,1.825-0.073,3.282c-0.1,1.458-0.187,3.085-0.26,4.882
			c-0.075,1.798-0.111,3.632-0.111,5.503c0.001,1.871,0.138,3.544,0.413,5.019c0.273,1.475,0.699,2.672,1.273,3.593
			c0.573,0.922,1.386,1.322,2.434,1.205c0.947-0.082,1.597,0.016,1.946,0.293c0.349,0.279,0.386,0.651,0.112,1.121
			c-0.275,0.47-0.823,0.949-1.646,1.436c-0.822,0.487-1.934,0.851-3.331,1.094c-2.296,0.41-4.067,0.24-5.314-0.515
			c-1.249-0.754-2.171-1.671-2.771-2.756c-0.7-1.247-1.123-2.742-1.274-4.484c-0.647,2.228-1.495,4.254-2.542,6.076
			c-0.898,1.621-2.059,3.149-3.479,4.584c-1.423,1.438-3.157,2.376-5.202,2.82c-2.047,0.446-3.73,0.4-5.054-0.139
			c-1.322-0.539-2.395-1.38-3.219-2.525c-0.823-1.145-1.437-2.503-1.835-4.078c-0.401-1.574-0.675-3.207-0.825-4.898
			c-0.15-1.341-0.226-2.711-0.226-4.109c0-1.396,0.048-2.712,0.148-3.947c0.099-1.233,0.248-2.311,0.448-3.233
			c0.199-0.921,0.423-1.552,0.673-1.895c0.299-0.359,0.923-0.863,1.871-1.511c0.947-0.647,1.933-1.17,2.956-1.57
			c1.022-0.399,1.934-0.569,2.732-0.512C354.19,105.596,354.564,106.158,354.516,107.224z"/>
		<path fill="#FEFAD7" d="M381.386,97.408c-0.55-0.107-1.048-0.108-1.497-0.001c-0.449,0.108-0.86,0.227-1.235,0.357
			c-0.374,0.131-0.698,0.208-0.973,0.229c-0.273,0.021-0.512-0.131-0.712-0.46c-0.149-0.296,0.088-0.854,0.711-1.672
			c0.625-0.818,1.46-1.609,2.507-2.374c1.048-0.766,2.22-1.336,3.518-1.711c1.297-0.375,2.545-0.294,3.743,0.241
			c1.048,0.538,1.909,1.104,2.583,1.696c0.674,0.592,1.21,1.146,1.609,1.658c0.449,0.596,0.774,1.208,0.975,1.838
			c1.395-1.821,2.843-3.434,4.34-4.836c1.297-1.234,2.742-2.367,4.34-3.398c1.597-1.03,3.193-1.583,4.791-1.659
			c0.398,0.019,0.586,0.27,0.562,0.751c-0.025,0.483-0.225,1.06-0.599,1.73c-0.374,0.673-0.887,1.366-1.534,2.077
			c-0.648,0.713-1.421,1.318-2.319,1.815c-1.747,0.98-3.132,2.191-4.154,3.632c-1.022,1.441-1.808,2.991-2.355,4.647
			c-0.55,1.658-0.897,3.347-1.047,5.069c-0.148,1.723-0.224,3.357-0.224,4.903c0.05,3.228-0.398,5.787-1.345,7.68
			c-0.948,1.894-2.221,3.163-3.816,3.809c-1.847,0.733-3.219,0.359-4.117-1.127c-0.899-1.485-1.349-4.372-1.35-8.664
			c0.048-2.711,0.072-5.065,0.072-7.061c-0.001-1.995-0.075-3.653-0.227-4.974c-0.149-1.32-0.399-2.318-0.749-2.996
			C382.533,97.933,382.033,97.532,381.386,97.408z"/>
		<path fill="#FEFAD7" d="M409.304,88.658c0.698-1.574,1.619-3.045,2.768-4.415c1.147-1.368,2.406-2.583,3.779-3.646
			c1.372-1.061,2.818-1.981,4.341-2.759c1.521-0.779,3.006-1.392,4.454-1.84c1.497-0.363,2.781-0.271,3.854,0.273
			c1.072,0.546,1.835,1.437,2.284,2.673c0.448,1.238,0.536,2.745,0.263,4.524c-0.274,1.78-1.01,3.724-2.206,5.835
			c-1.298,2.293-2.682,4.14-4.153,5.544s-2.831,2.502-4.078,3.293c-1.448,0.954-2.87,1.628-4.267,2.023
			c-0.049,1.913,0.15,3.469,0.601,4.674c0.199,0.536,0.437,1.021,0.711,1.458c0.274,0.437,0.637,0.785,1.086,1.041
			c0.45,0.258,0.998,0.371,1.647,0.341c0.647-0.028,1.396-0.25,2.245-0.666c1.797-0.86,3.255-1.971,4.378-3.339
			c1.123-1.368,2.059-2.689,2.806-3.964c0.749-1.275,1.359-2.37,1.833-3.287c0.474-0.916,0.936-1.342,1.385-1.278
			c0.548,0.086,0.835,0.624,0.861,1.614c0.024,0.991-0.213,2.234-0.71,3.73c-0.499,1.497-1.234,3.103-2.207,4.82
			c-0.973,1.716-2.207,3.302-3.704,4.759c-1.497,1.458-3.217,2.675-5.163,3.658c-1.946,0.982-4.117,1.479-6.512,1.496
			c-1.947,0.023-3.569-0.4-4.866-1.279c-1.299-0.876-2.321-2.039-3.071-3.491c-0.748-1.451-1.248-3.109-1.497-4.974
			c-0.252-1.863-0.289-3.784-0.114-5.763c0.173-1.977,0.547-3.934,1.12-5.868S408.454,90.182,409.304,88.658z M416.267,94.573
			c0.647-0.305,1.371-0.736,2.17-1.287c0.698-0.47,1.46-1.085,2.283-1.843c0.823-0.757,1.709-1.733,2.656-2.926
			c0.897-1.128,1.509-2.14,1.834-3.039c0.322-0.897,0.51-1.629,0.56-2.194c0.05-0.663-0.05-1.231-0.3-1.703
			c-0.699,0.017-1.448,0.249-2.246,0.696c-0.699,0.417-1.471,1.058-2.319,1.922c-0.849,0.865-1.721,2.089-2.618,3.67
			c-0.699,1.219-1.197,2.264-1.497,3.132c-0.299,0.869-0.498,1.569-0.598,2.099C416.091,93.731,416.116,94.223,416.267,94.573z"/>
		<path fill="#FEFAD7" d="M301.323,217.227c0.1,1.161,0.075,2.604-0.074,4.332c-0.148,1.729-0.373,3.559-0.671,5.491
			c-0.298,1.935-0.672,3.872-1.121,5.812c-0.449,1.94-0.935,3.682-1.458,5.228c-0.524,1.545-1.06,2.819-1.608,3.823
			c-0.549,1.006-1.073,1.526-1.571,1.564c-0.649,0.095-1.173-0.345-1.572-1.317c-0.401-0.972-0.738-2.205-1.012-3.698
			c-0.275-1.493-0.476-3.164-0.6-5.014c-0.125-1.849-0.225-3.619-0.301-5.312s-0.139-3.216-0.188-4.57
			c-0.051-1.353-0.101-2.294-0.15-2.825c-0.15-1.04-0.276-2.316-0.376-3.826c-0.101-1.508-0.163-3.094-0.188-4.757
			c-0.026-1.661-0.026-3.332-0.001-5.014c0.024-1.68,0.074-3.196,0.149-4.546c0.074-1.35,0.16-2.443,0.261-3.28
			c0.099-0.835,0.224-1.256,0.374-1.263c2.345-0.732,4.179-0.512,5.502,0.662c1.322,1.175,2.309,2.798,2.958,4.875
			c0.649,2.076,1.061,4.367,1.238,6.87C301.085,212.964,301.223,215.22,301.323,217.227z"/>
		<path fill="#FEFAD7" d="M327.443,199.633c0.199,0.326,0.175,0.646-0.075,0.963c-0.25,0.318-0.611,0.678-1.085,1.079
			c-0.475,0.402-1.011,0.877-1.609,1.426s-1.172,1.225-1.721,2.028c-0.549,0.804-1.01,1.751-1.385,2.84
			c-0.373,1.088-0.56,2.356-0.56,3.802c-0.05,1.467,0.287,2.737,1.012,3.812c0.723,1.077,1.61,2.055,2.658,2.935
			c1.048,0.88,2.196,1.699,3.444,2.455c1.246,0.758,2.37,1.585,3.369,2.486c0.998,0.9,1.784,1.906,2.358,3.014
			c0.574,1.109,0.762,2.4,0.563,3.87c-0.25,1.49-1.036,2.967-2.356,4.432c-1.323,1.467-2.933,2.814-4.828,4.047
			c-1.896,1.231-3.941,2.284-6.137,3.157c-2.196,0.873-4.255,1.459-6.176,1.756c-1.921,0.299-3.581,0.262-4.978-0.111
			c-1.397-0.372-2.271-1.19-2.62-2.456c-0.55-1.84-0.713-3.5-0.488-4.981c0.224-1.48,0.635-2.796,1.233-3.944
			c0.599-1.149,1.272-2.126,2.021-2.931c0.748-0.806,1.396-1.46,1.945-1.968c1.147-1.078,1.909-1.364,2.283-0.857
			c0.374,0.509,0.138,1.621-0.71,3.335c-0.4,0.851-0.499,1.673-0.299,2.471c0.199,0.798,0.661,1.448,1.385,1.95
			c0.724,0.501,1.647,0.814,2.771,0.942c1.123,0.127,2.407-0.056,3.854-0.548c0.898-0.287,1.809-0.716,2.732-1.285
			c0.923-0.57,1.684-1.203,2.282-1.901c0.6-0.698,0.961-1.408,1.085-2.127c0.124-0.721-0.139-1.383-0.786-1.99
			c-0.649-0.604-1.772-1.257-3.369-1.958c-1.599-0.699-3.232-1.52-4.903-2.466c-1.674-0.943-3.145-2.062-4.418-3.355
			c-1.273-1.292-1.91-2.837-1.911-4.633c-0.001-3.542,0.636-6.377,1.907-8.501c1.272-2.125,3.329-3.97,6.174-5.537
			c1.396-0.772,2.545-1.315,3.443-1.627c0.897-0.309,1.608-0.464,2.133-0.461c0.523,0.004,0.91,0.097,1.16,0.278
			C327.093,199.253,327.293,199.44,327.443,199.633z"/>
		<path fill="#FEFAD7" d="M383.434,198.489c-0.299,1.401-0.611,2.994-0.934,4.778c-0.325,1.785-0.748,3.59-1.271,5.42
			c-0.523,1.83-1.197,3.587-2.021,5.272c-0.822,1.685-1.883,3.105-3.18,4.26c-1.696,1.446-3.218,2.171-4.564,2.177
			c-1.349,0.004-2.584-0.478-3.706-1.45c-1.124-0.971-2.109-2.353-2.959-4.142c-0.849-1.792-1.598-3.768-2.247-5.929
			c-0.65-2.161-1.187-4.412-1.611-6.753c-0.426-2.341-0.787-4.544-1.087-6.605c-0.301-2.062-0.525-3.901-0.676-5.52
			c-0.149-1.617-0.251-2.765-0.301-3.447c-0.05-1.377-0.014-2.914,0.111-4.605c0.123-1.691,0.348-3.306,0.672-4.847
			c0.324-1.539,0.761-2.881,1.31-4.027c0.548-1.146,1.197-1.88,1.945-2.199c0.749-0.319,1.447-0.246,2.096,0.219
			c0.648,0.468,1.211,1.164,1.686,2.092c0.474,0.928,0.873,1.983,1.198,3.164c0.324,1.183,0.537,2.278,0.638,3.29
			c0.349,2.77,0.7,5.389,1.051,7.859c0.348,2.471,0.712,4.899,1.087,7.286s0.812,4.776,1.312,7.167
			c0.499,2.395,1.125,4.878,1.874,7.458c0.946-1.131,1.796-2.83,2.543-5.089c0.749-2.259,1.471-4.745,2.169-7.46
			s1.408-5.495,2.131-8.342c0.722-2.846,1.559-5.421,2.506-7.721c0.946-2.299,2.044-4.163,3.292-5.592
			c1.246-1.428,2.743-2.092,4.49-1.99c2.097,0.183,3.768,0.814,5.017,1.89c1.247,1.077,2.209,2.451,2.883,4.121
			c0.675,1.671,1.161,3.516,1.461,5.538c0.301,2.021,0.587,4.058,0.863,6.112c0.273,2.055,0.637,4.016,1.087,5.887
			c0.449,1.873,1.148,3.5,2.097,4.883c0.399-1.378,0.772-3.461,1.122-6.246c0.348-2.783,0.746-5.87,1.194-9.261
			c0.448-3.39,0.972-6.879,1.569-10.469c0.598-3.587,1.345-6.849,2.242-9.786c0.349-1.161,0.748-2.312,1.196-3.456
			c0.449-1.143,0.898-2.162,1.348-3.054c0.448-0.892,0.897-1.61,1.346-2.154c0.449-0.542,0.873-0.803,1.272-0.781
			c0.947,0.097,1.497,0.747,1.648,1.945c0.149,1.201,0.1,3.05-0.149,5.549s-0.572,5.696-0.97,9.588
			c-0.399,3.896-0.622,8.57-0.67,14.023c0.001,2.694-0.447,5.619-1.344,8.776c-0.897,3.158-2.07,6.067-3.517,8.73
			c-1.048,1.937-2.345,3.219-3.891,3.852c-1.548,0.631-3.082,0.863-4.604,0.695c-1.523-0.167-2.92-0.648-4.192-1.444
			c-1.273-0.794-2.16-1.68-2.658-2.66c-1-2.007-1.712-4.323-2.136-6.948c-0.426-2.625-0.775-5.25-1.05-7.876
			c-0.276-2.626-0.589-5.089-0.938-7.39c-0.351-2.299-0.95-4.153-1.799-5.56c-0.101-0.115-0.299,0.214-0.599,0.991
			c-0.299,0.776-0.648,1.808-1.047,3.092c-0.399,1.286-0.823,2.754-1.271,4.405c-0.449,1.651-0.886,3.274-1.309,4.867
			c-0.424,1.595-0.798,3.059-1.122,4.393C383.744,196.798,383.533,197.807,383.434,198.489z"/>
		<path fill="#FEFAD7" d="M439.865,165.946c-0.15,0.692-0.574,1.354-1.272,1.981c-0.698,0.631-1.496,1.302-2.395,2.018
			c-0.898,0.714-1.822,1.49-2.77,2.323c-0.948,0.833-1.746,1.796-2.394,2.892c-0.999,1.75-1.696,3.685-2.094,5.801
			c-0.4,2.118-0.587,4.083-0.561,5.896c0.025,1.815,0.25,3.317,0.676,4.51c0.423,1.193,0.96,1.691,1.608,1.495
			c0.798-0.242,1.634-0.87,2.508-1.88c0.872-1.011,1.657-2.105,2.356-3.287c0.698-1.181,1.272-2.348,1.721-3.503
			c0.449-1.155,0.674-2.007,0.674-2.556c-0.001-0.549-0.026-1.303-0.076-2.261c-0.05-0.958-0.038-1.922,0.037-2.893
			c0.074-0.969,0.224-1.836,0.447-2.602c0.225-0.764,0.611-1.252,1.16-1.463c0.549-0.209,1.21-0.527,1.984-0.952
			c0.772-0.424,1.508-0.662,2.208-0.713c0.697-0.05,1.259,0.275,1.684,0.977c0.424,0.703,0.587,2.066,0.487,4.09
			c-0.147,4.083,0.053,7.084,0.602,8.998c0.55,1.915,1.622,2.822,3.22,2.723c1.097-0.107,2.083-0.643,2.957-1.608
			c0.872-0.963,1.658-1.99,2.356-3.08c0.698-1.089,1.297-2.061,1.796-2.92c0.497-0.856,0.897-1.252,1.197-1.184
			c0.348,0.057,0.475,0.646,0.375,1.771c-0.101,1.125-0.474,2.461-1.122,4.007c-0.649,1.548-1.608,3.179-2.881,4.9
			c-1.271,1.721-2.906,3.231-4.901,4.538c-1.048,0.693-2.021,1.167-2.919,1.422s-1.71,0.364-2.433,0.321
			c-0.724-0.042-1.36-0.208-1.908-0.499c-0.55-0.29-1.048-0.643-1.497-1.062c-1-0.955-1.798-2.27-2.397-3.94
			c-0.499,1.346-1.196,2.599-2.095,3.763c-0.748,1.021-1.721,2.047-2.918,3.079c-1.197,1.033-2.67,1.865-4.416,2.497
			c-1.747,0.584-3.394,0.542-4.94-0.125c-1.548-0.667-2.783-1.826-3.706-3.482c-0.924-1.655-1.424-3.754-1.499-6.301
			c-0.076-2.545,0.485-5.43,1.682-8.65c0.797-2.096,1.845-3.997,3.142-5.697s2.682-3.19,4.153-4.464
			c1.472-1.275,2.943-2.32,4.416-3.139c1.472-0.818,2.794-1.424,3.967-1.823c1.172-0.396,2.12-0.588,2.845-0.578
			C439.652,165.296,439.964,165.518,439.865,165.946z"/>
		<path fill="#FEFAD7" d="M454.688,173.803c0.148-1.238,0.347-2.44,0.598-3.606c0.248-1.165,0.561-2.273,0.935-3.323
			c0.373-1.048,0.785-1.971,1.233-2.766c0.449-0.795,0.947-1.416,1.496-1.861c0.549-0.396,1.26-0.848,2.134-1.353
			c0.872-0.505,1.695-0.821,2.47-0.949c0.773-0.126,1.358,0.071,1.759,0.591c0.399,0.522,0.375,1.613-0.074,3.275
			c-0.198,0.901-0.373,2.007-0.522,3.318c-0.148,1.311-0.236,2.707-0.26,4.183c-0.026,1.479,0.013,2.942,0.113,4.387
			c0.099,1.448,0.287,2.759,0.562,3.933c0.275,1.177,0.649,2.141,1.124,2.892c0.474,0.751,1.061,1.163,1.76,1.234
			c1.447,0.131,2.694-0.232,3.742-1.092c1.047-0.858,2.021-2.021,2.919-3.488c0.348-0.635,0.771-1.2,1.271-1.695
			c0.498-0.495,0.909-0.755,1.234-0.784c0.324-0.028,0.486,0.257,0.486,0.856c0.001,0.599-0.324,1.675-0.972,3.228
			c-0.698,1.617-1.584,3.104-2.655,4.464c-1.073,1.361-2.271,2.518-3.593,3.473c-1.322,0.955-2.73,1.674-4.228,2.159
			c-1.497,0.484-2.994,0.648-4.492,0.495c-1.497-0.103-2.72-0.489-3.667-1.158c-0.949-0.668-1.686-1.703-2.209-3.109
			c-0.525-1.403-0.875-3.192-1.05-5.364C454.626,179.572,454.589,176.925,454.688,173.803z M458.049,146.172
			c0.547-1.244,1.383-2.142,2.506-2.689s2.22-0.811,3.293-0.791s1.996,0.295,2.77,0.819c0.774,0.525,1.087,1.282,0.937,2.268
			c-0.198,1.199-0.835,2.346-1.907,3.445c-1.073,1.101-2.683,1.83-4.828,2.198c-0.599,0.109-1.135,0.028-1.608-0.247
			c-0.476-0.271-0.861-0.655-1.16-1.148c-0.3-0.492-0.463-1.084-0.488-1.777C457.536,147.558,457.698,146.865,458.049,146.172z"/>
		<path fill="#FEFAD7" d="M478.777,133.354c0.149-0.934,0.673-1.557,1.571-1.869c0.898-0.31,1.846-0.333,2.845-0.065
			c0.997,0.27,1.92,0.769,2.77,1.5c0.849,0.732,1.298,1.642,1.349,2.728c0.049,1.137,0.1,2.298,0.15,3.484
			c0.05,1.186,0.1,2.25,0.151,3.185c0.049,1.137,0.099,2.198,0.15,3.185c1.695-0.53,3.192-0.906,4.491-1.139
			c1.146-0.197,2.17-0.265,3.068-0.207c0.898,0.061,1.348,0.417,1.348,1.065c0,0.7-0.438,1.389-1.31,2.07
			c-0.873,0.685-1.859,1.318-2.956,1.903c-1.298,0.681-2.745,1.346-4.342,2.002c0.101,3.321,0.201,6.541,0.303,9.662
			c0.05,2.734,0.064,5.599,0.04,8.599c-0.024,2.999-0.137,5.644-0.335,7.935c-0.249,2.301-0.635,4.033-1.157,5.198
			c-0.524,1.166-1.111,1.972-1.76,2.42c-0.648,0.447-1.322,0.665-2.021,0.65c-0.699-0.012-1.348-0.074-1.946-0.182
			c-0.299-0.03-0.574-0.49-0.823-1.379c-0.251-0.888-0.45-2.065-0.6-3.525c-0.15-1.462-0.275-3.117-0.376-4.964
			c-0.102-1.847-0.177-3.737-0.227-5.672c-0.15-4.555-0.228-9.677-0.229-15.365c-1.348,0.621-2.595,1.071-3.742,1.35
			c-0.999,0.244-1.922,0.31-2.77,0.194c-0.848-0.114-1.373-0.593-1.573-1.442c-0.149-0.661,0.163-1.362,0.936-2.105
			c0.772-0.741,1.658-1.434,2.656-2.077c1.147-0.731,2.495-1.457,4.042-2.176c0-0.399-0.001-0.798-0.001-1.197
			c0-0.349,0.012-0.713,0.037-1.094s0.038-0.695,0.038-0.945c-0.001-1.995-0.027-3.61-0.077-4.847
			c-0.05-1.235-0.075-2.266-0.076-3.088c0-0.823,0.025-1.503,0.075-2.039C478.527,134.573,478.627,133.988,478.777,133.354z"/>
		<path fill="#FEFAD7" d="M496.228,163.727c0.148-1.229,0.347-2.417,0.598-3.567c0.248-1.149,0.561-2.237,0.935-3.263
			c0.373-1.024,0.785-1.922,1.233-2.687c0.449-0.766,0.947-1.354,1.496-1.763c0.549-0.36,1.26-0.766,2.134-1.213
			c0.872-0.446,1.695-0.708,2.47-0.784c0.773-0.074,1.358,0.164,1.759,0.71c0.399,0.549,0.375,1.638-0.074,3.27
			c-0.198,0.887-0.373,1.98-0.522,3.281c-0.148,1.301-0.236,2.691-0.26,4.166c-0.026,1.478,0.013,2.943,0.113,4.394
			c0.099,1.454,0.287,2.778,0.562,3.972c0.275,1.195,0.649,2.185,1.124,2.968c0.474,0.783,1.061,1.234,1.76,1.354
			c1.447,0.232,2.694-0.046,3.742-0.831c1.047-0.786,2.021-1.88,2.919-3.284c0.348-0.609,0.771-1.144,1.271-1.603
			c0.498-0.458,0.909-0.69,1.234-0.696c0.324-0.005,0.486,0.292,0.486,0.891c0.001,0.599-0.324,1.651-0.972,3.158
			c-0.698,1.567-1.584,2.991-2.655,4.274c-1.073,1.286-2.271,2.359-3.593,3.221c-1.322,0.863-2.73,1.485-4.228,1.869
			c-1.497,0.381-2.994,0.446-4.492,0.193c-1.497-0.204-2.72-0.668-3.667-1.399c-0.949-0.73-1.686-1.812-2.209-3.251
			c-0.525-1.437-0.875-3.248-1.05-5.432C496.165,169.492,496.128,166.842,496.228,163.727z M499.588,136.312
			c0.547-1.208,1.383-2.051,2.506-2.525c1.123-0.472,2.22-0.663,3.293-0.572c1.073,0.092,1.996,0.43,2.77,1.007
			c0.774,0.577,1.087,1.356,0.937,2.331c-0.198,1.186-0.835,2.29-1.907,3.317c-1.073,1.027-2.683,1.648-4.828,1.874
			c-0.599,0.069-1.135-0.046-1.608-0.352c-0.476-0.303-0.861-0.712-1.16-1.226c-0.3-0.511-0.463-1.114-0.488-1.809
			C499.075,137.665,499.237,136.982,499.588,136.312z"/>
		<path fill="#FEFAD7" d="M516.432,152.15c0.3-0.55,0.735-1.086,1.31-1.609c0.573-0.522,1.172-0.997,1.797-1.426
			c0.622-0.427,1.245-0.779,1.87-1.056c0.623-0.278,1.135-0.447,1.534-0.511c0.199-0.032,0.361,0.142,0.486,0.521
			c0.125,0.38,0.25,0.884,0.376,1.512c0.124,0.63,0.211,1.352,0.263,2.167c0.049,0.815,0.1,1.645,0.149,2.484
			c0.101,1.98,0.126,4.247,0.077,6.798c0.647-1.4,1.346-2.781,2.095-4.143c0.647-1.147,1.396-2.347,2.244-3.596
			c0.848-1.25,1.722-2.337,2.619-3.264c0.848-0.872,1.783-1.576,2.807-2.117c1.022-0.541,2.059-0.843,3.106-0.905
			c1.048-0.064,2.058,0.194,3.031,0.771c0.973,0.578,1.834,1.52,2.583,2.827c0.498,0.889,0.873,2.029,1.124,3.422
			c0.249,1.394,0.437,2.869,0.562,4.426c0.125,1.558,0.25,3.128,0.377,4.709c0.124,1.583,0.349,3.027,0.674,4.338
			c0.325,1.311,0.774,2.408,1.349,3.292c0.573,0.885,1.41,1.391,2.509,1.524c0.897,0.156,1.783,0.077,2.656-0.235
			c0.873-0.311,1.696-0.689,2.47-1.136c0.772-0.448,1.446-0.833,2.021-1.159c0.573-0.325,0.984-0.424,1.235-0.295
			c0.198,0.182,0.086,0.741-0.336,1.676c-0.425,0.936-1.123,1.921-2.096,2.958c-0.973,1.038-2.195,1.964-3.667,2.786
			c-1.473,0.821-3.156,1.209-5.052,1.172c-3.742-0.081-6.438-1.672-8.085-4.83c-1.647-3.155-2.598-7.43-2.848-12.835
			c-0.102-1.933-0.338-3.348-0.713-4.246c-0.375-0.895-0.861-1.328-1.46-1.295c-0.599,0.034-1.285,0.468-2.059,1.302
			c-0.774,0.834-1.608,1.991-2.506,3.471c-1.047,1.703-1.821,3.368-2.318,4.991c-0.5,1.623-0.837,3.122-1.01,4.496
			c-0.176,1.375-0.287,2.589-0.336,3.645c-0.05,1.056-0.175,1.85-0.373,2.378c-0.25,0.59-0.774,1.046-1.572,1.372
			c-0.799,0.326-1.659,0.565-2.582,0.717c-0.924,0.152-1.822,0.202-2.694,0.152c-0.874-0.051-1.485-0.195-1.834-0.435
			c-0.2-0.164-0.363-0.847-0.487-2.048c-0.125-1.201-0.214-2.657-0.263-4.37c-0.052-1.713-0.064-3.556-0.04-5.532
			c0.024-1.975,0.074-3.854,0.148-5.639c0.074-1.783,0.186-3.338,0.336-4.662C516.059,153.388,516.231,152.534,516.432,152.15z"/>
		<path fill="#FEFAD7" d="M585.597,163.938c1.098-0.471,1.946-0.683,2.545-0.642c0.599,0.041,0.974,0.225,1.123,0.547
			c0.149,0.324,0.086,0.735-0.188,1.237c-0.274,0.502-0.71,0.981-1.309,1.439c-0.499,0.358-1.111,0.841-1.834,1.454
			c-0.724,0.612-1.473,1.266-2.244,1.958c-0.774,0.693-1.522,1.375-2.245,2.046c-0.725,0.672-1.335,1.215-1.833,1.632
			c0.349,2.333,0.549,4.708,0.601,7.127c0.051,2.418-0.1,4.743-0.447,6.976c-0.349,2.232-0.923,4.299-1.72,6.202
			c-0.799,1.902-1.87,3.48-3.218,4.742c-1.896,1.784-3.815,2.86-5.762,3.228c-1.946,0.368-3.668,0.16-5.165-0.629
			c-1.496-0.789-2.671-2.08-3.519-3.883c-0.85-1.804-1.1-3.99-0.75-6.563c0.397-2.628,1.207-4.991,2.43-7.081
			c1.222-2.089,2.506-3.854,3.854-5.294c1.597-1.706,3.316-3.185,5.163-4.436c-0.05-0.397-0.15-0.939-0.3-1.629
			c-0.101-0.594-0.275-1.344-0.524-2.253c-0.251-0.909-0.575-2.074-0.974-3.499c-0.251-0.833-0.562-1.624-0.937-2.376
			c-0.374-0.748-0.738-1.386-1.087-1.914c-0.448-0.618-0.873-1.165-1.272-1.637c-0.798,0.952-1.622,1.81-2.47,2.57
			c-0.698,0.65-1.472,1.245-2.319,1.787c-0.849,0.541-1.646,0.843-2.395,0.906c-0.799,0.068-1.697-0.277-2.695-1.036
			c-0.999-0.758-1.885-1.796-2.657-3.12c-0.775-1.322-1.374-2.86-1.799-4.614c-0.425-1.753-0.487-3.591-0.188-5.519
			c0.347-1.932,0.796-3.498,1.345-4.7c0.549-1.201,1.147-2.169,1.796-2.904c0.647-0.734,1.347-1.286,2.096-1.651
			c0.748-0.366,1.496-0.657,2.245-0.869c1.097-0.291,2.407-0.247,3.93,0.136c1.521,0.385,2.968,0.921,4.341,1.604
			c1.373,0.685,2.546,1.414,3.519,2.182c0.974,0.768,1.436,1.38,1.386,1.832c-0.05,0.452-0.587,0.643-1.609,0.577
			s-2.196-0.159-3.518-0.271c-1.321-0.112-2.619-0.121-3.892-0.026s-2.159,0.566-2.657,1.404c-0.5,0.839-0.897,1.82-1.196,2.942
			c-0.3,1.123-0.486,2.237-0.561,3.34c-0.075,1.104-0.013,2.109,0.188,3.016c0.199,0.907,0.573,1.561,1.123,1.966
			c0.3,0.225,0.711,0.104,1.235-0.361c0.523-0.466,1.134-1.037,1.833-1.713c0.698-0.675,1.471-1.329,2.319-1.963
			c0.849-0.632,1.759-1.042,2.732-1.229c0.974-0.185,1.983,0.004,3.031,0.569s2.121,1.72,3.22,3.463
			c0.648,1.016,1.335,2.195,2.059,3.536c0.724,1.342,1.36,3.275,1.911,5.798c1.297-0.847,2.519-1.648,3.666-2.407
			C583.151,165.179,584.35,164.514,585.597,163.938z M570.187,192.013c0.299-0.866,0.486-1.961,0.56-3.288
			c0.075-1.326,0.111-2.638,0.111-3.936c-0.05-1.494-0.127-3.062-0.226-4.702c-1.048,0.958-1.972,1.961-2.769,3.01
			c-0.699,0.893-1.31,1.93-1.833,3.114c-0.523,1.183-0.735,2.419-0.636,3.711c0.101,1.239,0.376,2.131,0.824,2.676
			c0.449,0.543,0.937,0.836,1.461,0.878c0.523,0.04,1.022-0.091,1.496-0.393C569.649,192.78,569.986,192.424,570.187,192.013z"/>
		<path fill="#FEFAD7" d="M592.621,123.066c0.498,0.698,0.772,1.472,0.823,2.319c0.05,0.849,0.001,1.734-0.148,2.657
			c-0.15,0.924-0.324,1.847-0.523,2.77c-0.2,0.924-0.298,1.809-0.298,2.657c0,1.248,0.125,2.708,0.375,4.378
			c0.25,1.672,0.424,3.368,0.525,5.089c0.1,1.722,0.013,3.38-0.261,4.978c-0.273,1.599-0.935,2.945-1.982,4.049
			c-0.2,0.152-0.449,0.503-0.747,1.054c-0.3,0.551-0.612,1.053-0.937,1.504c-0.324,0.453-0.673,0.732-1.048,0.835
			c-0.374,0.106-0.736-0.212-1.085-0.956c-0.748-1.234-1.211-2.573-1.386-4.018c-0.176-1.443-0.313-2.862-0.412-4.258
			c-0.151-2.043-0.352-4.122-0.602-6.237c-0.251-2.114-0.438-4.243-0.562-6.386c-0.126-2.143-0.114-4.276,0.035-6.4
			c0.148-2.124,0.522-4.216,1.121-6.275c0.299-0.705,0.772-1.075,1.422-1.111c0.647-0.036,1.334,0.116,2.059,0.457
			c0.723,0.341,1.422,0.797,2.096,1.366S592.271,122.618,592.621,123.066z M587.693,166.521c0.898,0.237,1.746,0.738,2.545,1.505
			c0.798,0.767,1.148,1.652,1.049,2.65c0,1.148-0.486,1.822-1.458,2.031c-0.974,0.208-2.059,0.048-3.257-0.479
			c-0.699-0.186-1.198-0.613-1.497-1.281c-0.3-0.667-0.412-1.349-0.338-2.05c0.075-0.7,0.361-1.306,0.86-1.815
			C586.096,166.574,586.796,166.384,587.693,166.521z"/>
	</g>
</g>
</svg>
