<?xml version="1.0" encoding="utf-8"?>
<!-- Generator: Adobe Illustrator 14.0.0, SVG Export Plug-In . SVG Version: 6.00 Build 43363)  -->
<!DOCTYPE svg PUBLIC "-//W3C//DTD SVG 1.1 Basic//EN" "http://www.w3.org/Graphics/SVG/1.1/DTD/svg11-basic.dtd">
<svg version="1.1" baseProfile="basic" id="Layer_1"
	 xmlns="http://www.w3.org/2000/svg" xmlns:xlink="http://www.w3.org/1999/xlink" x="0px" y="0px" viewBox="0 0 432 154.5" xml:space="preserve">
<rect display="none" fill-rule="evenodd" clip-rule="evenodd" fill="#29315F" width="432" height="216"/>
<g>
	<g>
		<path fill="#FFFCD5" d="M174.8,91.3c0.2,0.7,0.3,1.5,0.4,2.2c0.1,0.8,0.1,1.5-0.1,2.3c-0.3,0.5-0.8,0.8-1.4,0.9
			c-0.6,0.1-1.3,0.1-1.9,0c-0.7-0.1-1.3-0.3-2-0.6c-0.6-0.3-1.1-0.5-1.5-0.8c-0.7-2-1.2-4.1-1.5-6.2c-0.3-2.2-0.4-4.3-0.5-6.5
			c0-2.2,0-4.3,0.1-6.4c0.1-2.1,0.3-4.1,0.5-6c0.1-1.4,0.3-2.9,0.8-4.4c0.4-1.6,1-3.1,1.7-4.5c0.7-1.4,1.5-2.8,2.5-4
			c1-1.2,2.1-2.2,3.3-2.8c1.2-0.7,2.6-1,4.1-1.1c1.5,0,3.1,0.4,4.8,1.3c1.7,0.9,2.8,2,3.4,3.4c0.5,1.4,0.6,2.9,0.3,4.5
			c-0.3,1.6-1,3.2-2,4.9c-1,1.7-2.2,3.2-3.5,4.6c-1.3,1.4-2.7,2.6-4.2,3.5c-1.5,0.9-2.9,1.5-4.2,1.7c-0.1,2.3-0.1,4.7,0,7
			C174.1,86.6,174.3,89,174.8,91.3z M183.4,57.5c-1.6,0-2.9,0.4-4.1,1.2c-1.1,0.9-2.1,1.9-2.8,3.1c-0.7,1.2-1.3,2.5-1.6,3.9
			c-0.3,1.4-0.5,2.5-0.4,3.4c0.1,0,0.4-0.2,1-0.6c0.6-0.3,1.3-0.7,2.1-1.3c0.8-0.5,1.7-1.1,2.5-1.8c0.9-0.7,1.6-1.5,2.3-2.3
			c0.6-0.8,1.1-1.7,1.3-2.7C184,59.5,183.9,58.5,183.4,57.5z"/>
		<path fill="#FFFCD5" d="M196.3,72.9c0,0.4-0.1,1.1-0.1,2.1c0,1-0.1,2.1-0.1,3.3c0,1.2,0,2.5,0.1,3.8c0.1,1.3,0.2,2.5,0.4,3.6
			c0.2,1.1,0.5,2,0.9,2.7c0.4,0.7,0.9,1,1.6,1c0.9,0,1.7-0.3,2.4-1c0.7-0.7,1.3-1.6,1.7-2.6c0.5-1.1,0.9-2.3,1.2-3.6
			c0.3-1.3,0.5-2.6,0.7-3.9c0.2-1.3,0.3-2.4,0.4-3.6s0.1-2,0.2-2.6c0-0.7,0.3-1.3,0.6-1.6c0.4-0.3,0.9-0.5,1.4-0.5
			c0.6,0,1.2,0.1,1.8,0.3c0.7,0.2,1.3,0.6,1.8,0.9c0.6,0.4,1,0.8,1.4,1.3c0.4,0.5,0.6,0.9,0.6,1.4c0,0.6,0,1.5-0.1,2.7
			c-0.1,1.2-0.2,2.5-0.2,3.9c-0.1,1.4-0.1,2.9-0.1,4.5c0,1.5,0.1,2.9,0.3,4.2c0.2,1.3,0.6,2.4,1,3.3c0.5,0.9,1.1,1.5,2,1.7
			c0.8,0.2,1.3,0.5,1.6,0.8c0.3,0.3,0.3,0.6,0.1,0.9s-0.7,0.5-1.3,0.7c-0.7,0.2-1.6,0.1-2.7-0.1c-1.9-0.3-3.3-1-4.3-2
			c-1-1-1.8-2-2.3-3.1c-0.6-1.2-0.9-2.6-1-4c-0.5,1.6-1.2,3-2.1,4.2c-0.7,1.1-1.7,2-2.8,2.7c-1.2,0.8-2.6,1-4.3,0.8
			c-1.7-0.2-3.1-0.8-4.1-1.6c-1.1-0.8-2-1.8-2.6-3c-0.7-1.2-1.2-2.5-1.5-3.9c-0.3-1.4-0.6-2.8-0.7-4.3c-0.1-1.1-0.2-2.3-0.2-3.4
			c0-1.1,0-2.2,0.1-3.2c0.1-1,0.2-1.8,0.4-2.5c0.2-0.7,0.3-1.1,0.6-1.3c0.2-0.2,0.8-0.4,1.5-0.7c0.8-0.2,1.6-0.4,2.4-0.4
			c0.8,0,1.6,0.1,2.2,0.4C196.1,71.5,196.4,72.1,196.3,72.9z"/>
		<path fill="#FFFCD5" d="M218.3,72.7c-0.4-0.2-0.9-0.4-1.2-0.4c-0.4,0-0.7-0.1-1-0.1s-0.6,0-0.8-0.1c-0.2-0.1-0.4-0.3-0.6-0.6
			c-0.1-0.3,0.1-0.7,0.6-1.2c0.5-0.5,1.2-0.9,2.1-1.2c0.9-0.3,1.8-0.5,2.9-0.4c1.1,0.1,2.1,0.5,3.1,1.3c0.9,0.7,1.6,1.4,2.1,2.1
			c0.6,0.7,1,1.3,1.3,1.8c0.4,0.6,0.6,1.2,0.8,1.8c1.1-1.1,2.3-2,3.6-2.8c1.1-0.7,2.2-1.2,3.6-1.6c1.3-0.4,2.6-0.4,3.9-0.1
			c0.3,0.1,0.5,0.4,0.5,0.8c0,0.4-0.2,0.8-0.5,1.3c-0.3,0.4-0.7,0.9-1.3,1.3c-0.5,0.4-1.2,0.7-1.9,0.9c-1.4,0.3-2.6,0.9-3.4,1.8
			c-0.8,0.9-1.5,1.9-1.9,3.2c-0.4,1.2-0.7,2.5-0.9,3.9c-0.1,1.4-0.2,2.7-0.2,3.9c0,2.7-0.3,4.6-1.1,5.9s-1.8,2-3.1,2.1
			c-1.5,0.1-2.6-0.6-3.4-2.1c-0.7-1.5-1.1-4-1.1-7.5c0-2.2,0.1-4.1,0.1-5.8c0-1.6-0.1-3-0.2-4.1c-0.1-1.1-0.3-2-0.6-2.7
			C219.2,73.5,218.8,73,218.3,72.7z"/>
		<path fill="#FFFCD5" d="M241.1,73.3c0.6-1.1,1.3-2.1,2.3-2.9c0.9-0.8,2-1.5,3.1-2c1.1-0.5,2.3-0.9,3.6-1.1
			c1.2-0.2,2.5-0.4,3.6-0.4c1.2,0.1,2.3,0.5,3.2,1.2c0.9,0.7,1.5,1.6,1.9,2.8c0.4,1.1,0.4,2.4,0.2,3.8c-0.2,1.4-0.8,2.8-1.8,4.2
			c-1.1,1.6-2.2,2.7-3.4,3.5c-1.2,0.8-2.3,1.3-3.3,1.7c-1.2,0.4-2.3,0.6-3.5,0.6c0,1.6,0.1,2.9,0.5,4c0.2,0.5,0.4,0.9,0.6,1.4
			c0.2,0.4,0.5,0.8,0.9,1.1c0.4,0.3,0.8,0.6,1.3,0.7c0.5,0.1,1.1,0.2,1.8,0c1.5-0.2,2.7-0.8,3.6-1.6c0.9-0.8,1.7-1.7,2.3-2.5
			c0.6-0.9,1.1-1.6,1.5-2.2c0.4-0.6,0.8-0.9,1.1-0.7c0.4,0.2,0.7,0.7,0.7,1.5c0,0.8-0.2,1.8-0.6,2.9c-0.4,1.1-1,2.2-1.8,3.4
			c-0.8,1.2-1.8,2.2-3,3c-1.2,0.8-2.6,1.4-4.2,1.7s-3.4,0.2-5.3-0.5c-1.6-0.5-2.9-1.3-4-2.3c-1.1-1.1-1.9-2.3-2.5-3.7
			c-0.6-1.4-1-2.9-1.2-4.5c-0.2-1.6-0.2-3.2-0.1-4.7c0.1-1.6,0.4-3.1,0.9-4.5C239.9,75.5,240.4,74.3,241.1,73.3z M246.8,80
			c0.5-0.1,1.1-0.2,1.8-0.5c0.6-0.2,1.2-0.5,1.9-0.9c0.7-0.4,1.4-1,2.2-1.7c0.7-0.7,1.2-1.4,1.5-2c0.3-0.7,0.4-1.2,0.5-1.7
			c0-0.5,0-1-0.2-1.5c-0.6-0.2-1.2-0.2-1.8,0c-0.6,0.2-1.2,0.5-1.9,1c-0.7,0.5-1.4,1.3-2.1,2.3c-0.6,0.8-1,1.5-1.2,2.2
			c-0.2,0.6-0.4,1.2-0.5,1.6C246.7,79.2,246.7,79.6,246.8,80z"/>
	</g>
	<g>
		<path fill="#FFCB05" d="M302.9,105.1c-0.5,0.1-0.9,0-1.2-0.3c-0.3-0.3-0.5-0.6-0.7-1c-0.2-0.4-0.3-0.9-0.3-1.4
			c0-0.5-0.1-1-0.1-1.4c0-0.4-0.1-1.2-0.2-2.5c-0.1-1.2-0.3-2.7-0.5-4.4c-0.2-1.7-0.6-3.5-1-5.4c-0.5-1.9-1-3.7-1.8-5.4
			c-0.2-0.3-1-0.4-2.4-0.2c-1.4,0.2-3.2,0.3-5.4,0.3c-0.7,0-1.4,0-2.1,0c-0.7,0.1-1.3,0.1-1.8,0.2c-0.5,0.1-1,0.2-1.3,0.2
			c-0.3,0.1-0.5,0.1-0.5,0.2c0,0.5-0.1,1.2-0.2,2.1c-0.1,0.8-0.2,1.7-0.3,2.7c-0.1,0.9-0.3,1.9-0.6,2.8c-0.3,0.9-0.6,1.8-1.1,2.5
			c-0.4,0.7-1,1.3-1.7,1.8c-0.7,0.4-1.4,0.6-2.4,0.6c-0.6,0-1.1-0.7-1.3-1.8c-0.3-1.2-0.5-2.5-0.6-4c-0.1-1.5-0.1-2.9-0.1-4.3
			c0-1.4,0.1-2.3,0.1-2.7c-2.2-0.3-3.8-0.7-4.6-1.2s-1.1-1-0.8-1.5c0.2-0.5,0.9-1,2-1.4c1.1-0.4,2.4-0.8,4-1.1
			c0.2-1.5,0.3-3.3,0.6-5.5c0.2-2.2,0.5-4.4,0.9-6.7c0.4-2.3,1-4.4,1.8-6.5c0.8-2,1.8-3.6,3.1-4.7c0.7-0.5,1.6-0.7,2.7-0.6
			c1.1,0.2,2.3,0.6,3.5,1.3c1.2,0.7,2.4,1.6,3.5,2.7c1.1,1.1,2.1,2.3,2.9,3.7c0.5,0.9,1,2.1,1.6,3.5c0.6,1.4,1.1,2.9,1.6,4.4
			c0.5,1.5,1,2.9,1.4,4.1c0.4,1.3,0.8,2.2,1.1,2.8c0.1,0.2,0.4,0.2,1,0.2c0.6,0,1.2,0,1.9,0c0.7,0,1.3,0.2,1.9,0.4
			c0.6,0.2,0.9,0.7,0.9,1.5c0,0.6-0.2,1.2-0.7,1.6c-0.5,0.5-1.1,0.9-1.7,1.2c-0.6,0.3-1.2,0.5-1.7,0.7c-0.5,0.2-0.8,0.3-0.8,0.3
			c0.5,2.6,1,5.2,1.4,7.7c0.4,2.6,0.8,4.9,1,7c0.2,2.1,0.2,3.8,0.1,5.2C304,104.1,303.6,104.8,302.9,105.1z M286,60
			c-0.4,0.3-0.7,0.8-1,1.6c-0.2,0.8-0.4,1.7-0.6,2.8c-0.1,1.1-0.2,2.3-0.3,3.6s-0.1,2.6-0.1,3.8c0,1.2,0,2.4,0,3.5c0,1.1,0,2,0,2.7
			c0.2,0,0.6,0.1,1.2,0.1c0.7,0,1.4,0,2.2,0c0.8,0,1.7-0.1,2.7-0.1c0.9-0.1,1.8-0.1,2.6-0.2c0.8-0.1,1.4-0.2,1.9-0.2
			c0.5-0.1,0.7-0.2,0.7-0.2c-0.1-0.6-0.3-1.4-0.7-2.6c-0.4-1.1-0.8-2.4-1.4-3.8c-0.6-1.4-1.2-2.8-1.8-4.2s-1.3-2.7-2-3.7
			c-0.7-1.1-1.3-1.9-2-2.5C287,59.9,286.4,59.7,286,60z"/>
		<path fill="#FFCB05" d="M327.8,59.6c-0.2,1.8-0.5,3.6-0.9,5.3c-0.4,1.7-0.9,3.3-1.4,4.8c-0.6,1.5-1.2,2.9-1.8,4.3s-1.3,2.6-2,3.7
			c-1.6,2.6-3.3,5-5.1,7.1c0,0.3,0.1,0.7,0.2,1.1c0.1,0.4,0.2,0.9,0.5,1.5c0.2,0.6,0.6,1.3,1.2,2.1c1.1,1.7,2.2,2.8,3.5,3.2
			c1.3,0.4,2.5,0.5,3.7,0.1c1.2-0.3,2.3-1,3.2-1.8c0.9-0.9,1.5-1.8,1.8-2.7c0.3-0.9,0.7-1.6,1-1.8c0.3-0.3,0.6-0.4,0.9-0.2
			c0.3,0.1,0.5,0.4,0.6,0.9c0.1,0.4,0.2,0.9,0.2,1.5c-0.7,1.8-1.6,3.4-2.6,4.8c-0.4,0.6-1,1.2-1.6,1.8c-0.6,0.6-1.3,1.1-2,1.5
			c-0.7,0.4-1.5,0.8-2.4,1.1c-0.9,0.3-1.8,0.4-2.8,0.3c-2.6,0-4.8-0.7-6.5-1.9c-1.7-1.2-3.1-2.8-4.2-4.7c-1.1-1.9-1.8-4.1-2.3-6.5
			c-0.5-2.4-0.7-4.9-0.8-7.4c-0.1-2.5,0-4.9,0.3-7.2c0.3-2.3,0.6-4.3,0.9-6c0.4-1.8,0.9-3.6,1.6-5.3c0.7-1.8,1.5-3.3,2.5-4.7
			c1-1.3,2.2-2.4,3.6-3.2c1.4-0.8,3-1.1,4.8-0.9c1.3,0.2,2.5,0.7,3.5,1.4c0.8,0.6,1.5,1.5,2.1,2.8C328,55.8,328.1,57.5,327.8,59.6z
			 M316,79.3c1.1-1.8,2-3.6,2.9-5.4c0.8-1.6,1.5-3.3,2.3-5.2c0.7-1.9,1.3-3.8,1.6-5.6c0.2-0.9,0.3-1.8,0.5-2.8
			c0.1-0.9,0.2-1.8,0.2-2.6c0-0.8-0.2-1.5-0.5-2c-0.3-0.6-0.8-0.9-1.4-0.9c-0.9-0.1-1.6,0.2-2.3,0.9c-0.7,0.7-1.2,1.6-1.7,2.8
			c-0.5,1.2-0.8,2.6-1.1,4.3c-0.3,1.7-0.5,3.4-0.6,5.3c-0.1,1.9-0.2,3.8-0.1,5.7C315.8,75.7,315.9,77.5,316,79.3z"/>
		<path fill="#FFCB05" d="M344.6,71.8c1.9,1.1,3.3,2.5,4.3,4.2c1,1.7,1.7,3.4,2,5.2c0.3,1.8,0.3,3.6-0.2,5.4
			c-0.4,1.8-1.1,3.4-2.1,4.9c-1,1.4-2.2,2.6-3.6,3.6c-1.5,0.9-3.1,1.4-5,1.5c-2.4,0-4.4-0.5-6-1.6c-1.6-1.1-2.8-2.5-3.7-4.1
			c-0.9-1.7-1.4-3.5-1.5-5.5c-0.1-2,0.1-3.8,0.6-5.6c0.6-1.7,1.5-3.2,2.8-4.4c1.3-1.2,2.9-1.9,4.9-2c1.8-0.1,3.1-0.3,3.9-0.6
			c0.8-0.3,1.4-0.5,1.8-0.7c0.4-0.2,0.6-0.4,0.8-0.5C343.8,71.5,344.1,71.6,344.6,71.8z M337.4,77.1c-0.2,0.2-0.5,0.8-0.6,1.8
			c-0.2,0.9-0.3,2-0.3,3.3c-0.1,1.3-0.1,2.6,0,4c0.1,1.4,0.2,2.7,0.5,3.8c0.2,1.1,0.5,2.1,0.9,2.8s0.9,1.1,1.5,1
			c0.6-0.1,1.1-0.5,1.7-1.1c0.5-0.7,1-1.5,1.4-2.5c0.4-1,0.8-2.1,1-3.3c0.3-1.2,0.4-2.4,0.5-3.5c0.1-1.1,0-2.2-0.2-3.1
			c-0.2-0.9-0.6-1.7-1-2.1c-1.1-1.2-2.1-1.8-2.9-1.9C339,76,338.2,76.4,337.4,77.1z"/>
		<path fill="#FFCB05" d="M354.7,89.9c0-1.3-0.1-3.2-0.1-5.6c0-2.4-0.1-5,0-7.9c0-2.9,0.1-5.8,0.2-8.8c0.1-3,0.2-5.7,0.5-8.2
			c0.2-2.5,0.5-4.6,0.9-6.2c0.4-1.7,0.9-2.6,1.6-2.9c1.1-0.4,2.3-0.4,3.4-0.1c1.1,0.4,2.1,0.9,3,1.7c0.9,0.8,1.6,1.6,2.2,2.6
			c0.6,1,0.9,1.8,1,2.6c0.4,2.5,0.5,4.8,0,6.9c-0.4,2-1,3.9-1.8,5.6c-0.8,1.7-1.6,3.3-2.4,4.7c-0.9,1.4-1.5,2.8-1.8,4.2
			c1-1.8,2.2-3.4,3.4-4.7c0.5-0.5,1.1-1,1.7-1.5c0.6-0.4,1.3-0.8,2-1c0.7-0.2,1.4-0.4,2.1-0.4c0.7,0,1.5,0.2,2.3,0.6
			c1.3,0.7,2.2,1.6,2.9,2.8c0.7,1.2,1.2,2.6,1.5,4c0.3,1.5,0.5,3.1,0.6,4.7c0.1,1.6,0.2,3.2,0.3,4.7c0.1,1.5,0.3,2.9,0.5,4.2
			s0.7,2.3,1.3,3.1c0.9,1.1,1.8,1.9,2.4,2.3c0.7,0.4,1.3,0.7,1.8,0.8c0.5,0.1,0.9,0.1,1.2,0.1c0.3,0,0.5,0.1,0.7,0.2
			c0.1,0.1,0.2,0.3,0.3,0.4c0.1,0.1,0.1,0.3,0,0.4c-0.1,0.1-0.2,0.3-0.5,0.5s-0.7,0.4-1.3,0.6c-1.1,0.4-2.5,0.4-4.3,0.2
			c-1.7-0.3-3.6-1.1-5.5-2.5c-1-0.7-1.7-1.7-2.2-2.9c-0.5-1.3-0.9-2.6-1.2-4.1c-0.3-1.5-0.5-3-0.6-4.5c-0.1-1.5-0.3-2.9-0.5-4.2
			c-0.2-1.3-0.5-2.3-0.9-3.1c-0.4-0.8-0.9-1.2-1.7-1.3c-0.7,0-1.4,0.2-2,0.8c-0.6,0.6-1.1,1.4-1.5,2.4c-0.4,1-0.7,2.1-1,3.4
			c-0.3,1.3-0.5,2.5-0.6,3.7c-0.2,1.2-0.3,2.4-0.4,3.5c-0.1,1.1-0.1,2-0.2,2.6c0,1-0.3,1.7-0.7,2.1c-0.5,0.4-1,0.6-1.6,0.6
			s-1.2-0.1-1.9-0.4s-1.2-0.5-1.6-0.8c-0.4-0.3-0.8-0.8-1-1.5c-0.2-0.7-0.3-1.3-0.4-2C354.7,91.6,354.7,90.8,354.7,89.9z M362.2,68
			c0.4-1.5,0.8-3.1,1.1-4.7c0.3-1.6,0.5-3.1,0.4-4.3c-0.1-1.2-0.2-2.3-0.5-3.2c-0.2-0.9-0.5-1.5-0.9-1.8c-0.3-0.3-0.7-0.3-1,0.2
			c-0.3,0.4-0.6,1.3-0.8,2.6c-0.2,1.3-0.3,3-0.4,4.9c0,1.9,0,3.7,0,5.4c0.1,1.7,0.2,3.8,0.3,6.2C361.2,71.3,361.8,69.5,362.2,68z"/>
		<path fill="#FFCB05" d="M399,70.8c-0.1,0.5-0.5,1-1,1.3c-0.6,0.3-1.2,0.7-2,1.1c-0.7,0.4-1.5,0.8-2.3,1.2c-0.8,0.4-1.4,1-2,1.8
			c-0.8,1.2-1.4,2.6-1.7,4.2c-0.3,1.6-0.5,3.2-0.5,4.7c0,1.5,0.2,2.8,0.6,3.9c0.3,1.1,0.8,1.6,1.3,1.6c0.7,0,1.3-0.3,2.1-0.9
			c0.7-0.6,1.4-1.3,1.9-2.1c0.6-0.8,1-1.6,1.4-2.4c0.4-0.8,0.6-1.5,0.6-1.9c0-0.4,0-1.1-0.1-1.9s0-1.6,0-2.4c0.1-0.8,0.2-1.4,0.4-2
			c0.2-0.6,0.5-0.9,0.9-0.9c0.4,0,1-0.1,1.6-0.3c0.6-0.2,1.2-0.2,1.8-0.1c0.6,0.1,1,0.5,1.4,1.2s0.5,1.8,0.4,3.5
			c-0.1,3.3,0,5.8,0.5,7.5c0.4,1.7,1.3,2.7,2.6,3c0.9,0.2,1.7-0.1,2.4-0.6c0.7-0.6,1.4-1.3,1.9-2c0.6-0.7,1.1-1.4,1.5-2
			c0.4-0.6,0.7-0.8,1-0.7c0.3,0.1,0.4,0.6,0.3,1.5c-0.1,0.9-0.4,1.9-0.9,3c-0.5,1.1-1.3,2.2-2.4,3.4c-1,1.1-2.4,2-4,2.6
			c-0.9,0.3-1.7,0.5-2.4,0.5s-1.4-0.1-2-0.3c-0.6-0.2-1.1-0.5-1.6-0.9c-0.4-0.4-0.9-0.8-1.2-1.2c-0.8-1-1.5-2.3-2-3.8
			c-0.4,1-1,1.8-1.7,2.6c-0.6,0.7-1.4,1.3-2.4,1.8c-1,0.6-2.2,0.9-3.6,0.9c-1.4,0-2.8-0.4-4-1.3c-1.3-0.9-2.3-2.2-3-3.8
			c-0.8-1.6-1.2-3.4-1.2-5.5c-0.1-2.1,0.4-4.3,1.4-6.6c0.7-1.5,1.5-2.8,2.6-3.9c1.1-1.1,2.2-1.9,3.4-2.6c1.2-0.7,2.4-1.2,3.6-1.5
			c1.2-0.3,2.3-0.5,3.2-0.5c1,0,1.7,0,2.3,0.2C398.8,70.2,399.1,70.4,399,70.8z"/>
	</g>
	<g>
		<path fill="#FFFFFF" d="M168.3,112.5c0.3-0.8,0.7-1.5,1.2-2c0.5-0.6,1.1-1,1.9-1.4c0.7-0.3,1.6-0.5,2.5-0.5c0.9,0,1.8,0.2,2.5,0.5
			c0.7,0.3,1.4,0.8,1.9,1.4c0.5,0.6,0.9,1.3,1.2,2c0.3,0.8,0.4,1.6,0.4,2.5c0,0.9-0.1,1.7-0.4,2.5c-0.3,0.8-0.7,1.4-1.2,2
			c-0.5,0.6-1.1,1-1.9,1.3c-0.7,0.3-1.6,0.5-2.5,0.5c-0.9,0-1.8-0.2-2.5-0.5c-0.7-0.3-1.4-0.8-1.9-1.3c-0.5-0.6-0.9-1.2-1.2-2
			c-0.3-0.8-0.4-1.6-0.4-2.5C167.9,114.1,168,113.3,168.3,112.5z M170.7,116.5c0.1,0.5,0.3,0.9,0.6,1.3c0.3,0.4,0.6,0.7,1,0.9
			c0.4,0.2,0.9,0.3,1.5,0.3s1.1-0.1,1.5-0.3c0.4-0.2,0.8-0.5,1-0.9c0.3-0.4,0.5-0.8,0.6-1.3c0.1-0.5,0.2-1,0.2-1.5
			c0-0.5-0.1-1-0.2-1.5c-0.1-0.5-0.3-0.9-0.6-1.3c-0.3-0.4-0.6-0.7-1-0.9c-0.4-0.2-0.9-0.3-1.5-0.3s-1.1,0.1-1.5,0.3
			c-0.4,0.2-0.8,0.5-1,0.9c-0.3,0.4-0.5,0.8-0.6,1.3c-0.1,0.5-0.2,1-0.2,1.5C170.5,115.6,170.6,116.1,170.7,116.5z"/>
		<path fill="#FFFFFF" d="M193.6,112.2c-0.2-0.3-0.4-0.5-0.6-0.7s-0.5-0.3-0.8-0.5c-0.3-0.1-0.6-0.2-0.9-0.2c-0.6,0-1.1,0.1-1.5,0.3
			c-0.4,0.2-0.8,0.5-1,0.9c-0.3,0.4-0.5,0.8-0.6,1.3c-0.1,0.5-0.2,1-0.2,1.5c0,0.5,0.1,1,0.2,1.5c0.1,0.5,0.3,0.9,0.6,1.3
			c0.3,0.4,0.6,0.7,1,0.9c0.4,0.2,0.9,0.3,1.5,0.3c0.8,0,1.5-0.2,1.9-0.7c0.5-0.5,0.7-1.2,0.8-2h2.6c-0.1,0.8-0.2,1.4-0.5,2.1
			c-0.3,0.6-0.7,1.1-1.1,1.6c-0.5,0.4-1,0.8-1.6,1c-0.6,0.2-1.3,0.3-2.1,0.3c-0.9,0-1.8-0.2-2.5-0.5c-0.7-0.3-1.4-0.8-1.9-1.3
			c-0.5-0.6-0.9-1.2-1.2-2c-0.3-0.8-0.4-1.6-0.4-2.5c0-0.9,0.1-1.8,0.4-2.5c0.3-0.8,0.7-1.5,1.2-2c0.5-0.6,1.1-1,1.9-1.4
			c0.7-0.3,1.6-0.5,2.5-0.5c0.7,0,1.3,0.1,1.9,0.3s1.1,0.5,1.6,0.8c0.5,0.4,0.9,0.8,1.2,1.4s0.5,1.2,0.6,1.9h-2.6
			C193.9,112.7,193.8,112.4,193.6,112.2z"/>
		<path fill="#FFFFFF" d="M211.7,108.9v2.2h-6.4v2.6h5.9v2.1h-5.9v3h6.6v2.2h-9.2v-12.1H211.7z"/>
		<path fill="#FFFFFF" d="M223.9,108.9l4.5,12.1h-2.8l-0.9-2.7h-4.5l-1,2.7h-2.7l4.6-12.1H223.9z M224.1,116.4l-1.5-4.5h0l-1.6,4.5
			H224.1z"/>
		<path fill="#FFFFFF" d="M236.4,108.9l5.1,8.2h0v-8.2h2.5v12.1h-2.7l-5.1-8.1h0v8.1h-2.5v-12.1H236.4z"/>
		<path fill="#FFFFFF" d="M261.4,108.9l4.5,12.1h-2.8l-0.9-2.7h-4.5l-1,2.7h-2.7l4.6-12.1H261.4z M261.6,116.4l-1.5-4.5h0l-1.6,4.5
			H261.6z"/>
		<path fill="#FFFFFF" d="M276.5,108.9c0.8,0,1.5,0.1,2.2,0.4c0.7,0.2,1.3,0.6,1.8,1.1c0.5,0.5,0.9,1.1,1.2,1.9s0.4,1.6,0.4,2.6
			c0,0.9-0.1,1.7-0.3,2.5c-0.2,0.7-0.6,1.4-1,1.9c-0.5,0.5-1,1-1.7,1.3c-0.7,0.3-1.5,0.5-2.4,0.5h-5.2v-12.1H276.5z M276.3,118.8
			c0.4,0,0.8-0.1,1.1-0.2c0.4-0.1,0.7-0.3,1-0.6s0.5-0.7,0.7-1.1c0.2-0.5,0.3-1,0.3-1.7c0-0.6-0.1-1.2-0.2-1.7
			c-0.1-0.5-0.3-0.9-0.6-1.3c-0.3-0.4-0.6-0.6-1.1-0.8c-0.4-0.2-1-0.3-1.7-0.3h-1.9v7.7H276.3z"/>
		<path fill="#FFFFFF" d="M290.7,121.1l-3.9-12.1h2.7l2.7,8.5h0l2.7-8.5h2.8l-4,12.1H290.7z"/>
		<path fill="#FFFFFF" d="M312,108.9v2.2h-6.4v2.6h5.9v2.1h-5.9v3h6.6v2.2h-9.2v-12.1H312z"/>
		<path fill="#FFFFFF" d="M320.8,108.9l5.1,8.2h0v-8.2h2.5v12.1h-2.7l-5.1-8.1h0v8.1h-2.5v-12.1H320.8z"/>
		<path fill="#FFFFFF" d="M334,111.2v-2.2h10v2.2h-3.6v9.9h-2.7v-9.9H334z"/>
		<path fill="#FFFFFF" d="M358.5,120.2c-0.9,0.8-2.2,1.2-3.8,1.2c-1.6,0-2.9-0.4-3.8-1.2c-0.9-0.8-1.4-2-1.4-3.7v-7.6h2.7v7.6
			c0,0.3,0,0.7,0.1,1c0.1,0.3,0.2,0.6,0.4,0.8c0.2,0.2,0.4,0.4,0.8,0.6c0.3,0.2,0.8,0.2,1.3,0.2c1,0,1.6-0.2,2-0.6
			c0.4-0.4,0.5-1.1,0.5-2v-7.6h2.7v7.6C359.9,118.1,359.4,119.4,358.5,120.2z"/>
		<path fill="#FFFFFF" d="M372.9,108.9c0.5,0,1,0.1,1.5,0.3c0.4,0.2,0.8,0.4,1.1,0.7c0.3,0.3,0.5,0.7,0.7,1.1
			c0.2,0.4,0.2,0.8,0.2,1.3c0,0.7-0.2,1.3-0.5,1.9s-0.8,0.9-1.5,1.2v0c0.3,0.1,0.6,0.2,0.8,0.4c0.2,0.2,0.4,0.4,0.5,0.7
			c0.1,0.3,0.2,0.5,0.3,0.8s0.1,0.6,0.1,0.9c0,0.2,0,0.4,0,0.7c0,0.3,0,0.5,0.1,0.8s0.1,0.5,0.1,0.8s0.2,0.5,0.3,0.6h-2.7
			c-0.1-0.4-0.2-0.8-0.3-1.4c0-0.5-0.1-1-0.2-1.5c-0.1-0.6-0.3-1.1-0.6-1.4s-0.8-0.4-1.4-0.4H369v4.7h-2.7v-12.1H372.9z M372,114.4
			c0.6,0,1.1-0.1,1.4-0.4s0.5-0.7,0.5-1.3c0-0.6-0.2-1-0.5-1.3c-0.3-0.3-0.8-0.4-1.4-0.4H369v3.4H372z"/>
		<path fill="#FFFFFF" d="M391.9,108.9v2.2h-6.4v2.6h5.9v2.1h-5.9v3h6.6v2.2h-9.2v-12.1H391.9z"/>
		<path fill="#FFFFFF" d="M400.1,118.1c0.1,0.3,0.3,0.5,0.6,0.7s0.5,0.3,0.9,0.4c0.3,0.1,0.7,0.1,1,0.1c0.2,0,0.5,0,0.8-0.1
			c0.3,0,0.5-0.1,0.8-0.2s0.4-0.3,0.6-0.5c0.2-0.2,0.2-0.5,0.2-0.8c0-0.3-0.1-0.6-0.3-0.8c-0.2-0.2-0.5-0.4-0.8-0.5
			c-0.3-0.1-0.7-0.3-1.2-0.4c-0.4-0.1-0.9-0.2-1.3-0.3c-0.5-0.1-0.9-0.3-1.3-0.4c-0.4-0.2-0.8-0.4-1.2-0.6c-0.3-0.3-0.6-0.6-0.8-1
			c-0.2-0.4-0.3-0.9-0.3-1.4c0-0.6,0.1-1.2,0.4-1.6c0.3-0.5,0.6-0.8,1-1.1c0.4-0.3,0.9-0.5,1.5-0.7c0.5-0.1,1.1-0.2,1.6-0.2
			c0.6,0,1.2,0.1,1.8,0.2c0.6,0.1,1.1,0.4,1.6,0.7c0.5,0.3,0.8,0.7,1.1,1.2c0.3,0.5,0.4,1.1,0.4,1.8h-2.6c0-0.4-0.1-0.7-0.2-0.9
			s-0.3-0.4-0.5-0.6s-0.5-0.2-0.7-0.3s-0.6-0.1-0.9-0.1c-0.2,0-0.4,0-0.6,0.1c-0.2,0-0.4,0.1-0.6,0.2c-0.2,0.1-0.3,0.3-0.4,0.4
			s-0.2,0.4-0.2,0.6c0,0.2,0,0.4,0.1,0.6c0.1,0.1,0.3,0.3,0.5,0.4c0.3,0.1,0.6,0.2,1.1,0.4s1.1,0.3,1.8,0.5c0.2,0,0.5,0.1,0.9,0.2
			c0.4,0.1,0.8,0.3,1.2,0.6c0.4,0.3,0.7,0.6,1,1c0.3,0.4,0.4,1,0.4,1.7c0,0.6-0.1,1.1-0.3,1.5s-0.5,0.9-1,1.2
			c-0.4,0.3-1,0.6-1.6,0.8c-0.6,0.2-1.4,0.3-2.2,0.3c-0.7,0-1.3-0.1-1.9-0.2c-0.6-0.2-1.2-0.4-1.7-0.8s-0.9-0.8-1.1-1.3
			c-0.3-0.5-0.4-1.2-0.4-1.9h2.6C399.9,117.5,400,117.8,400.1,118.1z"/>
	</g>
	<path fill-rule="evenodd" clip-rule="evenodd" fill="#FFFCD5" d="M101.8,19.2c11.5,0,20.9,9.4,20.9,20.9c0,11.5-9.4,20.9-20.9,20.9
		s-20.9-9.4-20.9-20.9C80.9,28.5,90.3,19.2,101.8,19.2"/>
	<path opacity="0.5" fill-rule="evenodd" clip-rule="evenodd" fill="#00AEEF" d="M86.4,135.6c-58.1-4.6-74-67.8-2.4-67.8
		c28.3,0,44.3-15.8,53.2-31.4C176.6,80.2,141,140,86.4,135.6"/>
	
		<linearGradient id="SVGID_1_" gradientUnits="userSpaceOnUse" x1="126.2554" y1="202.5303" x2="127.3855" y2="202.5303" gradientTransform="matrix(-14.5705 -5.7327 7.368 -18.727 408.462 4620.5137)">
		<stop  offset="0" style="stop-color:#FFFFFF"/>
		<stop  offset="1" style="stop-color:#FFFFFF"/>
	</linearGradient>
	<path opacity="0.5" fill="url(#SVGID_1_)" d="M45.1,83c-9.7,7.8-8.6,20.2,0.5,29.5C38.5,100.5,41.9,89.2,45.1,83z"/>
	<path fill-rule="evenodd" clip-rule="evenodd" fill="#FFCB05" d="M65.8,42.9c0,0-4.7,4.3-9.5,11.6c-4.8,7.2-9.8,17.5-9.4,29.4
		c0.3,11.9,2.7,20.5,4.7,26.1c2,5.7,1.1,8,3.7,8.3c2.6,0.4,13,1.7,15.6,2.1c2.6,0.3-6.1-7.1-11-17.7c-4.8-10.4-7.9-24.2-2.3-37.1
		c5.6-13,10.4-20,13.4-23.8c3-3.8,4.4-4.4,4.4-4.4C72.2,39.2,69,41,65.8,42.9"/>
	<path fill-rule="evenodd" clip-rule="evenodd" fill="#824E40" d="M55.9,91.5c-0.1-0.3-0.1-0.5-0.2-0.8c-2.8,0-5.4-0.6-5.4-0.6
		c0.2-0.2-6.6-2.1,0.1,1C52.5,91.4,54.3,91.6,55.9,91.5 M58.2,98.7c-0.1-0.2-0.2-0.5-0.3-0.7c-3.2,0.3-6.7-0.6-6.7-0.6
		c0.2-0.2-6.6-2.1,0.2,1C54.1,98.9,56.4,98.9,58.2,98.7z M60.9,104.6c-0.1-0.2-0.2-0.5-0.4-0.7c-3.1,0.2-6.4-0.6-6.4-0.6
		c0.2-0.2-6.6-2.1,0.2,0.9C56.9,104.8,59.1,104.9,60.9,104.6z M63.8,110c-0.1-0.2-0.3-0.4-0.4-0.6c-3.3,0.6-7.5-0.4-7.5-0.4
		c0.2-0.2-6.5-2.1,0.2,0.9C59.4,110.6,61.9,110.4,63.8,110z M67.9,116.4c-0.2-0.2-0.3-0.5-0.5-0.7c-3.7,1.1-9.2-0.3-9.2-0.3
		c0.2-0.2-7.5-2.4,0.3,1.1C62.7,117.3,65.8,117,67.9,116.4z"/>
	<path fill-rule="evenodd" clip-rule="evenodd" fill="#824E40" d="M65.8,42.9c0,0-4.7,4.3-9.5,11.6c-4.8,7.2-9.8,17.5-9.4,29.4
		c0.3,11.9,2.7,20.5,4.7,26.1c2,5.7,2.6,8.2,3.7,8.3c1.1,0.2,4.5,0.6,6.8,0.9c-2.4-4.5-6.2-12.2-8.9-20.6c-2.6-8.3-4.3-16.3-3-23.9
		c1.3-7.6,5.9-16.5,10-22.3c4.1-5.8,7.9-9.5,7.9-9.5c0.7-0.5,0.8-1.1,0.5-1.6C67.6,41.8,66.7,42.3,65.8,42.9"/>
	<path fill-rule="evenodd" clip-rule="evenodd" fill="#FFCB05" d="M76.1,30.8c7.7-5.9,13.9-4.9,22.3-2.6c0,0-3,0.5-5.7,1.4
		c-0.1,0,1.2-0.3-0.3,0.1c-1.4,0.3-5.1,2.7-5.4,3l0.5,0c7.2,1.3,15.8,4.4,18.6,11.9c-0.6-0.3-1.3-0.6-1.9-0.8
		c-5.5-2.2-8.8-2.2-12.1-2.3c1.2,0.8,4.7,3.4,7.4,7.8c2.8,4.4,4.9,10.5,3.2,18.5c0-0.1-0.1-0.3-0.1-0.5
		c-1.7-2.6-12.7-16.5-17.2-19.2c-4.5-2.7-2.6-1.6-3.6-2.1c2.2,3.7,5.6,10.8,5.1,19.5c0.1,1.2,0.1,1.4,0,3.9c0,0.6-0.1,1.3-0.1,2
		c-3.9-5.7-15.3-23.8-22.9-23.9c0,0-3.3-0.4-8.1,0.5s-8.4,0.5-17.3,8.3c-8.9,7.8-13.8,15-13.8,15s0.6-5.3,3.4-11.4c0,0,0,0,0,0
		c0,0,0.3-0.7,1-1.8c0.8-1.4,1.7-2.9,2.8-4.2c4.3-5.7,12.1-13.6,22.4-16.1c-5.2-2.1-11.4-2.5-17.7-1.7c-6.4,0.7-12.9,2.6-18.7,4.8
		c0,0,0,0,0.1-0.1c0,0,0,0,0,0s8.2-8.8,23.3-11.9c15-3.1,19.8-1.6,22.2-0.9c-4-6.4-14.7-9.6-14.7-9.6S63,17.4,69.1,22
		c6.1,4.6,6.5,7,6.8,8.6C76,30.7,76.1,30.8,76.1,30.8"/>
	<path fill-rule="evenodd" clip-rule="evenodd" fill="#E6E7E8" d="M56.7,43.6c-4.9,1.1-10.8,2.9-17.9,9.8c-7.1,7-11.4,12.7-13,15.3
		c1.5-3.8,1.7-5.9,8.9-14.3S53.4,43.1,56.7,43.6"/>
	<path fill-rule="evenodd" clip-rule="evenodd" fill="#E6E7E8" d="M23.9,37.9c1.2-1.4,12.3-7.5,19.5-8.4c6.2-0.8,13.3-0.6,18.8,3.2
		c0,0-2.9-0.6-6.8-1.1C43.8,30,33.9,31.7,23.9,37.9"/>
	<path opacity="0.29" fill-rule="evenodd" clip-rule="evenodd" fill="#FFFFFF" d="M136.4,78.2c2.1,0.5,3.4,2.7,2.8,4.8
		c-0.5,2.1-2.7,3.4-4.8,2.8c-2.1-0.5-3.4-2.7-2.8-4.8C132.2,78.9,134.3,77.6,136.4,78.2"/>
	<path opacity="0.29" fill-rule="evenodd" clip-rule="evenodd" fill="#FFFFFF" d="M137.7,81c0.1,0,0.3,0.1,0.4,0.1
		c0.1,0,0.3,0.1,0.4,0.1c0.2,0.5,0.2,1,0.1,1.5c-0.1,0.5-0.4,0.9-0.8,1.3c-0.1,0-0.3-0.1-0.4-0.1c-0.1,0-0.3-0.1-0.4-0.1
		c0.4-0.4,0.7-0.8,0.8-1.3C137.9,82.1,137.8,81.6,137.7,81"/>
	<path opacity="0.29" fill-rule="evenodd" clip-rule="evenodd" fill="#FFFFFF" d="M131.3,90.5c0.9,0.2,1.5,1.2,1.2,2.1
		c-0.2,0.9-1.2,1.5-2.1,1.2c-0.9-0.2-1.5-1.2-1.2-2.1C129.4,90.8,130.3,90.2,131.3,90.5"/>
	<path opacity="0.29" fill-rule="evenodd" clip-rule="evenodd" fill="#FFFFFF" d="M131.7,91.7c0.1,0,0.1,0,0.2,0c0.1,0,0.1,0,0.2,0
		c0.1,0.2,0.1,0.4,0,0.6c0,0.2-0.2,0.4-0.3,0.5c-0.1,0-0.1,0-0.2,0c-0.1,0-0.1,0-0.2,0c0.2-0.2,0.3-0.3,0.3-0.5
		C131.8,92.2,131.8,92,131.7,91.7"/>
	<path opacity="0.29" fill-rule="evenodd" clip-rule="evenodd" fill="#FFFFFF" d="M124.7,97.3c0.5,0.1,0.8,0.7,0.7,1.2
		c-0.1,0.5-0.7,0.8-1.2,0.7c-0.5-0.1-0.8-0.7-0.7-1.2C123.6,97.5,124.2,97.2,124.7,97.3"/>
	<path opacity="0.29" fill-rule="evenodd" clip-rule="evenodd" fill="#FFFFFF" d="M125,98c0,0,0.1,0,0.1,0c0,0,0.1,0,0.1,0
		c0,0.1,0.1,0.3,0,0.4c0,0.1-0.1,0.2-0.2,0.3c0,0-0.1,0-0.1,0c0,0-0.1,0-0.1,0c0.1-0.1,0.2-0.2,0.2-0.3
		C125.1,98.3,125.1,98.2,125,98"/>
	<path fill-rule="evenodd" clip-rule="evenodd" fill="#FFFFFF" d="M143.3,49c4.7,8,7.3,17.4,7.3,27.4c0,30.2-24.5,54.6-54.6,54.6
		c-5.8,0-11.5-0.9-16.8-2.6c-0.5-0.2-0.6-0.4-0.4-0.5c1.7-0.7,5.3-1.1,2.6-1.1c-1.4,0-2.3-0.1-2.8-0.2c-0.3-0.1-0.6-0.4-0.4-1.1
		c0.9-3.4,3.4-8.3,9.6-11.6c10.2-5.4,20.7-6,23.9-8.3c3.2-2.2,3.8-12,6-11.4c2.2,0.6,2.9,7.6,2.9,7.6s3.8,2.2,13.4-7.3
		c9.5-9.5,11.1-17.1,9.5-22.8c-3.2-11.5-22.3-10.7-22.3-26.2c0,0,1.6-2.9,8,2.9c6.4,5.7,13.7,15.3,14.6,12.4c1-2.9-6.4-12.4-3.5-13
		C141.1,47.5,142.2,48,143.3,49"/>
	<path fill-rule="evenodd" clip-rule="evenodd" fill="#FFFFFF" d="M97.1,99.8c0,0-6.8-1.7-13.7,2.2c-6.9,3.9-11.5,4.5-14.2,3.8
		s-3.4-1.5-3.4-1.5s1.8,4.1,8.1,3.7C81.4,107.6,87.2,99.2,97.1,99.8"/>
	<path fill-rule="evenodd" clip-rule="evenodd" fill="#FFFFFF" d="M103.3,96.9c0,0,4.1-5,12-5.9c7.9-0.9,8.6-3.6,8.6-4.6
		c0-1-0.6-1.6-0.6-1.6s2.3,0.5,1.7,3.8c-0.6,3.3-4.9,3.7-10,3.7C109.8,92.3,103.3,96.9,103.3,96.9"/>
	<path fill-rule="evenodd" clip-rule="evenodd" fill="#FFFFFF" d="M100.7,77.1l4.7,2.8l-3.1,1l-4.2-3L100.7,77.1z M97.1,78.1
		l4.1,3.1L94,83.4l-1.2-4.1L97.1,78.1z M92.1,79.5l1.2,4.1L87,85.5c-0.3-1.2-1.6-3.5-0.1-4.5L92.1,79.5z M67.2,102.9l-0.5-1.4
		l2.7-0.9L68,95.8L84.6,90c1.4-0.8,1.5-1.8,1.4-2.6l-1.5-5.2l-2.2,0.1l-0.3-0.6l3-2.3l18.4-4.7c0.4-0.1-1.8,1.7-1.8,1.7l5.3,3
		l17.6-6.4c-0.7,2.1-3.2,10.1-4.5,14.4c-4.1,1-8.6,1.3-12.4,3.7c-5.8,3.5-11.6,5.1-19,5.6C81.3,97,74.4,102.8,67.2,102.9z"/>
	<polygon fill-rule="evenodd" clip-rule="evenodd" fill="#FFFFFF" points="68.7,92 69.4,91.8 71.3,96.5 70.6,96.7 	"/>
	<polygon fill-rule="evenodd" clip-rule="evenodd" fill="#FFFFFF" points="75.4,89.5 76.1,89.2 78,93.8 77.3,94.1 	"/>
	<polygon fill-rule="evenodd" clip-rule="evenodd" fill="#FFFFFF" points="86.4,85.6 86.8,86.4 68.2,92.8 67.9,92 	"/>
	
		<rect x="82.9" y="87.3" transform="matrix(-0.9282 0.372 -0.372 -0.9282 193.7978 142.2793)" fill-rule="evenodd" clip-rule="evenodd" fill="#FFFFFF" width="0.6" height="5"/>
</g>
<g>
</g>
</svg>
